<svg width="43" height="43" viewBox="0 0 43 43" fill="none" xmlns="http://www.w3.org/2000/svg">
<path d="M37.0464 10.4884C37.0464 10.2632 36.9563 9.99302 36.8662 9.76783C36.596 9.22738 36.1006 9.00219 35.5151 9.00219C35.1097 9.00219 34.7044 9.00219 34.2991 9.00219C34.2991 8.59685 34.2991 8.28159 34.2991 7.92129C34.2991 7.3358 33.8937 6.93047 33.3533 6.93047C32.8128 6.93047 32.4075 7.3358 32.3624 7.92129C32.3624 8.28159 32.3624 8.64189 32.3624 9.00219H29.6152V8.50678C29.6152 7.38084 29.3449 6.93047 28.6243 6.93047C27.9488 6.93047 27.6785 7.38084 27.6785 8.50678V9.00219H24.8862C24.8862 8.59685 24.8862 8.23655 24.8862 7.87625C24.8862 7.47092 24.661 7.15565 24.3007 7.02054C23.6702 6.75032 22.9946 7.20069 22.9496 7.87625C22.9496 8.23655 22.9496 8.64189 22.9496 9.00219H20.2023C20.2023 8.64189 20.2023 8.32663 20.2023 7.96633C20.2023 7.38084 19.797 6.93047 19.2565 6.93047C18.7161 6.93047 18.2657 7.38084 18.2657 7.96633C18.2657 8.32663 18.2657 8.64189 18.2657 9.00219H15.5184C15.5184 8.64189 15.5184 8.32663 15.5184 7.96633C15.5184 7.83122 15.5184 7.6961 15.4734 7.56099C15.2932 7.11062 14.8429 6.84039 14.3925 6.93047C13.9421 7.02054 13.6268 7.42588 13.5818 7.87625C13.5818 8.23655 13.5818 8.59685 13.5818 9.00219H10.8345C10.8345 8.64189 10.8345 8.32663 10.8345 7.96633C10.8345 7.38084 10.4292 6.93047 9.8437 6.93047C9.30325 6.93047 8.89791 7.38084 8.85287 7.96633C8.85287 8.32663 8.85287 8.64189 8.85287 9.00219C8.35746 9.00219 7.95212 9.00219 7.50175 9.00219C6.69107 9.04723 6.06055 9.67775 6.06055 10.4884C6.06055 18.5501 6.06055 26.6569 6.06055 34.7186C6.06055 34.9438 6.15062 35.169 6.2407 35.3942C6.55596 36.0247 7.14145 36.2048 7.81701 36.2048C16.9596 36.2048 26.1473 36.2048 35.2899 36.2048C35.3349 36.2048 35.425 36.2048 35.47 36.2048C36.4158 36.1598 37.0013 35.5293 37.0013 34.5835C37.0463 26.5668 37.0464 18.5501 37.0464 10.4884ZM32.8128 7.92129C32.8128 7.60603 32.993 7.38084 33.3082 7.38084C33.5785 7.38084 33.8037 7.60603 33.8037 7.92129C33.8037 8.73197 33.8037 9.58768 33.8037 10.3984C33.8037 10.7136 33.5785 10.9388 33.3082 10.9388C33.038 10.9388 32.8128 10.7136 32.8128 10.3984C32.8128 9.99302 32.8128 9.58768 32.8128 9.18234C32.8128 8.777 32.8128 8.32663 32.8128 7.92129ZM28.6243 7.38084C28.8946 7.38084 29.1197 7.60603 29.1197 7.92129C29.1197 8.32663 29.1197 8.73197 29.1197 9.1373C29.1197 9.54264 29.1197 9.94798 29.1197 10.3533C29.1197 10.6686 28.8946 10.8938 28.6243 10.8938C28.3541 10.8938 28.1289 10.6686 28.1289 10.3533C28.1289 9.54264 28.1289 8.73197 28.1289 7.92129C28.1289 7.60603 28.3091 7.38084 28.6243 7.38084ZM23.445 7.96633C23.445 7.65107 23.6252 7.42588 23.9404 7.42588C24.2107 7.42588 24.4358 7.65107 24.4358 7.96633C24.4358 8.37167 24.4358 8.777 24.4358 9.18234C24.4358 9.58768 24.4358 9.99302 24.4358 10.3984C24.4358 10.7136 24.2557 10.9388 23.9404 10.9388C23.6702 10.9388 23.445 10.7136 23.445 10.3984C23.4 9.58768 23.4 8.777 23.445 7.96633ZM18.7161 7.92129C18.7161 7.60603 18.9413 7.38084 19.2115 7.42588C19.4817 7.42588 19.6619 7.65107 19.6619 7.96633C19.6619 8.37167 19.6619 8.82204 19.6619 9.22738C19.6619 9.63272 19.6619 10.0381 19.6619 10.4434C19.6619 10.7587 19.4817 10.9838 19.1665 10.9838C18.8962 10.9838 18.671 10.7587 18.671 10.4434C18.7161 9.58768 18.7161 8.73197 18.7161 7.92129ZM14.0322 7.92129C14.0322 7.60603 14.2574 7.38084 14.5276 7.38084C14.8429 7.38084 15.023 7.60603 15.023 7.92129C15.023 8.32663 15.023 8.73197 15.023 9.1373C15.023 9.54264 15.023 9.94798 15.023 10.3533C15.023 10.7136 14.8429 10.8938 14.5276 10.8938C14.2574 10.8938 14.0322 10.6686 14.0322 10.3533C14.0322 9.58768 14.0322 8.73197 14.0322 7.92129ZM9.34828 7.92129C9.34828 7.60603 9.52843 7.38084 9.8437 7.38084C10.1139 7.38084 10.3391 7.60603 10.3391 7.92129C10.3391 8.73197 10.3391 9.58768 10.3391 10.3984C10.3391 10.7136 10.1139 10.9388 9.8437 10.9388C9.52843 10.9388 9.34828 10.7136 9.34828 10.3984C9.34828 9.99302 9.34828 9.58768 9.34828 9.18234C9.34828 8.73197 9.34828 8.32663 9.34828 7.92129ZM6.55596 10.5335C6.55596 9.94798 7.00633 9.4976 7.59182 9.4976C7.99716 9.4976 8.4025 9.4976 8.85287 9.4976V9.94798C8.85287 10.9388 9.16813 11.3892 9.79866 11.4342C10.4742 11.4342 10.7895 10.9838 10.7895 9.94798V9.4976H13.5368C13.5368 9.81287 13.5368 10.0831 13.5368 10.3533C13.5368 10.9388 13.9421 11.3892 14.4826 11.3892C15.023 11.3892 15.4283 10.9388 15.4734 10.3533C15.4734 10.0831 15.4734 9.76783 15.4734 9.4976H18.2207C18.2207 9.81287 18.2207 10.0831 18.2207 10.3984C18.2207 10.9838 18.671 11.4342 19.2115 11.4342C19.7519 11.4342 20.1573 10.9838 20.1573 10.3984C20.1573 10.1281 20.1573 9.81287 20.1573 9.4976H22.9046C22.9046 9.81287 22.9046 10.1281 22.9046 10.3984C22.9046 10.9388 23.3549 11.3892 23.8504 11.3892C24.3908 11.3892 24.7962 10.9388 24.8412 10.3984C24.8412 10.0831 24.8412 9.81287 24.8412 9.45257H27.5885C27.5885 9.76783 27.5885 10.0381 27.5885 10.3533C27.5885 10.9388 27.9938 11.3441 28.5793 11.3441C29.1197 11.3441 29.5251 10.8938 29.5251 10.3083C29.5251 10.0381 29.5251 9.72279 29.5251 9.45257L29.5701 9.40753H32.2724C32.2724 9.72279 32.2724 10.0381 32.2724 10.3083C32.2724 10.8487 32.6777 11.2991 33.2182 11.2991C33.7586 11.2991 34.209 10.8487 34.209 10.3083C34.209 9.99302 34.209 9.72279 34.209 9.40753C34.7044 9.40753 35.2448 9.36249 35.7403 9.40753C36.1906 9.45257 36.5059 9.90294 36.5509 10.3533C36.5509 11.7044 36.5509 13.0105 36.5509 14.3617C36.5509 14.4067 36.5509 14.4067 36.5509 14.4968H6.55596C6.55596 14.4067 6.55596 14.3617 6.55596 14.3166C6.55596 13.1006 6.55596 11.8396 6.55596 10.5335ZM34.5243 33.6827H8.62768V15.0823H34.5243V33.6827ZM35.38 35.7545C30.8762 35.7545 26.3725 35.7545 21.9137 35.7545C17.2298 35.7545 12.5009 35.7545 7.81701 35.7545C7.36663 35.7545 7.00633 35.6644 6.78115 35.259C6.69107 35.0789 6.601 34.8537 6.601 34.6736C6.601 28.2332 6.601 21.7478 6.601 15.3074C6.601 15.2174 6.601 15.1723 6.601 15.0823H8.13227V15.3975V33.6827C8.13227 34.1331 8.13227 34.1331 8.58265 34.1331H34.5243C34.9746 34.1331 34.9746 34.1331 34.9746 33.6827V15.4426V15.0823H36.5509V15.4426C36.5509 21.8379 36.5509 28.1882 36.5509 34.5835C36.596 35.169 36.1456 35.7545 35.38 35.7545Z" fill="#BD995F"/>
<path d="M27.7236 25.2157C27.4984 24.36 26.9579 23.6394 26.0572 22.9639C25.2916 22.3784 24.4809 21.883 23.7152 21.3875C23.1748 21.0272 22.7695 20.6219 22.4992 20.1265C22.4092 19.9463 22.3191 19.8112 22.229 19.6311C22.7695 19.541 23.1748 19.2708 23.4901 18.8204C23.6252 18.6403 23.6702 18.4601 23.7603 18.28C23.8053 18.1899 23.7603 18.0548 23.6702 18.0097C23.5801 17.9647 23.4901 17.9647 23.445 17.9647H23.4L23.3549 18.0097C22.9496 18.28 22.4092 18.2349 22.0038 17.9647C21.5534 17.6494 21.3733 17.0639 21.5985 16.5685C21.5985 16.5235 21.6435 16.4785 21.6886 16.4334L21.7336 16.3884C21.8237 16.2082 21.6886 16.0731 21.6886 16.0731C21.6435 16.0281 21.5534 16.0281 21.5534 16.0281H21.4183C20.5176 16.2983 19.9321 17.1991 20.0672 18.1448C20.1573 18.5952 20.3825 19.0006 20.6977 19.2708C20.8779 19.4059 21.058 19.496 21.2382 19.586C20.8328 20.4418 20.2924 21.0723 19.5718 21.5227C19.0313 21.7478 18.581 22.0631 18.1306 22.3784L17.9955 22.4684C17.41 22.8738 16.8695 23.3241 16.4192 23.8196C15.1581 25.2157 15.1131 27.6027 16.2841 28.9088C16.5543 29.2241 16.8695 29.5393 17.1848 29.8546L17.2749 29.9447C17.41 30.0798 17.6352 30.1248 17.7703 30.1248C19.0313 30.1248 20.3374 30.1248 21.5985 30.1248C22.9046 30.1248 24.2557 30.1248 25.5618 30.1248C25.7419 30.1248 25.9671 30.0347 26.0572 29.9447L26.1923 29.8095C26.4625 29.5393 26.7328 29.2691 27.003 28.9989C27.9037 27.8729 28.1289 26.6569 27.7236 25.2157ZM20.968 16.7487C20.9229 16.9288 20.9229 17.154 20.968 17.3342C21.058 17.6945 21.2382 18.0097 21.5534 18.28C21.9588 18.6403 22.4092 18.7754 22.9046 18.6853C22.8595 18.7303 22.7695 18.8204 22.7244 18.8654C22.4992 19.0456 22.274 19.1357 22.0038 19.1357C21.6435 19.1807 21.2832 19.0456 21.013 18.8654C20.7428 18.6403 20.5626 18.325 20.5176 18.0097C20.4275 17.4693 20.6527 17.0189 20.968 16.7487ZM26.4625 28.4584C26.2373 28.7286 25.9671 28.9538 25.6969 29.2241L25.5618 29.3592C22.9496 29.3592 20.3374 29.3592 17.7703 29.3592L17.6802 29.2691C17.365 28.9989 17.0947 28.6836 16.8245 28.3683C15.8787 27.2874 15.9238 25.3508 16.9596 24.2249C17.365 23.7745 17.8604 23.3692 18.4008 23.0089L18.5359 22.9188C18.9863 22.6035 19.4367 22.3333 19.8871 22.0631C20.6527 21.6127 21.2382 20.9822 21.6886 20.1715C21.7336 20.2616 21.8237 20.3967 21.8687 20.4868C22.229 21.0723 22.6794 21.5677 23.3549 21.973C24.1206 22.4684 24.9313 22.9639 25.6519 23.5493C26.3725 24.0898 26.8679 24.7203 27.048 25.3959C27.3633 26.6119 27.1831 27.6027 26.4625 28.4584Z" fill="#BD995F"/>
<path d="M25.1114 30.4401H18.2657C17.8604 30.4401 17.5001 30.8004 17.5001 31.2057V31.611C17.5001 32.0164 17.8604 32.3767 18.2657 32.3767H25.1114C25.5167 32.3767 25.877 32.0164 25.877 31.611V31.2057C25.877 30.8004 25.5167 30.4401 25.1114 30.4401ZM25.1114 31.611H18.2207L18.2657 31.1607L25.1114 31.2057V31.611Z" fill="#BD995F"/>
</svg>
