<svg width="39" height="37" viewBox="0 0 39 37" fill="none" xmlns="http://www.w3.org/2000/svg">
<g filter="url(#filter0_d_1_1748)">
<path d="M34.9858 3.57522C34.9858 3.35003 34.8957 3.07981 34.8057 2.85462C34.5354 2.31417 34.04 2.08898 33.4545 2.08898C33.0492 2.08898 32.6439 2.08898 32.2385 2.08898C32.2385 1.68365 32.2385 1.36838 32.2385 1.00808C32.2385 0.422595 31.8332 0.0172585 31.2927 0.0172585C30.7523 0.0172585 30.3469 0.422595 30.3019 1.00808C30.3019 1.36838 30.3019 1.72868 30.3019 2.08898H27.5546V1.59357C27.5546 0.467633 27.2844 0.0172585 26.5638 0.0172585C25.8882 0.0172585 25.618 0.467633 25.618 1.59357V2.08898H22.8257C22.8257 1.68365 22.8257 1.32335 22.8257 0.963046C22.8257 0.557709 22.6005 0.242445 22.2402 0.107333C21.6097 -0.162892 20.9341 0.287484 20.8891 0.963046C20.8891 1.32335 20.8891 1.72868 20.8891 2.08898H18.1418C18.1418 1.72868 18.1418 1.41342 18.1418 1.05312C18.1418 0.467633 17.7364 0.0172585 17.196 0.0172585C16.6555 0.0172585 16.2052 0.467633 16.2052 1.05312C16.2052 1.41342 16.2052 1.72868 16.2052 2.08898H13.4579C13.4579 1.72868 13.4579 1.41342 13.4579 1.05312C13.4579 0.918008 13.4579 0.782896 13.4128 0.647783C13.2327 0.197408 12.7823 -0.0728164 12.3319 0.0172585C11.8816 0.107334 11.5663 0.512671 11.5213 0.963046C11.5213 1.32335 11.5213 1.68365 11.5213 2.08898H8.77397C8.77397 1.72868 8.77397 1.41342 8.77397 1.05312C8.77397 0.467633 8.36864 0.0172585 7.78315 0.0172585C7.2427 0.0172585 6.83736 0.467633 6.79232 1.05312C6.79232 1.41342 6.79232 1.72868 6.79232 2.08898C6.29691 2.08898 5.89157 2.08898 5.4412 2.08898C4.63052 2.13402 4 2.76455 4 3.57522C4 11.6369 4 19.7437 4 27.8054C4 28.0306 4.09007 28.2558 4.18015 28.481C4.49541 29.1115 5.0809 29.2916 5.75646 29.2916C14.8991 29.2916 24.0867 29.2916 33.2293 29.2916C33.2744 29.2916 33.3645 29.2916 33.4095 29.2916C34.3553 29.2466 34.9408 28.6161 34.9408 27.6703C34.9858 19.6536 34.9858 11.6369 34.9858 3.57522ZM30.7523 1.00808C30.7523 0.69282 30.9324 0.467633 31.2477 0.467633C31.5179 0.467633 31.7431 0.69282 31.7431 1.00808C31.7431 1.81876 31.7431 2.67447 31.7431 3.48514C31.7431 3.80041 31.5179 4.02559 31.2477 4.02559C30.9775 4.02559 30.7523 3.80041 30.7523 3.48514C30.7523 3.07981 30.7523 2.67447 30.7523 2.26913C30.7523 1.8638 30.7523 1.41342 30.7523 1.00808ZM26.5638 0.467633C26.834 0.467633 27.0592 0.69282 27.0592 1.00808C27.0592 1.41342 27.0592 1.81876 27.0592 2.2241C27.0592 2.62943 27.0592 3.03477 27.0592 3.44011C27.0592 3.75537 26.834 3.98056 26.5638 3.98056C26.2936 3.98056 26.0684 3.75537 26.0684 3.44011C26.0684 2.62943 26.0684 1.81876 26.0684 1.00808C26.0684 0.69282 26.2485 0.467633 26.5638 0.467633ZM21.3845 1.05312C21.3845 0.737858 21.5646 0.512671 21.8799 0.512671C22.1501 0.512671 22.3753 0.737858 22.3753 1.05312C22.3753 1.45846 22.3753 1.8638 22.3753 2.26913C22.3753 2.67447 22.3753 3.07981 22.3753 3.48514C22.3753 3.80041 22.1952 4.02559 21.8799 4.02559C21.6097 4.02559 21.3845 3.80041 21.3845 3.48514C21.3394 2.67447 21.3394 1.8638 21.3845 1.05312ZM16.6555 1.00808C16.6555 0.69282 16.8807 0.467634 17.151 0.512671C17.4212 0.512671 17.6013 0.737858 17.6013 1.05312C17.6013 1.45846 17.6013 1.90883 17.6013 2.31417C17.6013 2.71951 17.6013 3.12484 17.6013 3.53018C17.6013 3.84544 17.4212 4.07063 17.1059 4.07063C16.8357 4.07063 16.6105 3.84544 16.6105 3.53018C16.6555 2.67447 16.6555 1.81876 16.6555 1.00808ZM11.9716 1.00808C11.9716 0.69282 12.1968 0.467633 12.4671 0.467633C12.7823 0.467633 12.9625 0.69282 12.9625 1.00808C12.9625 1.41342 12.9625 1.81876 12.9625 2.2241C12.9625 2.62943 12.9625 3.03477 12.9625 3.44011C12.9625 3.80041 12.7823 3.98056 12.4671 3.98056C12.1968 3.98056 11.9716 3.75537 11.9716 3.44011C11.9716 2.67447 11.9716 1.81876 11.9716 1.00808ZM7.28774 1.00808C7.28774 0.69282 7.46789 0.467633 7.78315 0.467633C8.05338 0.467633 8.27856 0.69282 8.27856 1.00808C8.27856 1.81876 8.27856 2.67447 8.27856 3.48514C8.27856 3.80041 8.05338 4.02559 7.78315 4.02559C7.46789 4.02559 7.28774 3.80041 7.28774 3.48514C7.28774 3.07981 7.28774 2.67447 7.28774 2.26913C7.28774 1.81876 7.28774 1.41342 7.28774 1.00808ZM4.49541 3.62026C4.49541 3.03477 4.94579 2.58439 5.53127 2.58439C5.93661 2.58439 6.34195 2.58439 6.79232 2.58439V3.03477C6.79232 4.02559 7.10759 4.47597 7.73811 4.52101C8.41368 4.52101 8.72894 4.07063 8.72894 3.03477V2.58439H11.4762C11.4762 2.89966 11.4762 3.16988 11.4762 3.44011C11.4762 4.0256 11.8816 4.47597 12.422 4.47597C12.9625 4.47597 13.3678 4.0256 13.4128 3.44011C13.4128 3.16988 13.4128 2.85462 13.4128 2.58439H16.1601C16.1601 2.89966 16.1601 3.16988 16.1601 3.48514C16.1601 4.07063 16.6105 4.52101 17.151 4.52101C17.6914 4.52101 18.0967 4.07063 18.0967 3.48514C18.0967 3.21492 18.0967 2.89966 18.0967 2.58439H20.844C20.844 2.89966 20.844 3.21492 20.844 3.48514C20.844 4.02559 21.2944 4.47597 21.7898 4.47597C22.3303 4.47597 22.7356 4.02559 22.7806 3.48514C22.7806 3.16988 22.7806 2.89966 22.7806 2.53936H25.5279C25.5279 2.85462 25.5279 3.12485 25.5279 3.44011C25.5279 4.0256 25.9333 4.43093 26.5188 4.43093C27.0592 4.43093 27.4645 3.98056 27.4645 3.39507C27.4645 3.12485 27.4645 2.80958 27.4645 2.53936L27.5096 2.49432H30.2118C30.2118 2.80958 30.2118 3.12485 30.2118 3.39507C30.2118 3.93552 30.6172 4.38589 31.1576 4.38589C31.6981 4.38589 32.1484 3.93552 32.1484 3.39507C32.1484 3.07981 32.1484 2.80958 32.1484 2.49432C32.6439 2.49432 33.1843 2.44928 33.6797 2.49432C34.1301 2.53936 34.4454 2.98973 34.4904 3.44011C34.4904 4.79123 34.4904 6.09732 34.4904 7.44844C34.4904 7.49348 34.4904 7.49348 34.4904 7.58356H4.49541C4.49541 7.49348 4.49541 7.44844 4.49541 7.40341C4.49541 6.18739 4.49541 4.92634 4.49541 3.62026ZM32.4637 26.7695H6.56714V8.16904H32.4637V26.7695ZM33.3194 28.8412C28.8157 28.8412 24.3119 28.8412 19.8532 28.8412C15.1693 28.8412 10.4404 28.8412 5.75646 28.8412C5.30609 28.8412 4.94579 28.7512 4.7206 28.3458C4.63052 28.1657 4.54045 27.9405 4.54045 27.7603C4.54045 21.32 4.54045 14.8346 4.54045 8.39423C4.54045 8.30416 4.54045 8.25912 4.54045 8.16904H6.07172V8.48431V26.7695C6.07172 27.2199 6.07172 27.2199 6.5221 27.2199H32.4637C32.9141 27.2199 32.9141 27.2199 32.9141 26.7695V8.52934V8.16904H34.4904V8.52934C34.4904 14.9247 34.4904 21.275 34.4904 27.6703C34.5354 28.2558 34.0851 28.8412 33.3194 28.8412Z" fill="#BD995F"/>
<path d="M25.663 18.3026C25.4379 17.4469 24.8974 16.7263 23.9967 16.0508C23.231 15.4653 22.4203 14.9699 21.6547 14.4745C21.1143 14.1142 20.7089 13.7088 20.4387 13.2134C20.3486 13.0333 20.2585 12.8981 20.1685 12.718C20.7089 12.6279 21.1143 12.3577 21.4295 11.9073C21.5646 11.7272 21.6097 11.547 21.6997 11.3669C21.7448 11.2768 21.6997 11.1417 21.6097 11.0966C21.5196 11.0516 21.4295 11.0516 21.3845 11.0516H21.3394L21.2944 11.0966C20.8891 11.3669 20.3486 11.3218 19.9433 11.0516C19.4929 10.7363 19.3128 10.1509 19.5379 9.65544C19.5379 9.6104 19.583 9.56537 19.628 9.52033L19.6731 9.47529C19.7631 9.29514 19.628 9.16003 19.628 9.16003C19.583 9.11499 19.4929 9.11499 19.4929 9.11499H19.3578C18.457 9.38522 17.8716 10.286 18.0067 11.2318C18.0967 11.6821 18.3219 12.0875 18.6372 12.3577C18.8173 12.4928 18.9975 12.5829 19.1776 12.673C18.7723 13.5287 18.2319 14.1592 17.5113 14.6096C16.9708 14.8348 16.5204 15.15 16.0701 15.4653L15.9349 15.5554C15.3495 15.9607 14.809 16.4111 14.3586 16.9065C13.0976 18.3026 13.0525 20.6896 14.2235 21.9957C14.4937 22.311 14.809 22.6262 15.1243 22.9415L15.2143 23.0316C15.3495 23.1667 15.5746 23.2117 15.7098 23.2117C16.9708 23.2117 18.2769 23.2117 19.5379 23.2117C20.844 23.2117 22.1952 23.2117 23.5012 23.2117C23.6814 23.2117 23.9066 23.1216 23.9967 23.0316L24.1318 22.8965C24.402 22.6262 24.6722 22.356 24.9424 22.0858C25.8432 20.9598 26.0684 19.7438 25.663 18.3026ZM18.9074 9.83559C18.8624 10.0157 18.8624 10.2409 18.9074 10.4211C18.9975 10.7814 19.1776 11.0966 19.4929 11.3669C19.8982 11.7272 20.3486 11.8623 20.844 11.7722C20.799 11.8172 20.7089 11.9073 20.6639 11.9524C20.4387 12.1325 20.2135 12.2226 19.9433 12.2226C19.583 12.2676 19.2227 12.1325 18.9525 11.9524C18.6822 11.7272 18.5021 11.4119 18.457 11.0966C18.367 10.5562 18.5922 10.1058 18.9074 9.83559ZM24.402 21.5453C24.1768 21.8156 23.9066 22.0407 23.6364 22.311L23.5012 22.4461C20.8891 22.4461 18.2769 22.4461 15.7098 22.4461L15.6197 22.356C15.3044 22.0858 15.0342 21.7705 14.764 21.4553C13.8182 20.3744 13.8632 18.4378 14.8991 17.3118C15.3044 16.8614 15.7998 16.4561 16.3403 16.0958L16.4754 16.0057C16.9258 15.6905 17.3761 15.4202 17.8265 15.15C18.5922 14.6996 19.1776 14.0691 19.628 13.2584C19.6731 13.3485 19.7631 13.4836 19.8082 13.5737C20.1685 14.1592 20.6188 14.6546 21.2944 15.0599C22.06 15.5554 22.8707 16.0508 23.5913 16.6363C24.3119 17.1767 24.8073 17.8072 24.9875 18.4828C25.3027 19.6988 25.1226 20.6896 24.402 21.5453Z" fill="#BD995F"/>
<path d="M23.0509 23.5269H16.2052C15.7998 23.5269 15.4395 23.8872 15.4395 24.2925V24.6978C15.4395 25.1032 15.7998 25.4635 16.2052 25.4635H23.0509C23.4562 25.4635 23.8165 25.1032 23.8165 24.6978V24.2925C23.8165 23.8872 23.4562 23.5269 23.0509 23.5269ZM23.0509 24.6978H16.1601L16.2052 24.2475L23.0509 24.2925V24.6978Z" fill="#BD995F"/>
</g>
<defs>
<filter id="filter0_d_1_1748" x="0" y="0" width="38.9858" height="37.2915" filterUnits="userSpaceOnUse" color-interpolation-filters="sRGB">
<feFlood flood-opacity="0" result="BackgroundImageFix"/>
<feColorMatrix in="SourceAlpha" type="matrix" values="0 0 0 0 0 0 0 0 0 0 0 0 0 0 0 0 0 0 127 0" result="hardAlpha"/>
<feOffset dy="4"/>
<feGaussianBlur stdDeviation="2"/>
<feComposite in2="hardAlpha" operator="out"/>
<feColorMatrix type="matrix" values="0 0 0 0 0 0 0 0 0 0 0 0 0 0 0 0 0 0 0.25 0"/>
<feBlend mode="normal" in2="BackgroundImageFix" result="effect1_dropShadow_1_1748"/>
<feBlend mode="normal" in="SourceGraphic" in2="effect1_dropShadow_1_1748" result="shape"/>
</filter>
</defs>
</svg>
