<svg width="43" height="43" viewBox="0 0 43 43" fill="none" xmlns="http://www.w3.org/2000/svg">
<path d="M28.9197 15.181C28.9197 14.6118 28.9197 14.0425 28.9197 13.4732C28.9197 13.3593 28.8438 13.2455 28.8058 13.1316C28.3884 12.6003 27.9709 12.0689 27.5914 11.5376C27.5154 11.4238 27.4395 11.2719 27.4016 11.1201C27.06 9.37433 26.1492 8.08395 24.5552 7.28695C24.2515 7.13514 23.91 6.94538 23.6443 6.75562C23.113 6.41405 22.6955 5.99657 22.3539 5.46524C23.075 4.63029 23.113 3.87124 22.4678 3.264C21.9365 2.77062 21.0256 2.80858 20.5322 3.33991C19.925 3.9851 20.0009 4.7821 20.722 5.46524C20.1527 6.33814 19.3557 6.86948 18.4448 7.28695C17.0786 7.93214 16.1677 8.99481 15.7882 10.4749C15.5984 11.1581 15.2948 11.7274 14.8394 12.2587C14.6117 12.5244 14.4219 12.79 14.1942 13.0557C14.1183 13.1696 14.0803 13.2834 14.0803 13.4352C14.0803 19.5456 14.0803 25.6179 14.0803 31.7283C14.0803 31.8421 14.1183 31.9939 14.1942 32.1078C14.5737 32.6012 14.9912 33.0945 15.3707 33.6259C15.4846 33.7777 15.5984 34.0054 15.6364 34.1952C15.8641 35.4096 16.3954 36.4343 17.3822 37.1934C17.8756 37.6109 18.4828 37.8765 19.09 38.1801C19.6973 38.4838 20.2666 38.8633 20.4943 39.5464C20.5322 39.6223 20.5702 39.6603 20.5702 39.6982C20.6461 39.926 20.7979 40.0019 21.0256 40.0019C21.3292 39.9639 21.6708 39.9639 21.9744 40.0019C22.278 40.0398 22.4678 39.926 22.5816 39.6223C22.8094 38.8633 23.4166 38.4079 24.0997 38.1042C24.2515 38.0283 24.3654 37.9904 24.4793 37.9145C26.1112 37.1554 27.06 35.903 27.4016 34.1572C27.4395 33.9674 27.5534 33.7397 27.6673 33.5879C28.0468 33.0945 28.4643 32.6012 28.8438 32.0698C28.9197 31.9939 28.9956 31.8421 28.9956 31.7283C28.9956 31.159 28.9956 30.5517 28.9956 29.9824C28.9197 25.0866 28.9197 20.1148 28.9197 15.181ZM20.684 4.32667C20.684 3.87124 21.0636 3.52967 21.519 3.52967C21.9744 3.52967 22.3539 3.90919 22.3539 4.36462C22.3539 4.82005 21.9744 5.16162 21.519 5.16162C21.0256 5.16162 20.684 4.7821 20.684 4.32667ZM17.6858 8.46347C18.0274 8.19781 18.4448 7.97009 18.8623 7.74238C19.7732 7.28695 20.5702 6.67971 21.1395 5.84476C21.2913 5.61705 21.6708 5.61705 21.8226 5.84476C22.4298 6.71767 23.2268 7.3249 24.1756 7.74238C25.0865 8.15985 25.8076 8.76709 26.263 9.64C26.301 9.75385 26.3769 9.82976 26.4148 9.98157H16.5472C16.8129 9.37433 17.1924 8.843 17.6858 8.46347ZM16.3195 10.5509H16.699H26.2251C26.7185 10.5509 26.7564 10.5888 26.7185 11.1201H16.1677C16.2436 10.9304 16.2816 10.7786 16.3195 10.5509ZM15.94 11.8412C15.9779 11.8033 16.0918 11.7653 16.2057 11.7653C19.7352 11.7653 23.2648 11.7653 26.7944 11.7653C26.9082 11.7653 27.0221 11.8412 27.098 11.9171C27.4016 12.2967 27.7052 12.6762 28.0088 13.0937H14.9912C15.2948 12.6382 15.6364 12.2208 15.94 11.8412ZM21.7087 39.4705C20.9876 39.4326 20.9876 39.4705 20.8358 38.9771H22.2021C22.0883 39.2049 22.0503 39.5085 21.7087 39.4705ZM25.2383 36.8139C24.8967 37.0795 24.5172 37.2693 24.1377 37.4591C23.6443 37.7247 23.1509 38.0283 22.6955 38.294C22.6196 38.332 22.5057 38.3699 22.3919 38.3699C22.316 38.3699 22.2021 38.3699 22.1262 38.3699C21.1395 38.4458 20.2286 38.3699 19.4316 37.7247C19.0141 37.3832 18.4448 37.2313 17.9894 36.9277C17.3822 36.5482 16.7749 35.7892 16.6231 35.2199H26.4528C26.1112 35.8651 25.7317 36.3964 25.2383 36.8139ZM26.2251 34.6506H16.7749C16.2436 34.6506 16.2436 34.6506 16.2057 34.0813H26.7564C26.7564 34.6126 26.7185 34.6506 26.2251 34.6506ZM27.098 33.3602C27.0221 33.4361 26.9082 33.512 26.7944 33.512C23.2648 33.512 19.7352 33.512 16.2436 33.512C16.1297 33.512 16.0159 33.4741 15.94 33.3982C15.6364 33.0186 15.3327 32.6012 14.9912 32.1837H28.0468C27.7052 32.6012 27.4016 32.9807 27.098 33.3602ZM27.4395 15.7124C26.7564 16.1298 26.4148 16.6991 26.2251 17.4961C26.1492 17.7618 25.9594 17.9895 25.7696 18.1793C25.6178 18.3311 25.5419 18.4449 25.5419 18.6347C25.5419 21.2914 25.5419 23.9101 25.5419 26.5667C25.5419 26.7945 25.5799 26.9463 25.8076 27.0601C26.0733 27.2499 26.2251 27.5155 26.301 27.8192C26.4148 28.5023 26.7564 29.0336 27.3257 29.4132C28.3124 30.0204 28.4643 30.362 28.3504 31.5385H14.6876C14.5358 30.5897 14.6496 30.0584 15.4846 29.527C16.2057 29.1095 16.5852 28.4644 16.7749 27.6674C16.8129 27.4396 17.0027 27.2119 17.1924 27.0601C17.3442 26.9083 17.4581 26.7945 17.4581 26.5667C17.4581 23.9101 17.4581 21.2534 17.4581 18.5967C17.4581 18.407 17.4201 18.2552 17.2304 18.1413C16.9647 17.9516 16.8129 17.7238 16.737 17.3823C16.6231 16.6612 16.2816 16.0919 15.6364 15.7124C14.8014 15.2569 14.4978 14.5738 14.6876 13.625H28.3124C28.5022 14.6877 28.2745 15.219 27.4395 15.7124ZM28.3124 15.8262V29.4511C28.0847 29.2993 27.857 29.1475 27.6293 28.9957C27.1739 28.73 26.9082 28.3125 26.8323 27.7812C26.7564 27.3637 26.5666 27.0601 26.301 26.7945C26.1871 26.6806 26.1112 26.5288 26.1112 26.377C26.1112 23.8721 26.1112 21.4052 26.1112 18.9004C26.1112 18.7486 26.1871 18.5967 26.301 18.5208C26.5666 18.2172 26.7564 17.9136 26.8323 17.5341C26.9082 17.0027 27.1739 16.5473 27.6673 16.2817C27.895 16.0919 28.0847 15.978 28.3124 15.8262ZM14.6496 29.4511V15.7883C14.9532 15.978 15.2568 16.1678 15.5225 16.3955C15.902 16.6612 16.0918 17.0787 16.1677 17.4961C16.2057 17.9136 16.4334 18.2172 16.699 18.4829C16.7749 18.5967 16.8888 18.7486 16.8888 18.8624C16.8888 21.3673 16.8888 23.8342 16.8888 26.339C16.8888 26.4529 16.8129 26.6047 16.737 26.7185C16.4713 27.0222 16.2436 27.3258 16.2057 27.7433C16.1297 28.3125 15.8261 28.73 15.3328 28.9957C15.0671 29.1475 14.8773 29.2993 14.6496 29.4511Z" fill="#BD995F"/>
<path d="M33.0944 26.0733C32.9047 25.9595 32.7149 25.8456 32.5252 25.7317C31.7661 25.3143 31.0071 24.8968 30.286 24.4414C30.0962 24.3275 29.9064 24.2896 29.7926 24.5173C29.6787 24.707 29.8305 24.8588 29.9824 24.9347C30.0203 24.9727 30.0583 24.9727 30.1342 25.0107C30.9691 25.504 31.8041 25.9595 32.677 26.4528C32.7529 26.4908 32.8667 26.5667 32.9426 26.6046C33.1324 26.6806 33.3222 26.5287 33.3222 26.301C33.2463 26.2631 33.2083 26.1492 33.0944 26.0733Z" fill="#BD995F"/>
<path d="M12.752 24.4414C11.8032 24.9728 10.8164 25.542 9.86762 26.0734C9.71581 26.1493 9.60195 26.3011 9.71581 26.4909C9.82967 26.6806 9.98148 26.6806 10.1333 26.5668C11.0821 26.0354 12.0689 25.4661 13.0177 24.9348C13.1315 24.8969 13.1695 24.745 13.2074 24.7071C13.2074 24.4414 12.9797 24.3276 12.752 24.4414Z" fill="#BD995F"/>
<path d="M10.0194 17.0027C10.8923 17.4961 11.7652 17.9895 12.6381 18.4829C12.714 18.5208 12.8279 18.5588 12.9417 18.6347C13.0176 18.5588 13.1315 18.5208 13.1695 18.4449C13.2074 18.369 13.1694 18.2172 13.1315 18.1413C13.0935 18.0654 13.0176 18.0275 12.9417 17.9895C12.0309 17.4961 11.158 16.9648 10.2471 16.4714C10.2092 16.4335 10.1333 16.3955 10.0953 16.3955C9.98145 16.4335 9.79169 16.4335 9.71579 16.5094C9.67784 16.5473 9.75374 16.7371 9.79169 16.8509C9.8676 16.9268 9.9435 16.9648 10.0194 17.0027Z" fill="#BD995F"/>
<path d="M30.0203 18.6347C30.1341 18.5588 30.248 18.5208 30.3239 18.4829C31.1968 17.9895 32.1077 17.4961 32.9806 16.9648C33.0565 16.9268 33.1324 16.8889 33.1703 16.8509C33.2083 16.7371 33.2842 16.5853 33.2462 16.5094C33.2083 16.4335 33.0185 16.3955 32.9047 16.3955C32.8288 16.3955 32.7908 16.4335 32.7149 16.4714C31.842 16.9648 30.9311 17.4582 30.0582 17.9895C29.9823 18.0275 29.8685 18.0654 29.8305 18.1413C29.7926 18.2172 29.7546 18.3311 29.7926 18.407C29.8305 18.5208 29.9444 18.5588 30.0203 18.6347Z" fill="#BD995F"/>
<path d="M11.8032 21.7849C11.9929 21.7849 12.2207 21.7469 12.2207 21.5192C12.2207 21.2535 12.0309 21.2156 11.8411 21.2156C10.7785 21.2156 9.7158 21.2156 8.65313 21.2156C8.46337 21.2156 8.23566 21.2535 8.23566 21.4812C8.23566 21.7469 8.46337 21.7849 8.65313 21.7849C9.18446 21.7849 9.67785 21.7849 10.2092 21.7849C10.7405 21.7849 11.2718 21.7849 11.8032 21.7849Z" fill="#BD995F"/>
<path d="M34.3469 21.2156C33.2842 21.2156 32.2595 21.2156 31.1968 21.2156C31.0071 21.2156 30.7794 21.2535 30.7794 21.4812C30.7794 21.709 30.9691 21.7849 31.1968 21.7849C31.7282 21.7849 32.2595 21.7849 32.7908 21.7849C33.3222 21.7849 33.8155 21.7849 34.3469 21.7849C34.5746 21.7849 34.7644 21.7849 34.7644 21.4812C34.7644 21.2156 34.5366 21.2156 34.3469 21.2156Z" fill="#BD995F"/>
<path d="M24.7829 18.5969C24.7829 18.4071 24.707 18.2932 24.5552 18.1414C24.3654 17.9517 24.0997 17.686 24.0618 17.4203C23.872 16.6233 23.4925 16.0161 22.7714 15.6366C22.316 15.4089 21.9744 15.0673 21.8226 14.5739C21.7847 14.46 21.6328 14.3462 21.5569 14.3462C21.4431 14.3462 21.2913 14.46 21.2533 14.5739C21.0636 15.1052 20.722 15.4089 20.2286 15.6745C19.5455 16.0161 19.1659 16.6233 19.0141 17.3444C18.9382 17.686 18.7864 17.9517 18.4828 18.1035C18.293 18.2173 18.2171 18.3691 18.2171 18.5969C18.2171 19.9252 18.2171 21.2535 18.2171 22.5818C18.2171 23.8722 18.2171 25.2006 18.2171 26.4909C18.2171 26.7566 18.293 26.9084 18.4828 27.0602C18.6726 27.212 18.9003 27.4397 18.9382 27.7054C19.128 28.5024 19.5075 29.1097 20.2286 29.5271C20.684 29.7548 21.0256 30.0964 21.2154 30.6277C21.2533 30.7036 21.4051 30.8555 21.481 30.8175C21.5949 30.8175 21.7467 30.7036 21.7847 30.5898C21.9744 30.0585 22.3539 29.7169 22.8473 29.4512C23.4925 29.1097 23.872 28.5404 24.0238 27.8193C24.0997 27.4777 24.2516 27.212 24.5552 27.0602C24.7449 26.9464 24.8208 26.8325 24.8208 26.6048C24.7829 23.9481 24.7829 21.2915 24.7829 18.5969ZM24.2136 26.3391C24.2136 26.453 24.1377 26.6048 24.0618 26.7187C23.7582 27.0223 23.5305 27.3259 23.4925 27.7434C23.4166 28.2367 23.1509 28.6163 22.7335 28.8819C22.316 29.1856 21.8985 29.4892 21.519 29.7548C21.1774 29.4892 20.8738 29.2235 20.4943 28.9958C20.0009 28.6922 19.6593 28.2747 19.5834 27.7054C19.5075 27.2879 19.2798 26.9843 19.0141 26.6807C18.9382 26.5668 18.8244 26.415 18.8244 26.3012C18.8244 23.8343 18.8244 21.3294 18.8244 18.8625C18.8244 18.7487 18.9003 18.5969 18.9762 18.483C19.2798 18.1794 19.5075 17.8758 19.5834 17.4583C19.6593 16.927 19.9629 16.5095 20.4563 16.2059C20.8358 15.9781 21.1774 15.6745 21.519 15.4089C21.9365 15.7125 22.4298 16.0161 22.8853 16.3956C23.2268 16.6613 23.4546 17.0408 23.4925 17.4583C23.5305 17.8758 23.7582 18.1794 24.0618 18.483C24.1757 18.5969 24.2516 18.7487 24.2516 18.8625C24.2136 21.3674 24.2136 23.8722 24.2136 26.3391Z" fill="#BD995F"/>
</svg>
