<svg width="43" height="43" viewBox="0 0 43 43" fill="none" xmlns="http://www.w3.org/2000/svg">
<path d="M19.887 14.346C20.1147 14.4219 20.3045 14.4219 20.4943 14.4978C21.1015 14.7634 21.4051 15.4466 21.2154 16.1297C21.1774 16.3195 21.1015 16.4713 20.9876 16.661C20.1527 18.1791 19.3177 19.7352 18.5207 21.2533C18.4448 21.443 18.3689 21.6708 18.3689 21.8605C18.4069 22.8473 18.3689 23.7961 18.0274 24.7449C17.534 26.1491 16.6611 27.2118 15.4845 28.0847C15.105 28.3504 14.7255 28.616 14.346 28.8058C14.0424 28.9576 13.8906 29.1474 13.8146 29.4889C13.7767 29.6407 13.7387 29.7546 13.6628 29.9444C13.7387 29.9823 13.8146 30.0203 13.8906 30.0582C14.0424 30.1341 14.1183 30.248 14.0424 30.4377C13.6628 31.3866 13.2833 32.3354 12.9038 33.2842C12.8279 33.4739 12.714 33.5498 12.5243 33.4739C12.3345 33.398 12.3725 33.2083 12.4484 33.0565C14.1183 28.8817 15.0291 26.6046 13.511 30.4377C11.158 29.5648 8.80494 28.6919 6.41394 27.819C6.30008 28.1227 6.14828 28.4263 6.03442 28.6919C5.8067 29.2612 5.54104 29.8685 5.31332 30.4377C5.23742 30.6275 5.16151 30.7414 4.9338 30.6655C4.74404 30.5896 4.74404 30.3998 4.81994 30.248C5.19947 29.3371 5.57899 28.4263 5.95851 27.4775C6.03442 27.2497 6.18623 27.1359 6.45189 27.2497C6.6037 27.3257 6.67961 27.2877 6.79346 27.1359C7.17299 26.5666 7.21094 26.0353 7.02118 25.3901C6.33804 23.3786 6.37599 21.3292 6.90732 19.2798C7.21094 18.1032 7.3248 16.8888 7.43865 15.7122C7.51456 15.067 7.51456 14.3839 7.59046 13.7387C7.70432 12.6001 9.0706 11.9929 9.98146 12.714C10.2471 12.9038 10.4369 13.2453 10.6646 13.549C11.0062 13.0556 11.3477 12.5622 11.7273 12.0688C12.4484 11.0441 13.1695 10.0194 13.8906 9.03262C14.2321 8.53924 14.6876 8.27358 15.2948 8.34948C15.902 8.42539 16.3195 8.76696 16.5472 9.33624C16.5472 9.37419 16.5852 9.37419 16.5852 9.4501C16.9647 9.10853 17.3822 8.95672 17.8376 9.07058C18.1412 9.14648 18.4448 9.26034 18.6725 9.4501C19.2418 9.90553 19.2418 10.5507 18.8244 11.4995C19.5834 11.4995 20.1527 11.8031 20.4184 12.5242C20.684 13.2453 20.2286 13.7767 19.887 14.346ZM13.2074 29.7546C13.2833 29.6028 13.3213 29.451 13.3592 29.3371C13.4351 28.8817 13.7387 28.616 14.1183 28.3883C14.5737 28.1227 15.0291 27.857 15.4086 27.5154C16.5093 26.6425 17.3063 25.5798 17.6478 24.2136C17.8755 23.3786 17.8755 22.5437 17.8376 21.7087C17.8376 21.5569 17.8755 21.3671 17.9515 21.2153C18.7864 19.6213 19.6593 18.0273 20.4943 16.4333C20.5702 16.3195 20.6461 16.1677 20.684 16.0159C20.7979 15.5984 20.6461 15.2189 20.2665 15.0291C19.925 14.8773 19.5834 14.9532 19.3177 15.3327C19.2798 15.3707 19.2418 15.4466 19.2039 15.4845C18.4448 16.699 17.6858 17.9135 16.8888 19.1279C16.8508 19.2039 16.8129 19.3177 16.737 19.3177C16.6611 19.3557 16.4713 19.4316 16.4334 19.3557C16.3575 19.2798 16.3195 19.1279 16.3195 19.0141C16.3195 18.9382 16.3954 18.8623 16.4334 18.7864L18.5207 15.4845C18.9382 14.8014 19.3936 14.1562 19.7732 13.473C20.0768 12.9797 19.925 12.4104 19.4316 12.1447C18.9762 11.879 18.4448 12.0309 18.1412 12.4863C18.0653 12.6001 17.9894 12.714 17.9135 12.8279C16.9647 14.308 16.0538 15.8261 15.105 17.3062C15.0671 17.3821 15.0291 17.458 14.9912 17.496C14.8773 17.5339 14.7255 17.6099 14.6496 17.5719C14.5737 17.5339 14.5737 17.3442 14.5737 17.2303C14.5737 17.1544 14.6496 17.1165 14.6876 17.0406C15.6364 15.5225 16.5472 14.0423 17.496 12.5242C17.7996 12.0309 18.1412 11.4995 18.4448 11.0061C18.6725 10.5887 18.6346 10.1712 18.331 9.86757C18.0274 9.526 17.6099 9.4501 17.1924 9.63986C17.0026 9.75372 16.8508 9.90553 16.737 10.0573C15.4086 12.0688 14.0424 14.1182 12.714 16.1297C12.6002 16.2815 12.4863 16.4333 12.2966 16.3195C12.1068 16.2056 12.1447 16.0159 12.2586 15.864C12.5243 15.4845 12.752 15.105 13.0176 14.7255C13.9665 13.2833 14.9153 11.8411 15.8641 10.361C16.1677 9.86757 16.0538 9.29829 15.5984 8.99467C15.143 8.72901 14.5737 8.84286 14.2701 9.29829C13.0936 10.9682 11.8791 12.676 10.7026 14.346C10.7026 14.4219 10.6267 14.5357 10.6267 14.6496C10.6267 15.7881 10.6646 16.9647 10.7026 18.1032C10.7026 18.2171 10.7785 18.3689 10.8923 18.4448C11.6893 19.052 12.1827 19.849 12.3725 20.8358C12.4863 21.3292 12.4484 21.8605 12.4863 22.3918C12.4863 22.5816 12.3725 22.6955 12.1827 22.6575C12.0688 22.6196 11.9929 22.4678 11.955 22.3539C11.917 22.278 11.955 22.1641 11.955 22.0882C11.9929 20.7219 11.5755 19.5834 10.3989 18.7864C10.2092 18.6725 10.1712 18.5207 10.1712 18.3309C10.1333 16.8888 10.1333 15.4086 10.0953 13.9664C10.0953 13.3971 9.67784 12.9797 9.10856 12.9417C8.61518 12.9038 8.15975 13.3212 8.08384 13.8146C8.04589 13.9664 8.04589 14.1562 8.04589 14.308C7.89408 15.7881 7.74227 17.3062 7.51456 18.7864C7.4007 19.6972 7.13504 20.5701 7.02118 21.481C6.86937 22.8093 7.09708 24.1377 7.51456 25.428C7.74227 26.0732 7.66637 26.7184 7.3248 27.2877C7.28685 27.3636 7.21094 27.4775 7.17299 27.5913C9.18446 28.2745 11.1959 29.0335 13.2074 29.7546Z" fill="#BD995F"/>
<path d="M36.5861 27.819C34.1951 28.6919 31.842 29.5648 29.489 30.4377C31.1209 34.5745 31.88 36.4342 30.3239 32.5631C30.3998 32.7149 30.4378 32.9046 30.5137 33.0564C30.5896 33.2082 30.5896 33.3601 30.3998 33.436C30.2101 33.5119 30.0962 33.398 30.0203 33.2462C29.6787 32.3733 29.3372 31.5383 28.9956 30.6654C28.9956 30.6654 28.9956 30.6654 28.9956 30.6275C28.8058 30.1341 28.8058 30.1341 29.2613 29.9064C29.1474 29.413 29.0335 28.9955 28.5022 28.7299C27.4775 28.1985 26.5666 27.4395 25.8455 26.4907C24.7829 25.0864 24.4793 23.4924 24.5931 21.7466C24.5931 21.5948 24.5552 21.4051 24.4793 21.2533C23.6443 19.6972 22.8094 18.1412 21.9744 16.5851C21.8605 16.3574 21.7467 16.0917 21.7087 15.864C21.5949 15.1429 22.0883 14.5357 22.8094 14.3839C22.8853 14.3839 22.9612 14.3459 23.075 14.3459C22.9232 14.1182 22.8094 13.9285 22.6955 13.7007C22.2021 12.8278 22.5816 11.8411 23.4925 11.5375C23.6823 11.4616 23.91 11.4616 24.0997 11.4236C23.6443 10.3609 23.7202 9.79165 24.3274 9.29827C24.8967 8.80489 25.5799 8.84284 26.3389 9.33622C26.4528 9.18441 26.5287 8.99465 26.6425 8.84284C27.2498 8.04584 28.4643 8.08379 29.0335 8.91874C30.0962 10.3989 31.1209 11.879 32.1836 13.3592C32.2215 13.4351 32.2974 13.511 32.3733 13.5869C32.4872 13.3971 32.5631 13.1694 32.7149 13.0176C33.0944 12.4863 33.7396 12.2965 34.3469 12.4863C34.9162 12.676 35.3336 13.2453 35.4095 13.8525C35.5613 15.3327 35.6752 16.8128 35.865 18.255C35.9788 19.09 36.2065 19.9249 36.3583 20.7978C36.624 22.3918 36.4342 23.9858 35.9409 25.5039C35.7511 26.1491 35.865 26.6804 36.2445 27.2118C36.2824 27.2497 36.4342 27.2877 36.5101 27.2497C36.8138 27.1738 36.8897 27.1738 37.0415 27.5154C37.421 28.3883 37.7626 29.2992 38.1421 30.1721C38.1801 30.21 38.218 30.2859 38.1801 30.3239C38.1421 30.4377 38.1041 30.5516 38.0282 30.6654C37.9144 30.5895 37.7626 30.5895 37.6867 30.4757C37.5728 30.2859 37.4969 30.0961 37.421 29.8684C37.1553 29.2232 36.8897 28.5401 36.5861 27.819ZM35.827 27.5533C35.7891 27.5154 35.7891 27.4774 35.7511 27.4395C35.2957 26.7563 35.2577 25.9973 35.5234 25.2003C36.0547 23.5683 36.1686 21.8984 35.7511 20.2285C35.2957 18.3309 35.068 16.4333 34.9541 14.4977C34.9541 14.308 34.9162 14.1562 34.9162 13.9664C34.8782 13.4351 34.4228 12.9796 33.9294 12.9796C33.3981 12.9796 32.9426 13.3971 32.9047 13.9664C32.8667 15.4086 32.8288 16.8508 32.8288 18.293C32.8288 18.5207 32.7529 18.7104 32.5631 18.8243C32.0318 19.1659 31.6522 19.6593 31.3866 20.2285C31.083 20.9117 31.0071 21.5948 31.045 22.3539C31.045 22.5436 31.0071 22.6954 30.8173 22.6954C30.6275 22.6954 30.5516 22.5436 30.5516 22.3918C30.4757 20.8358 30.8552 19.5074 32.1456 18.5207C32.2215 18.4448 32.3354 18.293 32.3354 18.1791C32.3733 17.0405 32.3733 15.902 32.4113 14.7634C32.4113 14.6495 32.3733 14.4977 32.2974 14.3839C31.88 13.8146 31.4625 13.2074 31.083 12.6381C30.286 11.5375 29.5269 10.4368 28.7299 9.29827C28.4643 8.91874 28.0468 8.80489 27.6293 8.91874C27.2498 9.0326 26.9462 9.37417 26.9841 9.7537C27.0221 10.0573 27.1359 10.3609 27.2877 10.6266C28.4263 12.3724 29.5649 14.1182 30.7034 15.8261C30.8173 15.9779 30.8932 16.1676 30.7034 16.2815C30.5137 16.3954 30.3998 16.2815 30.286 16.0917C29.8305 15.4086 29.3751 14.6875 28.9197 14.0044C28.0468 12.676 27.1739 11.3477 26.263 9.98141C25.8455 9.33622 25.0106 9.29827 24.5931 9.94346C24.3274 10.323 24.4034 10.7025 24.6311 11.082C25.8455 13.0556 27.098 14.9911 28.3124 16.9646C28.3504 17.0405 28.4263 17.1165 28.4263 17.1924C28.4263 17.3062 28.4263 17.458 28.3504 17.496C28.2745 17.5339 28.1227 17.496 28.0088 17.458C27.9329 17.4201 27.895 17.3442 27.857 17.2683C27.1739 16.1297 26.4528 15.0291 25.7696 13.8905C25.466 13.3971 25.1624 12.8658 24.8208 12.4104C24.4793 11.879 23.7582 11.8411 23.3027 12.2965C22.9612 12.6381 22.9612 13.0935 23.2648 13.5489C24.3654 15.2947 25.4281 17.0405 26.5287 18.7484C26.5666 18.8243 26.6425 18.9002 26.6805 18.9761C26.6805 19.09 26.6805 19.2418 26.6046 19.2797C26.5287 19.3177 26.3769 19.2797 26.301 19.2418C26.2251 19.2038 26.1871 19.09 26.1492 19.0141C25.466 17.9134 24.7829 16.8508 24.0997 15.7502C23.9859 15.5604 23.8341 15.3327 23.6823 15.1429C23.4166 14.8393 23.113 14.7634 22.7714 14.9152C22.4298 15.105 22.2401 15.4465 22.316 15.8261C22.3539 15.9779 22.4298 16.1676 22.5057 16.3195C23.3407 17.9134 24.1756 19.4695 25.0485 21.0635C25.1624 21.2912 25.2004 21.5189 25.2004 21.7466C25.0485 23.6822 25.5419 25.3901 26.9082 26.7943C27.5154 27.4395 28.2745 27.9329 29.0335 28.3883C29.3372 28.5781 29.5649 28.7678 29.6408 29.1473C29.6787 29.3371 29.7546 29.5269 29.8305 29.7166C31.842 28.9955 33.8155 28.2744 35.827 27.5533Z" fill="#BD995F"/>
</svg>
