<svg width="23" height="30" viewBox="0 0 23 30" fill="none" xmlns="http://www.w3.org/2000/svg">
<path d="M22.0124 26.7245C21.2533 25.0926 21.2154 23.4606 21.9744 21.8287C22.0883 21.525 22.1642 21.2594 22.1262 20.9558C22.0503 18.9822 21.9744 16.9708 21.8985 14.9972C21.7846 12.1129 21.6708 9.22849 21.5569 6.34411C21.481 4.40854 21.4051 2.51093 21.3292 0.575357C21.3292 0.271739 21.2533 0.195834 20.9497 0.195834C19.5075 0.195834 18.1033 0.157882 16.6611 0.157882C12.4484 0.11993 8.19771 0.0440246 3.985 0.00607227C3.41571 0.00607227 2.80847 -0.0318798 2.23919 0.0819772C0.910856 0.347644 0 1.52417 0 2.89045C0 4.90192 0 6.87545 0 8.88692C0 13.9725 0 19.0581 0 24.1438C0 25.5859 0.948808 26.8384 2.35304 27.142C2.88438 27.2559 3.49161 27.2179 4.0609 27.2559C4.44042 27.2559 4.81995 27.2559 5.19947 27.2559V27.5595C5.19947 28.2047 5.19947 28.8499 5.19947 29.533C5.19947 29.8746 5.35128 29.9505 5.6549 29.7987C6.07237 29.5709 6.4519 29.3812 6.86937 29.1155C7.02118 29.0017 7.17299 29.0396 7.3248 29.1155C7.66637 29.3053 8.0459 29.495 8.38747 29.6848C8.88085 29.9505 8.9947 29.9125 8.9947 29.3432V27.2559H9.37423C13.4731 27.2559 17.5719 27.2559 21.6328 27.2559C21.7087 27.2559 21.8226 27.2559 21.8985 27.2559C22.0883 27.2179 22.1262 27.142 22.0883 26.9522C22.1262 26.8384 22.0503 26.8004 22.0124 26.7245ZM20.8738 0.689215C21.1395 7.52064 21.4051 14.3141 21.6708 21.1455H4.40247C4.32657 14.2762 4.28861 7.40678 4.21271 0.499453C9.7917 0.537405 15.3327 0.61331 20.8738 0.689215ZM0.493381 22.2841C0.493381 15.8322 0.493381 9.3803 0.493381 2.9284C0.493381 1.78983 1.21448 0.803071 2.31509 0.575357C2.77052 0.4615 3.2639 0.499453 3.75728 0.461501C3.83319 7.40678 3.87114 14.2382 3.94704 21.1835C2.58076 21.0696 1.36628 21.3353 0.493381 22.5877V22.2841ZM8.53928 29.2294C8.23566 29.0396 7.89409 28.9258 7.62842 28.736C7.2489 28.4703 6.94528 28.4703 6.56576 28.736C6.30009 28.9258 5.99647 29.0396 5.69285 29.2294V24.4474H8.50132V29.2294H8.53928ZM3.22595 23.954C3.11209 23.954 2.99823 23.954 2.92233 23.992C2.84643 24.0299 2.77052 24.1438 2.77052 24.2197C2.77052 24.2956 2.84643 24.3715 2.92233 24.4094C2.96028 24.4474 3.07414 24.4094 3.15004 24.4094C3.83319 24.4094 4.51633 24.4094 5.19947 24.4094V25.3582C4.78199 25.3582 4.36452 25.3582 3.90909 25.3582C3.83319 25.3582 3.75728 25.3582 3.64342 25.3582C3.49162 25.3582 3.37776 25.3962 3.37776 25.5859C3.37776 25.7757 3.49162 25.8137 3.64342 25.8137C4.09885 25.8137 4.55428 25.8137 5.00971 25.8137C5.04766 25.8137 5.12357 25.8137 5.16152 25.8137V26.7245L5.12357 26.7625C4.28862 26.7625 3.45366 26.8384 2.61871 26.7245C0.721094 26.4968 -0.189762 24.2197 0.948808 22.7016C1.51809 21.9425 2.27714 21.601 3.188 21.601C6.90733 21.601 10.6646 21.601 14.3839 21.601H21.2154H21.519C21.4051 21.9425 21.2913 22.2461 21.1774 22.5498H20.8738C15.7123 22.5498 10.5508 22.5498 5.42719 22.5498C5.23742 22.5498 4.97176 22.5118 4.97176 22.7775C4.97176 23.0811 5.23742 23.0052 5.42719 23.0052C10.5508 23.0052 15.6364 23.0052 20.7599 23.0052H21.1015C21.0635 23.3468 21.0256 23.6504 20.9876 23.954H20.6461C14.8394 23.954 9.03266 23.954 3.22595 23.954ZM21.1015 25.3582H9.03266V24.4474H20.9876C21.0256 24.751 21.0635 25.0167 21.1015 25.3582ZM9.03266 26.7625V25.8516H21.2154C21.3292 26.1552 21.4431 26.4589 21.5569 26.7625H9.03266Z" fill="#BD995F"/>
<path d="M6.83142 19.8171C8.84289 19.8171 10.8923 19.8171 12.9038 19.8171C14.9532 19.8171 17.0026 19.8171 19.0521 19.8171C19.3557 19.8171 19.4316 19.7412 19.4316 19.5135C19.4316 18.7165 19.3936 17.9574 19.3936 17.1604C19.3936 16.8948 19.2798 16.8188 19.0141 16.8188C14.9153 16.8188 10.8544 16.8188 6.75551 16.8188C6.45189 16.8188 6.41394 16.8568 6.41394 17.1604C6.41394 17.8815 6.41394 18.6406 6.41394 19.3617C6.41394 19.7791 6.45189 19.8171 6.83142 19.8171Z" fill="#BD995F"/>
<path d="M17.7617 9.49423C17.5719 8.77314 17.1165 8.1659 16.3575 7.59661C15.7123 7.10323 15.0291 6.68576 14.3839 6.26828C13.9285 5.96466 13.5869 5.62309 13.3592 5.20562C13.2833 5.05381 13.2074 4.93995 13.1315 4.78814C13.5869 4.71224 13.9285 4.48452 14.1942 4.105C14.308 3.95319 14.346 3.80138 14.4219 3.64957C14.4598 3.57367 14.4219 3.45981 14.346 3.42186C14.2701 3.3839 14.1942 3.3839 14.1562 3.3839H14.1183L14.0803 3.42186C13.7387 3.64957 13.2833 3.61162 12.9417 3.3839C12.5622 3.11824 12.4104 2.62486 12.6002 2.20738C12.6002 2.16943 12.6381 2.13148 12.6761 2.09352L12.714 2.05557C12.7899 1.90376 12.6761 1.78991 12.6761 1.78991C12.6381 1.75195 12.5622 1.75195 12.5622 1.75195H12.4484C11.6893 1.97967 11.1959 2.73871 11.3098 3.53571C11.3857 3.91524 11.5755 4.25681 11.8411 4.48452C11.9929 4.59838 12.1447 4.67428 12.2966 4.75019C11.955 5.47128 11.4996 6.00261 10.8923 6.38214C10.4748 6.60985 10.0953 6.87552 9.7158 7.14118L9.60194 7.21709C9.03265 7.48276 8.57723 7.86228 8.1977 8.27976C7.13504 9.45628 7.09709 11.4678 8.08385 12.5684C8.31156 12.834 8.57723 13.0997 8.84289 13.3654L8.9188 13.4413C9.03265 13.5551 9.22242 13.5931 9.33627 13.5931C10.3989 13.5931 11.4996 13.5931 12.5622 13.5931C13.6628 13.5931 14.8014 13.5931 15.902 13.5931C16.0538 13.5931 16.2436 13.5172 16.3195 13.4413L16.4334 13.3274C16.6611 13.0997 16.8888 12.872 17.1165 12.6443C17.8755 11.7334 18.0653 10.7087 17.7617 9.49423ZM12.0688 2.35919C12.0309 2.511 12.0309 2.70076 12.0688 2.85257C12.1447 3.15619 12.2966 3.42186 12.5622 3.64957C12.9038 3.95319 13.2833 4.06705 13.7008 3.99114C13.6628 4.02909 13.5869 4.105 13.549 4.14295C13.3592 4.29476 13.1695 4.37066 12.9417 4.37066C12.6381 4.40862 12.3345 4.29476 12.1068 4.14295C11.8791 3.95319 11.7273 3.68752 11.6893 3.42186C11.6134 2.96643 11.7652 2.5869 12.0688 2.35919ZM16.699 12.2268C16.5093 12.4545 16.2816 12.6443 16.0538 12.872L15.94 12.9858C13.7387 12.9858 11.5375 12.9858 9.37422 12.9858L9.29832 12.9099C9.03265 12.6822 8.80494 12.4166 8.57723 12.1509C7.78023 11.24 7.81818 9.60809 8.69108 8.65928C9.03265 8.27976 9.45013 7.93819 9.90556 7.63457L10.0194 7.55866C10.3989 7.29299 10.7785 7.06528 11.158 6.83757C11.8032 6.45804 12.2966 5.92671 12.6761 5.24357C12.714 5.31947 12.7899 5.43333 12.8279 5.50923C13.1315 6.00261 13.511 6.42009 14.0803 6.76166C14.7255 7.17914 15.4086 7.59661 16.0159 8.08999C16.6231 8.54542 17.0406 9.07676 17.1924 9.64604C17.4201 10.6708 17.2683 11.5057 16.699 12.2268Z" fill="#BD995F"/>
<path d="M15.5225 13.8967H9.75375C9.41218 13.8967 9.10857 14.2003 9.10857 14.5419V14.8835C9.10857 15.2251 9.41218 15.5287 9.75375 15.5287H15.5225C15.8641 15.5287 16.1677 15.2251 16.1677 14.8835V14.5419C16.1677 14.2003 15.8641 13.8967 15.5225 13.8967ZM15.5605 14.8835H9.7158L9.75375 14.504L15.5225 14.5419V14.8835H15.5605Z" fill="#BD995F"/>
</svg>
