<svg width="26" height="36" viewBox="0 0 26 36" fill="none" xmlns="http://www.w3.org/2000/svg">
<path d="M19.722 11.6941C19.722 11.1513 19.722 10.6085 19.722 10.0657C19.722 9.95711 19.6496 9.84855 19.6134 9.73999C19.2154 9.23337 18.8173 8.72675 18.4554 8.22013C18.3831 8.11157 18.3107 7.96682 18.2745 7.82207C17.9488 6.15746 17.0803 4.9271 15.5605 4.16717C15.271 4.02242 14.9453 3.84149 14.692 3.66055C14.1853 3.33487 13.7873 2.93681 13.4616 2.43019C14.1492 1.63407 14.1853 0.910331 13.5702 0.331337C13.0635 -0.139095 12.1951 -0.102908 11.7246 0.403712C11.1456 1.01889 11.218 1.77882 11.9056 2.43019C11.3628 3.26249 10.6028 3.76911 9.73433 4.16717C8.4316 4.78235 7.56311 5.79559 7.20124 7.20689C7.0203 7.85826 6.7308 8.40106 6.29656 8.90768C6.07943 9.16099 5.8985 9.4143 5.68138 9.66761C5.609 9.77617 5.57281 9.88474 5.57281 10.0295C5.57281 15.8556 5.57281 21.6455 5.57281 27.4717C5.57281 27.5802 5.609 27.725 5.68138 27.8335C6.04325 28.304 6.44131 28.7744 6.80318 29.281C6.91174 29.4258 7.0203 29.6429 7.05649 29.8238C7.27361 30.9818 7.78023 31.9589 8.72109 32.6826C9.19153 33.0807 9.77052 33.334 10.3495 33.6235C10.9285 33.913 11.4713 34.2748 11.6884 34.9262C11.7246 34.9986 11.7608 35.0348 11.7608 35.071C11.8332 35.2881 11.9779 35.3605 12.1951 35.3605C12.4846 35.3243 12.8102 35.3243 13.0997 35.3605C13.3892 35.3966 13.5702 35.2881 13.6787 34.9986C13.8959 34.2748 14.4748 33.8406 15.1262 33.5511C15.271 33.4787 15.3795 33.4425 15.4881 33.3702C17.0441 32.6464 17.9488 31.4523 18.2745 29.7876C18.3107 29.6067 18.4192 29.3896 18.5278 29.2448C18.8897 28.7744 19.2877 28.304 19.6496 27.7974C19.722 27.725 19.7944 27.5802 19.7944 27.4717C19.7944 26.9289 19.7944 26.3499 19.7944 25.8071C19.722 21.1389 19.722 16.3984 19.722 11.6941ZM11.8694 1.34458C11.8694 0.910331 12.2312 0.584647 12.6655 0.584647C13.0997 0.584647 13.4616 0.946518 13.4616 1.38076C13.4616 1.81501 13.0997 2.14069 12.6655 2.14069C12.1951 2.14069 11.8694 1.77882 11.8694 1.34458ZM9.01059 5.28897C9.33627 5.03566 9.73433 4.81854 10.1324 4.60142C11.0009 4.16717 11.7608 3.58818 12.3036 2.79206C12.4484 2.57494 12.8102 2.57494 12.955 2.79206C13.534 3.62436 14.2939 4.20336 15.1986 4.60142C16.0671 4.99947 16.7546 5.57847 17.1889 6.41077C17.2251 6.51933 17.2974 6.59171 17.3336 6.73646H7.92498C8.17829 6.15746 8.54016 5.65084 9.01059 5.28897ZM7.70786 7.27926H8.06973H17.1527C17.6231 7.27926 17.6593 7.31545 17.6231 7.82207H7.56311C7.63548 7.64113 7.67167 7.49638 7.70786 7.27926ZM7.34598 8.50962C7.38217 8.47344 7.49073 8.43725 7.59929 8.43725C10.9647 8.43725 14.3301 8.43725 17.6955 8.43725C17.8041 8.43725 17.9126 8.50962 17.985 8.582C18.2745 8.94387 18.564 9.30574 18.8535 9.7038H6.44131C6.7308 9.26955 7.05649 8.8715 7.34598 8.50962ZM12.8464 34.8538C12.1589 34.8177 12.1589 34.8538 12.0141 34.3834H13.3169C13.2083 34.6005 13.1721 34.89 12.8464 34.8538ZM16.2118 32.3207C15.8861 32.5741 15.5243 32.755 15.1624 32.9359C14.692 33.1892 14.2215 33.4787 13.7873 33.732C13.7149 33.7682 13.6064 33.8044 13.4978 33.8044C13.4254 33.8044 13.3169 33.8044 13.2445 33.8044C12.3036 33.8768 11.4351 33.8044 10.6752 33.1892C10.2771 32.8635 9.73433 32.7188 9.30009 32.4293C8.72109 32.0674 8.1421 31.3437 7.99735 30.8009H17.3698C17.0441 31.4161 16.6823 31.9227 16.2118 32.3207ZM17.1527 30.2581H8.1421C7.63548 30.2581 7.63548 30.2581 7.59929 29.7153H17.6593C17.6593 30.2219 17.6231 30.2581 17.1527 30.2581ZM17.985 29.0277C17.9126 29.1001 17.8041 29.1725 17.6955 29.1725C14.3301 29.1725 10.9647 29.1725 7.63548 29.1725C7.52692 29.1725 7.41836 29.1363 7.34598 29.0639C7.05649 28.702 6.76699 28.304 6.44131 27.9059H18.8897C18.564 28.304 18.2745 28.6658 17.985 29.0277ZM18.3107 12.2007C17.6593 12.5988 17.3336 13.1416 17.1527 13.9015C17.0803 14.1548 16.8994 14.3719 16.7184 14.5529C16.5737 14.6976 16.5013 14.8062 16.5013 14.9871C16.5013 17.5202 16.5013 20.0171 16.5013 22.5502C16.5013 22.7673 16.5375 22.9121 16.7546 23.0207C17.0079 23.2016 17.1527 23.4549 17.2251 23.7444C17.3336 24.3958 17.6593 24.9024 18.2021 25.2643C19.143 25.8432 19.2877 26.1689 19.1792 27.2907H6.15181C6.00706 26.3861 6.11562 25.8794 6.91174 25.3728C7.59929 24.9748 7.96117 24.3596 8.1421 23.5996C8.17829 23.3825 8.35922 23.1654 8.54016 23.0207C8.68491 22.8759 8.79347 22.7673 8.79347 22.5502C8.79347 20.0171 8.79347 17.484 8.79347 14.9509C8.79347 14.77 8.75728 14.6252 8.57635 14.5167C8.32304 14.3357 8.17829 14.1186 8.10591 13.7929C7.99735 13.1054 7.67167 12.5626 7.05649 12.2007C6.26037 11.7665 5.97087 11.1151 6.15181 10.2104H19.143C19.3239 11.2237 19.1068 11.7303 18.3107 12.2007ZM19.143 12.3093V25.3004C18.9259 25.1557 18.7087 25.0109 18.4916 24.8662C18.0574 24.6129 17.8041 24.2148 17.7317 23.7082C17.6593 23.3102 17.4784 23.0207 17.2251 22.7673C17.1165 22.6588 17.0441 22.514 17.0441 22.3693C17.0441 19.9809 17.0441 17.6288 17.0441 15.2404C17.0441 15.0957 17.1165 14.9509 17.2251 14.8786C17.4784 14.5891 17.6593 14.2996 17.7317 13.9377C17.8041 13.4311 18.0574 12.9968 18.5278 12.7435C18.7449 12.5626 18.9259 12.454 19.143 12.3093ZM6.11562 25.3004V12.2731C6.40512 12.454 6.69462 12.635 6.94793 12.8521C7.3098 13.1054 7.49073 13.5034 7.56311 13.9015C7.59929 14.2996 7.81642 14.5891 8.06973 14.8424C8.1421 14.9509 8.25066 15.0957 8.25066 15.2042C8.25066 17.5926 8.25066 19.9448 8.25066 22.3331C8.25066 22.4417 8.17829 22.5864 8.10591 22.695C7.8526 22.9845 7.63548 23.274 7.59929 23.672C7.52692 24.2148 7.23742 24.6129 6.76699 24.8662C6.51368 25.0109 6.33274 25.1557 6.11562 25.3004Z" fill="#BD995F"/>
<path d="M23.7026 22.0799C23.5216 21.9713 23.3407 21.8627 23.1598 21.7542C22.436 21.3561 21.7123 20.9581 21.0247 20.5238C20.8438 20.4153 20.6629 20.3791 20.5543 20.5962C20.4457 20.7771 20.5905 20.9219 20.7352 20.9943C20.7714 21.0304 20.8076 21.0304 20.88 21.0666C21.6761 21.5371 22.4722 21.9713 23.3045 22.4417C23.3769 22.4779 23.4854 22.5503 23.5578 22.5865C23.7388 22.6589 23.9197 22.5141 23.9197 22.297C23.8473 22.2608 23.8111 22.1522 23.7026 22.0799Z" fill="#BD995F"/>
<path d="M4.30626 20.5239C3.40158 21.0305 2.46072 21.5733 1.55604 22.0799C1.41129 22.1523 1.30273 22.297 1.41129 22.478C1.51985 22.6589 1.6646 22.6589 1.80935 22.5503C2.71403 22.0437 3.65489 21.5009 4.55957 20.9943C4.66813 20.9581 4.70432 20.8133 4.7405 20.7772C4.7405 20.5239 4.52338 20.4153 4.30626 20.5239Z" fill="#BD995F"/>
<path d="M1.70079 13.431C2.53309 13.9015 3.36539 14.3719 4.1977 14.8423C4.27007 14.8785 4.37863 14.9147 4.48719 14.9871C4.55957 14.9147 4.66813 14.8785 4.70432 14.8062C4.7405 14.7338 4.70432 14.589 4.66813 14.5167C4.63194 14.4443 4.55957 14.4081 4.48719 14.3719C3.6187 13.9015 2.7864 13.3949 1.91791 12.9244C1.88172 12.8882 1.80935 12.8521 1.77316 12.8521C1.6646 12.8882 1.48367 12.8882 1.41129 12.9606C1.3751 12.9968 1.44748 13.1777 1.48366 13.2863C1.55604 13.3587 1.62841 13.3949 1.70079 13.431Z" fill="#BD995F"/>
<path d="M20.7714 14.9871C20.88 14.9147 20.9885 14.8785 21.0609 14.8423C21.8932 14.3719 22.7617 13.9015 23.594 13.3949C23.6664 13.3587 23.7388 13.3225 23.7749 13.2863C23.8111 13.1777 23.8835 13.033 23.8473 12.9606C23.8111 12.8882 23.6302 12.8521 23.5216 12.8521C23.4493 12.8521 23.4131 12.8882 23.3407 12.9244C22.5084 13.3949 21.6399 13.8653 20.8076 14.3719C20.7352 14.4081 20.6267 14.4443 20.5905 14.5167C20.5543 14.589 20.5181 14.6976 20.5543 14.77C20.5905 14.8785 20.699 14.9147 20.7714 14.9871Z" fill="#BD995F"/>
<path d="M3.40159 17.9906C3.58252 17.9906 3.79965 17.9544 3.79965 17.7373C3.79965 17.4839 3.61871 17.4478 3.43778 17.4478C2.42454 17.4478 1.4113 17.4478 0.398058 17.4478C0.217122 17.4478 0 17.4839 0 17.7011C0 17.9544 0.217122 17.9906 0.398058 17.9906C0.904677 17.9906 1.37511 17.9906 1.88173 17.9906C2.38835 17.9906 2.89497 17.9906 3.40159 17.9906Z" fill="#BD995F"/>
<path d="M24.8967 17.4478C23.8835 17.4478 22.9064 17.4478 21.8932 17.4478C21.7123 17.4478 21.4951 17.4839 21.4951 17.7011C21.4951 17.9182 21.6761 17.9906 21.8932 17.9906C22.3998 17.9906 22.9064 17.9906 23.4131 17.9906C23.9197 17.9906 24.3901 17.9906 24.8967 17.9906C25.1139 17.9906 25.2948 17.9906 25.2948 17.7011C25.2948 17.4478 25.0777 17.4478 24.8967 17.4478Z" fill="#BD995F"/>
<path d="M15.7776 14.9509C15.7776 14.77 15.7052 14.6614 15.5605 14.5167C15.3795 14.3357 15.1262 14.0824 15.09 13.8291C14.9091 13.0692 14.5472 12.4902 13.8597 12.1283C13.4254 11.9112 13.0997 11.5855 12.955 11.1151C12.9188 11.0065 12.7741 10.8979 12.7017 10.8979C12.5931 10.8979 12.4484 11.0065 12.4122 11.1151C12.2312 11.6217 11.9056 11.9112 11.4351 12.1645C10.7838 12.4902 10.4219 13.0692 10.2771 13.7567C10.2048 14.0824 10.06 14.3357 9.77052 14.4805C9.58959 14.589 9.51721 14.7338 9.51721 14.9509C9.51721 16.2175 9.51721 17.484 9.51721 18.7506C9.51721 19.9809 9.51721 21.2475 9.51721 22.4778C9.51721 22.7311 9.58959 22.8759 9.77052 23.0206C9.95146 23.1654 10.1686 23.3825 10.2048 23.6358C10.3857 24.3957 10.7476 24.9747 11.4351 25.3728C11.8694 25.5899 12.1951 25.9156 12.376 26.4222C12.4122 26.4946 12.5569 26.6393 12.6293 26.6032C12.7379 26.6032 12.8826 26.4946 12.9188 26.386C13.0997 25.8794 13.4616 25.5537 13.932 25.3004C14.5472 24.9747 14.9091 24.4319 15.0538 23.7444C15.1262 23.4187 15.271 23.1654 15.5605 23.0206C15.7414 22.9121 15.8138 22.8035 15.8138 22.5864C15.7776 20.0533 15.7776 17.5202 15.7776 14.9509ZM15.2348 22.3331C15.2348 22.4416 15.1624 22.5864 15.09 22.6949C14.8005 22.9844 14.5834 23.2739 14.5472 23.672C14.4748 24.1424 14.2215 24.5043 13.8235 24.7576C13.4254 25.0471 13.0274 25.3366 12.6655 25.5899C12.3398 25.3366 12.0503 25.0833 11.6884 24.8662C11.218 24.5767 10.8923 24.1786 10.8199 23.6358C10.7476 23.2378 10.5305 22.9483 10.2771 22.6588C10.2048 22.5502 10.0962 22.4055 10.0962 22.2969C10.0962 19.9447 10.0962 17.5564 10.0962 15.2042C10.0962 15.0957 10.1686 14.9509 10.241 14.8423C10.5305 14.5528 10.7476 14.2634 10.8199 13.8653C10.8923 13.3587 11.1818 12.9606 11.6523 12.6711C12.0141 12.454 12.3398 12.1645 12.6655 11.9112C13.0635 12.2007 13.534 12.4902 13.9682 12.8521C14.2939 13.1054 14.511 13.4672 14.5472 13.8653C14.5834 14.2634 14.8005 14.5528 15.09 14.8423C15.1986 14.9509 15.271 15.0957 15.271 15.2042C15.2348 17.5926 15.2348 19.9809 15.2348 22.3331Z" fill="#BD995F"/>
</svg>
