<svg width="43" height="43" viewBox="0 0 43 43" fill="none" xmlns="http://www.w3.org/2000/svg">
<path d="M25.3901 18.7483C26.2251 19.3556 27.098 19.5074 28.0468 19.014C28.5022 18.7863 28.8817 18.4447 29.1854 18.0272C30.5896 16.1296 31.083 14.0422 30.6275 11.6892C30.4378 10.7024 29.9444 9.90544 29.0715 9.37411C28.4263 8.99458 27.7052 8.84277 26.9462 8.84277C26.6805 8.88073 26.4528 8.88073 26.1871 8.91868C24.6311 9.14639 23.6443 10.0952 23.2648 11.5753C22.8473 13.2832 23.075 14.9531 23.7961 16.5471C24.1377 17.42 24.6311 18.179 25.3901 18.7483ZM23.3786 12.9796C23.7202 12.638 24.0997 12.4103 24.5172 12.2585C24.8208 12.1446 25.1245 12.0687 25.4281 11.9169C25.7317 11.7651 25.9974 11.6133 26.2251 11.3856C26.4907 11.1199 26.6425 10.8542 26.7564 10.5506C26.7944 10.5506 26.8323 10.5506 26.8703 10.5506C26.9082 10.5506 26.9082 10.5506 26.9462 10.5506C27.06 10.8542 27.2118 11.1199 27.4775 11.3856C27.7052 11.6133 28.0088 11.7651 28.2745 11.9169C28.5781 12.0687 28.8817 12.1446 29.1854 12.2585C29.6408 12.4103 30.0583 12.676 30.3998 13.0175C30.4378 14.3459 30.1342 15.6362 29.489 16.8887C29.1854 17.458 28.8058 17.9513 28.3125 18.3688C27.4395 19.0899 26.3389 19.0899 25.466 18.3688C24.6311 17.6857 24.1377 16.7748 23.7961 15.7501C23.4925 14.8772 23.3407 13.9284 23.3786 12.9796Z" fill="#BD995F"/>
<path d="M27.1739 23.0749C25.5419 23.3026 24.5172 24.2894 24.1377 25.8454C23.7202 27.5154 23.91 29.1473 24.5552 30.7413C24.9347 31.7281 25.504 32.6389 26.3769 33.2841C27.2498 33.9293 28.1606 34.0811 29.1474 33.5498C29.6028 33.3221 30.0203 32.9805 30.3239 32.563C31.8041 30.5895 32.3354 28.3883 31.842 25.9593C31.6523 24.9346 31.1209 24.0996 30.2101 23.5683C29.5269 23.1508 28.7679 23.037 27.9709 22.999C27.7052 23.037 27.4395 23.037 27.1739 23.0749ZM31.5764 26.7563C31.7661 28.8437 31.3107 30.7413 30.0203 32.4112C29.6787 32.8666 29.2233 33.2082 28.692 33.398C27.895 33.6636 27.1739 33.4739 26.5287 32.9805C25.7317 32.3733 25.2383 31.5003 24.8967 30.5895C24.5172 29.6786 24.3275 28.7298 24.3275 27.7431C24.3275 27.7431 24.3275 27.4015 24.3654 27.0599C24.4034 26.7184 24.4413 26.4147 24.4793 26.0732C24.4793 25.9973 24.5931 25.8834 24.669 25.8075C25.3901 25.3521 26.1492 24.9346 27.06 24.8207C28.3884 24.631 29.6787 24.7828 30.8553 25.5039C31.4625 25.9593 31.5004 25.9593 31.5764 26.7563ZM29.6028 23.6822C30.3998 23.9858 30.9312 24.593 31.2348 25.39C29.0335 24.0996 26.8323 24.0996 24.6311 25.39C24.9726 24.5551 25.5419 23.9478 26.3769 23.6442C27.4775 23.2647 28.5402 23.2647 29.6028 23.6822Z" fill="#BD995F"/>
<path d="M35.6752 36.4344C35.5993 36.3964 35.5234 36.3585 35.4854 36.2826C35.1059 35.9789 34.8023 35.5615 34.6884 35.0681C34.271 33.5879 33.7776 32.1457 33.1703 30.7415C32.9426 30.2481 32.9426 29.8307 33.0565 29.3373C33.3981 27.7433 33.474 26.1493 33.0565 24.5932C32.7529 23.4547 32.1836 22.5818 31.3107 21.9745C31.5384 21.1016 31.6143 20.2287 31.4245 19.3179C31.4245 19.2799 31.4245 19.242 31.4245 19.204C31.3866 18.9383 31.3107 18.5209 31.3107 18.3311C31.2727 17.6859 31.3866 17.0787 31.5763 16.4335C31.9938 14.9913 32.2215 13.5112 32.1456 11.9931C32.1077 11.0822 31.9179 10.1713 31.5004 9.37435C30.8173 8.04601 29.7167 7.32492 28.2745 7.09721C27.4016 6.9454 26.4907 6.98335 25.6178 7.21106C23.9479 7.66649 22.9232 8.76711 22.4678 10.3991C22.0503 11.9172 22.1262 13.4352 22.4678 14.9533C22.5816 15.4467 22.5437 15.8642 22.3539 16.3196C21.7467 17.648 21.2913 19.0522 20.9117 20.4564C20.8358 20.6841 20.7599 20.9119 20.6461 21.1016C20.4943 21.0257 20.3045 20.9878 20.1527 20.9119C20.0388 20.8739 19.9629 20.798 19.887 20.6841C19.6593 20.2667 19.5454 19.8492 19.4316 19.3558C19.3936 19.242 19.4316 19.166 19.5075 19.0522C20.1527 18.2172 20.6461 17.3443 20.8358 16.2817C20.8358 16.2437 20.9117 16.1678 20.9876 16.1678C21.2533 16.1299 21.4051 15.9781 21.481 15.7124C21.5949 15.257 21.7087 14.8395 21.7846 14.3841C21.8985 13.7768 21.6708 13.3593 21.0256 13.3973H20.9876C20.9497 13.1696 20.9497 12.9419 20.9117 12.7521C20.6081 10.7406 20.3045 8.76711 19.9629 6.75563C19.925 6.45201 19.887 6.41406 19.5834 6.41406H15.4086C14.4598 6.41406 13.549 6.41406 12.6002 6.41406C12.4484 6.41406 12.3345 6.45201 12.2965 6.64178C12.1068 7.78035 11.955 8.91892 11.7652 10.0195C11.5755 11.1202 11.4236 12.2587 11.2339 13.3973C11.12 13.3973 11.0062 13.3973 10.8923 13.4352C10.5507 13.5491 10.3989 13.8907 10.4748 14.3081C10.5507 14.7636 10.6646 15.257 10.8164 15.7124C10.8923 15.9401 11.0441 16.1299 11.3098 16.1678C11.4236 16.1678 11.4616 16.2437 11.4616 16.3196C11.4616 16.3576 11.4616 16.4335 11.4995 16.4714C11.6893 17.4582 12.1827 18.3311 12.8279 19.0901C12.9038 19.204 12.9417 19.2799 12.9038 19.3938C12.8279 19.8492 12.6761 20.2667 12.4484 20.6462C12.4104 20.7221 12.2965 20.798 12.2206 20.836C12.2206 20.836 12.1447 20.9119 12.0688 20.9878C10.7405 21.3673 9.56398 22.0125 8.61517 23.0372C7.09708 24.6691 6.83141 26.7945 7.89408 28.768C8.31155 29.527 8.84289 30.2481 9.45012 30.8933C9.52603 30.9692 9.56398 31.0831 9.60193 31.1969C9.63988 31.5385 9.67784 31.8801 9.75374 32.2217C9.90555 33.2843 10.1333 34.347 10.7026 35.2958C10.7026 35.2958 10.7026 35.3337 10.7026 35.3717C10.6266 35.4096 10.5507 35.4476 10.4748 35.4476H10.4369L7.24889 36.6241C7.09708 36.6621 7.05913 36.8518 7.17298 36.9657C11.12 40.5332 16.1677 42.4688 21.481 42.4688C26.7943 42.4688 31.8041 40.5332 35.7131 37.0036C35.865 36.8139 35.865 36.5482 35.6752 36.4344ZM20.7979 13.7389C21.1015 13.663 21.2913 13.7768 21.2533 14.1184C21.1774 14.5738 21.0635 14.9913 20.9876 15.4467C20.9876 15.5226 20.9876 15.5606 20.9497 15.6365C20.9117 15.7124 20.8358 15.7883 20.7599 15.8642L20.722 15.8262C20.7599 15.1051 20.7979 14.422 20.7979 13.7389ZM11.3477 15.8262C11.2718 15.7503 11.1959 15.6744 11.158 15.5985C11.0441 15.1431 10.9303 14.6877 10.8544 14.2322C10.8544 14.1943 10.8544 14.1184 10.8544 14.0804C10.8544 13.7768 11.0062 13.7009 11.3098 13.7389C11.3098 14.422 11.3477 15.1051 11.3477 15.8262ZM33.0944 31.5765C33.1324 31.6524 33.1324 31.7283 33.0944 31.8042C32.4492 34.6886 30.5137 36.5103 27.6293 37.0796C26.4148 37.3073 25.1624 37.3073 23.9479 37.1934C23.113 36.7759 22.278 36.3964 21.4051 36.0548C21.7846 35.7133 22.2021 35.4096 22.6955 35.2578C23.5684 34.9163 23.9859 34.2711 24.0618 33.3982C24.0997 33.0946 24.0997 32.7909 24.1377 32.4494C24.1756 32.5253 24.2136 32.6012 24.2515 32.6391C24.669 33.3223 25.1624 33.9295 25.8076 34.4229C27.06 35.3337 28.9197 35.3337 30.1721 34.4229C31.2348 33.6638 31.88 32.6391 32.3733 31.4626C32.4872 31.1969 32.6011 30.9313 32.7149 30.6277C32.8288 30.9692 32.9806 31.2728 33.0944 31.5765ZM22.4678 25.3143C22.6575 24.5932 22.7334 23.7962 22.6575 22.9233C22.6196 22.5818 22.5816 22.2402 22.5437 21.8607C22.5816 21.9745 22.6196 22.0884 22.6575 22.1643C22.8473 22.7715 23.113 23.3029 23.4166 23.7962C23.075 24.5553 22.9232 25.3902 22.8853 26.2252C22.8093 27.8192 23.0371 29.3373 23.4925 30.8554C23.7202 31.6524 23.8341 32.4494 23.7202 33.2464C23.6443 33.8916 23.4166 34.4988 22.7714 34.7645C22.1262 35.0301 21.5569 35.4096 21.0635 35.8651C20.9117 35.8271 20.7979 35.7512 20.6461 35.7133C20.1906 35.5615 19.7352 35.3717 19.2798 35.2199C19.4695 34.7645 19.6593 34.347 19.8111 33.8916C20.0768 32.9807 20.1906 32.0698 20.3045 31.159C20.3045 31.0451 20.3424 30.9692 20.4183 30.8933C21.0256 30.2102 21.5949 29.4891 22.0123 28.6921C22.5816 27.5915 22.7714 26.4529 22.4678 25.3143ZM32.677 24.783C33.0944 26.4149 32.9426 28.0848 32.5631 29.7168C32.2595 31.0072 31.7661 32.1837 30.8932 33.2084C30.286 33.9295 29.5649 34.4988 28.6161 34.6506C27.2877 34.8783 26.1871 34.4608 25.3142 33.4741C24.669 32.7909 24.2895 31.956 23.9479 31.121C23.4545 29.7548 23.2268 28.3505 23.2268 26.8324C23.2268 25.8457 23.3786 24.745 23.872 23.7583C24.5172 22.4299 25.5799 21.7089 27.0221 21.5191C27.895 21.3673 28.7679 21.4052 29.6408 21.633C31.2727 22.0504 32.2595 23.151 32.677 24.783ZM22.6196 10.5888C22.9991 9.14663 23.7961 8.08397 25.2383 7.59059C26.1492 7.28697 27.098 7.24901 28.0088 7.40082C29.3751 7.59059 30.3998 8.31168 31.045 9.56411C31.5004 10.5129 31.6522 11.5376 31.6522 12.5244C31.6143 13.9666 31.4245 15.2949 30.9691 16.5853C30.6655 17.4202 30.286 18.2172 29.6787 18.8624C28.8058 19.8112 27.7811 20.2287 26.4907 20.001C25.5799 19.8492 24.8967 19.3179 24.3274 18.6347C23.5304 17.648 23.0371 16.5094 22.7334 15.2949C22.3919 13.7389 22.2401 12.1828 22.6196 10.5888ZM22.2401 17.1166C22.3539 16.813 22.5057 16.5094 22.6196 16.1678C22.7334 16.4714 22.8473 16.6991 22.9232 16.9648C23.4166 18.0654 24.0238 19.0901 25.0485 19.7733C26.263 20.6082 28.0088 20.6082 29.1853 19.7733C29.8305 19.3179 30.286 18.7486 30.6655 18.0654C30.7034 18.0275 30.7414 17.9516 30.7793 17.8757C30.8173 18.1793 30.8173 18.4829 30.8552 18.7865C30.8932 18.9763 30.8932 19.166 30.9691 19.3558C30.9691 19.4317 31.0071 19.5076 31.0071 19.5456C31.1589 20.2667 31.083 20.9498 30.9311 21.6709C30.9311 21.7089 30.9311 21.7089 30.8932 21.7468C30.5516 21.5191 30.1341 21.3673 29.6787 21.2534C28.7679 21.0257 27.857 20.9878 26.9082 21.1396C26.3389 21.2155 25.8076 21.4052 25.3522 21.633C23.7582 20.76 22.6575 19.3179 22.2021 17.3443C22.2021 17.2305 22.2021 17.1546 22.2401 17.1166ZM22.0503 18.0275C22.0503 18.0654 22.0883 18.1034 22.0883 18.1793C22.6575 19.7733 23.6063 21.0257 25.0106 21.8227C24.4033 22.2022 23.9479 22.7715 23.5684 23.4547C23.3786 23.1131 23.2268 22.7715 23.075 22.392C22.6955 21.3673 22.4298 20.3426 22.2021 19.2799C22.1262 18.8624 22.0503 18.445 21.9744 17.9895C22.0503 18.0275 22.0503 18.0275 22.0503 18.0275ZM21.8226 19.8112C22.1262 21.0257 22.316 22.0125 22.3919 22.9613C22.4298 23.6065 22.4298 24.1758 22.316 24.745C22.278 24.6691 22.278 24.5932 22.2401 24.5173C21.9364 23.8342 21.519 23.2269 21.0256 22.7715C21.5569 21.8607 21.8226 20.798 21.8226 19.6974C21.7846 19.7353 21.8226 19.7733 21.8226 19.8112ZM21.0635 20.4944C21.1774 20.0769 21.3292 19.6215 21.4431 19.204C21.519 20.4185 21.2533 21.557 20.722 22.5818C20.4943 22.354 20.2286 22.1643 19.9629 22.0125C20.0388 21.9745 20.0768 21.9366 20.1527 21.8607C20.6081 21.5191 20.9117 21.0637 21.0635 20.4944ZM19.8111 21.1775C19.9629 21.2155 20.0768 21.2914 20.2286 21.3293C20.1527 21.4052 20.0388 21.5191 19.9629 21.595C19.887 21.6709 19.7732 21.7468 19.6973 21.8227C19.5075 21.7089 19.3177 21.633 19.128 21.5191C19.128 21.5191 19.128 21.5191 19.09 21.5191C19.2418 21.4432 19.3936 21.3293 19.5454 21.2534C19.6213 21.1775 19.7352 21.1396 19.8111 21.1775ZM19.3936 20.9119C19.3936 20.9119 19.3557 20.9498 19.3177 20.9878C19.128 21.1016 18.9003 21.2155 18.7105 21.3673C18.1033 21.1016 17.534 20.9119 16.9267 20.798C17.6858 20.6082 18.331 20.1528 18.9382 19.5835C19.09 20.001 19.2418 20.4185 19.3936 20.9119ZM20.4183 14.9913C20.3804 14.9913 20.3804 14.9913 20.3424 14.9913C20.2286 14.3461 20.1147 13.7389 20.0388 13.0937C20.1906 13.0937 20.3045 13.0557 20.4183 13.0557V14.9913ZM18.1033 10.0575C18.1792 10.437 18.2171 10.8165 18.293 11.1961H17.6099C17.6478 10.9304 17.6858 10.6647 17.7237 10.3991C17.7237 10.2852 17.7617 10.1713 17.7996 10.0575C17.8376 9.94363 17.7996 9.82977 17.7237 9.71592C17.5719 9.56411 17.6099 9.33639 17.7237 9.22254C17.8376 9.10868 18.0653 9.10868 18.2171 9.22254C18.3689 9.37434 18.3689 9.56411 18.2171 9.71592C18.0653 9.82977 18.0653 9.90568 18.1033 10.0575ZM12.6381 6.71768H17.7617V6.90744C17.7617 7.47673 17.7617 8.04601 17.7617 8.65325C17.7617 8.76711 17.7237 8.84301 17.6478 8.88096C17.2683 9.07073 17.1544 9.52615 17.3822 9.90568C17.4201 9.98158 17.4581 10.0575 17.4201 10.1334C17.3822 10.5129 17.3063 10.8924 17.2304 11.272C17.1924 11.4997 17.2304 11.5756 17.4581 11.5756C17.7617 11.5756 18.0653 11.5756 18.4069 11.5756C18.6346 11.5756 18.6725 11.4997 18.6346 11.3099C18.5966 10.9304 18.5207 10.5888 18.4828 10.2093C18.4448 10.0954 18.4828 9.98158 18.5587 9.86773C18.7864 9.52615 18.6346 9.07073 18.2551 8.88096C18.1412 8.84301 18.1033 8.76711 18.1033 8.65325C18.1033 8.08397 18.1033 7.47673 18.1033 6.90744C18.1033 6.86949 18.1033 6.79359 18.1033 6.71768C18.5207 6.71768 18.9382 6.71768 19.3557 6.71768C19.3936 6.71768 19.4695 6.79359 19.4695 6.83154C19.6593 8.00806 19.8491 9.22254 20.0388 10.3991C20.1527 11.1581 20.2665 11.9172 20.4183 12.7142C17.534 12.9798 14.6116 12.9419 11.7273 12.7142C12.0309 10.7027 12.3345 8.72916 12.6381 6.71768ZM11.6893 13.0557C11.8411 13.0557 11.9929 13.0937 12.1447 13.0937C12.1068 13.3214 12.0688 13.5491 12.0309 13.7768C11.955 14.1563 11.917 14.5359 11.8411 14.9154C11.8411 14.9533 11.8032 14.9913 11.7652 15.0292C11.7273 14.9913 11.6893 14.9533 11.6893 14.9154C11.6893 14.3081 11.6893 13.7009 11.6893 13.0557ZM11.8032 16.1678C11.7652 15.9021 11.7273 15.6365 11.7273 15.3708C12.1447 15.4467 12.1447 15.1811 12.1827 14.9154C12.2586 14.3461 12.3725 13.7389 12.4863 13.1316C14.9153 13.2834 17.3063 13.2834 19.6973 13.1316C19.7732 13.5111 19.8111 13.8907 19.887 14.2702C19.925 14.4979 19.9629 14.7636 20.0009 14.9913C20.0768 15.3708 20.0009 15.3329 20.3804 15.4088C20.3424 15.9781 20.3045 16.5094 20.0768 17.0407C19.6593 18.1413 19.0141 19.0522 18.1033 19.7733C16.8508 20.798 15.2568 20.798 13.9665 19.8112C12.8279 18.8624 12.0688 17.648 11.8032 16.1678ZM13.2833 19.6215C13.7008 20.039 14.1562 20.3426 14.6496 20.5703C14.0424 20.6082 13.4351 20.6841 12.8279 20.798C12.9797 20.3805 13.1315 20.001 13.2833 19.6215ZM9.71579 28.2746C9.60193 28.4264 9.52603 28.5403 9.52603 28.73C9.52603 29.2614 9.52603 29.8307 9.52603 30.362C9.48808 30.362 9.48808 30.362 9.45012 30.324C8.72903 29.527 8.12179 28.6921 7.78022 27.6294C7.28684 25.9975 7.70432 24.5932 8.76698 23.3408C9.52603 22.4299 10.5128 21.8607 11.6134 21.4811C13.1695 20.9119 14.7635 20.76 16.3954 20.9878C16.4334 20.9878 16.4713 20.9878 16.5093 20.9878C16.5472 20.9878 16.5852 20.9878 16.6611 21.0257C16.4713 21.1016 16.3195 21.1396 16.1677 21.2155C14.5357 21.7848 12.9797 22.5438 11.6134 23.6444C11.4236 23.7962 11.2339 23.948 11.0821 24.1378C11.0062 24.2137 10.9682 24.3276 11.0821 24.4035C11.158 24.4414 11.2718 24.4414 11.3477 24.3655C12.9038 22.9233 14.8014 22.0884 16.7749 21.3673C17.2304 21.2155 17.6478 21.2155 18.0653 21.4052C19.09 21.8227 20.0388 22.3161 20.8358 23.1131C21.7846 24.0999 22.278 25.2384 22.2401 26.6047C22.2021 27.0222 22.1262 27.4397 21.9364 27.8571C21.5949 26.9083 21.1015 26.1113 20.4183 25.4661C20.0768 25.1246 19.6593 24.8589 19.2798 24.5173C19.1659 24.4414 19.0521 24.4035 18.9762 24.5173C18.9003 24.6691 19.0141 24.745 19.09 24.783C20.0768 25.4282 20.8738 26.2631 21.3292 27.3258C21.8605 28.5023 21.8226 28.1987 21.1774 29.1855C20.9497 29.565 20.6461 29.9066 20.3804 30.2481C20.3424 30.2481 20.3424 30.2481 20.3424 30.2481C20.3424 29.9445 20.3424 29.6409 20.3424 29.3373C20.3424 29.0716 20.3424 28.8059 20.3424 28.5782C20.3424 28.4264 20.3045 28.3126 20.1527 28.1987C18.6346 26.9083 16.9647 25.8457 15.105 25.0866C15.0291 25.0487 14.9912 25.0107 14.9153 25.0107C14.9153 24.9728 14.9153 24.9728 14.9153 24.9348C15.5604 24.745 16.2056 24.5173 16.8508 24.3276C16.9647 24.2896 17.0785 24.2896 17.1544 24.2517C17.2683 24.2137 17.3822 24.1758 17.3442 24.0239C17.3063 23.8721 17.1924 23.8721 17.0785 23.9101C16.699 24.0239 16.3195 24.0999 15.94 24.2137C13.549 25.0866 11.4995 26.4529 9.71579 28.2746ZM10.1712 28.3126C11.3857 27.0981 12.7899 26.1113 14.346 25.3523C14.4219 25.3143 14.5357 25.3143 14.6116 25.3523C16.5472 26.0734 18.2551 27.174 19.8491 28.4644C19.9629 28.5782 20.0009 28.6921 20.0388 28.8439C20.0768 29.2234 19.9629 29.4511 19.6973 29.7548C19.1659 30.2861 18.9003 30.9313 18.6346 31.6144C18.4828 32.0319 18.3689 32.4494 18.2171 32.8289C18.1412 33.0187 18.0653 33.2084 17.9514 33.3982C17.7996 33.6259 17.496 33.7018 17.2683 33.5879C17.1924 33.55 17.0785 33.4741 17.0026 33.3982C15.8641 32.4873 14.1562 32.4873 13.0176 33.3982C12.9417 33.4741 12.8279 33.55 12.714 33.5879C12.4863 33.7018 12.2586 33.6638 12.1068 33.4741C11.955 33.2843 11.8411 33.0187 11.7652 32.7909C11.4616 31.8421 11.158 30.9313 10.5887 30.0963C10.4748 29.9445 10.361 29.7927 10.2471 29.6788C10.0194 29.4891 9.90555 29.2993 9.98146 28.9957C9.82965 28.6921 9.98146 28.5023 10.1712 28.3126ZM10.2471 33.0566C10.0574 32.1457 9.9435 31.2349 9.90555 30.2861C9.90555 30.1722 9.90555 30.0584 9.90555 29.9445C9.9435 29.9445 9.9435 29.9445 9.9435 29.9445C10.0194 30.0584 10.1333 30.1722 10.2092 30.324C10.7405 31.121 11.0441 31.9939 11.3477 32.9048C11.4236 33.2084 11.5755 33.4741 11.7652 33.7397C11.955 34.0054 12.3345 34.1193 12.6381 34.0054C12.8279 33.9295 12.9797 33.8536 13.1315 33.7397C14.1942 32.9048 15.6743 32.9048 16.699 33.7397C17.1165 34.0813 17.534 34.1572 17.8755 33.8916C18.1792 33.6638 18.331 33.3602 18.4448 32.9807C18.7105 32.0319 19.0521 31.121 19.5834 30.324C19.6593 30.2102 19.7352 30.0963 19.8111 30.0204C19.8111 29.9825 19.8491 29.9825 19.925 29.9445C19.887 30.362 19.925 30.7415 19.8491 31.121C19.6973 32.0319 19.5834 32.9427 19.3557 33.8157C19.0521 34.9542 18.4448 35.9789 17.496 36.738C15.6364 38.1802 12.9797 37.8766 11.4616 36.0169C10.8923 35.106 10.4748 34.1193 10.2471 33.0566ZM10.361 35.8271C10.5128 35.7512 10.7026 35.6374 10.8544 35.6753C11.0062 35.7133 11.0821 35.941 11.1959 36.0548C12.5243 37.7247 14.5357 38.332 16.5093 37.6488C17.534 37.3073 18.331 36.6241 18.9382 35.7133C19.0521 35.5615 19.128 35.5235 19.2798 35.5994C19.6213 35.7512 20.0009 35.8651 20.3804 35.9789C19.925 36.8898 19.3557 37.6868 18.6725 38.3699C18.1792 38.8633 17.6478 39.2808 17.0406 39.6224C16.9647 39.6603 16.8888 39.6983 16.7749 39.7362C15.105 39.8501 13.4351 39.7362 11.8791 39.0531C10.6646 38.5217 9.71579 37.6868 8.9947 36.5482C8.95674 36.5103 8.91879 36.4344 8.88084 36.3964C8.88084 36.3964 8.88084 36.3585 8.88084 36.3205C9.37422 36.1687 9.8676 35.9789 10.361 35.8271ZM7.74227 36.9277C7.70432 36.8898 7.70432 36.7759 7.78022 36.7759C8.00793 36.6621 8.2736 36.5862 8.50131 36.4723C10.2092 39.3567 12.9038 40.1916 16.0538 40.1916C15.9779 40.2296 15.9779 40.2675 15.94 40.2675C15.4466 40.4953 14.9912 40.685 14.4978 40.8368C12.0309 39.9639 9.75374 38.6356 7.74227 36.9277ZM21.4431 42.0134C21.0256 42.0134 20.6461 42.0134 20.2286 41.9754C21.2533 41.3302 22.1642 40.5332 22.9232 39.5844C22.9612 39.5465 22.9612 39.5085 22.9991 39.5085C23.075 39.3946 23.113 39.3187 22.9991 39.2049C22.8853 39.129 22.7714 39.1669 22.6955 39.2808C22.0123 40.1916 21.1774 40.9127 20.2286 41.5579C20.1906 41.5959 20.1147 41.6338 20.0768 41.6338C19.925 41.7477 19.7352 41.8236 19.5834 41.9375C18.0274 41.7856 16.5093 41.482 15.0291 41.0266C15.7123 40.7989 16.3574 40.4573 17.0026 40.1157C18.5966 39.2049 19.8111 37.9145 20.6461 36.2826C20.6461 36.2446 20.684 36.2066 20.722 36.1687C20.9117 36.2446 21.1015 36.3205 21.2913 36.3964C22.278 36.7759 23.1889 37.1934 24.0997 37.7247C24.8967 38.1802 25.4281 38.8633 25.7317 39.6983C25.9214 40.3055 26.0732 40.9127 26.1871 41.52C24.6311 41.8236 23.075 42.0134 21.4431 42.0134ZM29.9444 40.2296C28.8438 40.723 27.6672 41.1405 26.4528 41.4061V41.2543C26.3769 40.7989 26.301 40.3435 26.1871 39.926C25.9594 38.9392 25.466 38.1802 24.669 37.6109C25.2762 37.6488 25.8835 37.6488 26.4907 37.6109C28.2745 37.497 29.9064 37.0036 31.2727 35.7892C32.2215 34.9542 32.8288 33.9295 33.2462 32.753C33.2842 32.6771 33.2842 32.6391 33.3221 32.5632H33.3601C33.2842 33.0187 33.2083 33.4361 33.1324 33.8916C32.9047 34.9922 32.639 36.0928 32.2215 37.1555C31.6902 38.4458 30.9311 39.4705 29.9444 40.2296ZM35.2577 36.8139C34.0432 37.9145 32.677 38.8254 31.2727 39.5844C31.2348 39.6224 31.1968 39.5465 31.2348 39.5085C31.9179 38.7495 32.4113 37.8006 32.7529 36.738C33.0944 35.5615 33.436 34.3849 33.6258 33.1705C33.6258 33.1325 33.6258 33.0946 33.6637 33.0946H33.7017C33.9294 33.7777 34.1191 34.4608 34.3089 35.144C34.4607 35.7133 34.8023 36.2066 35.2577 36.5862C35.3336 36.6241 35.3336 36.738 35.2577 36.8139Z" fill="#BD995F"/>
</svg>
