<svg width="43" height="43" viewBox="0 0 43 43" fill="none" xmlns="http://www.w3.org/2000/svg">
<path d="M7.78023 11.158C7.89408 10.7785 8.15975 10.7785 8.46337 10.7785C9.07061 10.7785 9.7158 10.7405 10.323 10.7405C10.3989 10.7405 10.4748 10.7405 10.5507 10.7785C11.8411 11.4996 13.2833 11.8412 14.7255 12.2207C15.9779 12.5623 17.2304 12.9418 18.4069 13.3972C19.6973 13.8906 20.7599 14.6496 21.481 15.8641C22.7334 13.8526 24.8208 13.2074 26.9082 12.5623C28.3504 12.1448 29.7926 11.7273 31.1968 11.3098C31.5763 11.196 31.9559 10.9683 32.3354 10.7785C32.4492 10.7405 32.5631 10.7026 32.677 10.7026C33.2842 10.7026 33.8914 10.7405 34.4987 10.7405C34.8023 10.7405 35.068 10.7785 35.1818 11.1201C35.5613 10.9683 35.9409 10.8165 36.3204 10.6267C36.624 10.4749 36.7758 10.5508 36.9656 10.8165C37.9523 12.3725 38.9771 13.9665 39.9638 15.5225C40.1915 15.9021 40.1536 16.0159 39.774 16.2057C36.0168 18.2172 32.2595 20.1907 28.4643 22.1262C28.3504 22.2022 28.2365 22.2401 28.0468 22.354C28.654 22.6955 29.1853 23.0751 29.7546 23.3407C30.7414 23.7582 31.3866 24.4793 31.6143 25.542C31.6522 25.7317 31.8041 25.9974 31.7282 26.1492C31.5763 26.4528 31.3107 26.6805 31.083 26.9082C31.0071 26.9841 30.8173 26.9082 30.6655 26.8703C29.7167 26.3769 28.8058 25.8456 27.857 25.3522C27.7811 25.3142 27.6673 25.2763 27.5534 25.2383C27.6293 25.3142 27.7052 25.4281 27.8191 25.504C28.2365 25.8076 28.654 26.1112 29.0715 26.3769C30.5516 27.2119 32.0697 28.0468 33.5499 28.8818C33.7396 28.9956 33.8914 29.1474 33.9673 29.3372C34.271 29.9065 34.5366 30.5137 34.8023 31.121C34.9161 31.3487 34.8782 31.5384 34.7264 31.7282C34.6125 31.88 34.4987 32.0318 34.3848 32.1836C34.1951 32.4493 34.0053 32.4872 33.7396 32.3354C32.2595 31.5384 30.8173 30.7794 29.3372 29.9824C26.7944 28.6541 24.2895 27.2878 21.7467 25.9594C21.519 25.8456 21.3672 25.8456 21.1395 25.9594C17.2304 28.0089 13.2833 30.1342 9.33627 32.2216C8.84289 32.4872 8.84289 32.4872 8.46337 32.0318C7.89408 31.2728 7.93204 31.5384 8.31156 30.7414C8.53927 30.248 8.72904 29.7926 8.9947 29.3372C9.07061 29.1474 9.22242 28.9956 9.41218 28.9197C11.0441 27.9709 12.6761 27.0601 14.308 26.1492C14.7255 25.9215 15.0671 25.6179 15.4466 25.3142C15.4466 25.2763 15.4086 25.2383 15.4086 25.2383C15.3327 25.2763 15.2568 25.2763 15.2189 25.3142C14.2701 25.8456 13.3213 26.339 12.3725 26.8703C12.1068 27.0221 11.917 26.9841 11.6893 26.7564C11.2718 26.339 11.2339 25.9974 11.4237 25.4281C11.7273 24.5172 12.2586 23.8721 13.1315 23.4546C13.7387 23.1889 14.308 22.8094 14.8773 22.4678C14.8773 22.4678 14.9153 22.4299 14.9532 22.3919C14.8014 22.316 14.6876 22.2401 14.5737 22.2022C10.7785 20.1907 6.98323 18.2172 3.22595 16.2436C2.77052 16.0159 2.77052 15.94 3.03619 15.5225C4.02295 13.9665 5.00971 12.4104 5.99647 10.8924C6.22418 10.5508 6.26213 10.5508 6.67961 10.7026C7.02118 10.8165 7.4007 10.9683 7.78023 11.158ZM21.7846 21.2533C21.8985 21.1774 21.9365 21.1395 21.9744 21.1015C23.4545 19.6593 25.1624 18.5967 27.098 17.8756C28.7299 17.2683 30.3619 16.775 31.9559 16.1677C32.8667 15.8262 33.7396 15.4087 34.6505 15.0292C33.8914 13.8147 33.2083 12.6382 32.4872 11.4616C32.4113 11.4616 32.4113 11.4616 32.3733 11.4996C31.2348 12.0309 30.0582 12.3725 28.8438 12.7141C27.3636 13.0936 25.8835 13.4731 24.4793 14.1183C23.4545 14.5737 22.5816 15.2189 22.0124 16.2057C21.8985 16.3954 21.7846 16.6611 21.7846 16.8888C21.7846 18.2931 21.7846 19.7353 21.7846 21.2533ZM8.34951 14.9912C8.50132 15.0671 8.61518 15.1051 8.72904 15.181C10.6267 16.0918 12.6002 16.775 14.6116 17.4202C17.0785 18.1792 19.2798 19.3557 21.1015 21.1774C21.1015 21.1774 21.1395 21.1774 21.2154 21.2154C21.2154 19.925 21.1774 18.6346 21.2154 17.3443C21.2533 16.6991 21.0256 16.1677 20.6461 15.7123C20.3045 15.3328 19.9629 14.9533 19.5455 14.6876C18.9003 14.2701 18.1792 13.9285 17.4581 13.6629C15.1809 12.79 12.714 12.5243 10.5128 11.4237C9.7917 12.6382 9.07061 13.8147 8.34951 14.9912ZM35.5613 11.6514C35.5993 11.7273 35.6372 11.8032 35.6752 11.8412C36.3963 12.9038 37.0794 13.9665 37.8005 15.0292C38.1041 15.4846 38.1041 15.5605 37.6108 15.7882C33.0185 18.1413 28.4263 20.4943 23.8341 22.8853C23.6064 22.9992 23.4925 23.113 23.3786 23.3787C23.1509 23.9859 22.7334 24.3654 22.0503 24.4413C21.7087 24.4793 21.3672 24.4793 21.0256 24.4413C20.3425 24.4034 19.925 23.9859 19.6593 23.3787C19.5455 23.151 19.4316 22.9992 19.2039 22.8853C14.6116 20.5322 9.98146 18.1413 5.38923 15.7882C4.9338 15.5605 4.9338 15.4846 5.19947 15.0671C5.88261 14.0424 6.56575 12.9797 7.24889 11.955C7.3248 11.8791 7.36275 11.7653 7.43866 11.6514C7.09709 11.4996 6.79347 11.3857 6.48985 11.2339C5.50309 12.752 4.55428 14.2701 3.56752 15.7882C3.68138 15.8641 3.75728 15.9021 3.83318 15.94C9.63989 18.9762 15.4466 21.9744 21.2533 25.0106C21.4431 25.1245 21.5949 25.0865 21.7846 25.0106C27.5913 21.9744 33.3601 18.9762 39.1668 15.94C39.2427 15.9021 39.3566 15.8262 39.4325 15.7882C38.4457 14.2701 37.4969 12.752 36.5101 11.2339C36.1686 11.3857 35.865 11.4996 35.5613 11.6514ZM30.9312 25.3522C30.8173 24.7829 30.6275 24.4034 30.1342 24.1757C29.5649 23.91 29.0715 23.5684 28.5402 23.2648C28.1986 23.0751 27.857 22.7335 27.5154 22.7335C27.1359 22.7335 26.7943 23.0371 26.4148 23.2269C25.0106 23.948 23.6064 24.707 22.1642 25.4661C26.1492 27.5914 30.0962 29.6788 34.0432 31.7661C34.3848 31.5384 34.4228 31.2728 34.233 30.9691C34.0053 30.5896 33.8535 30.1342 33.6637 29.7547C33.5878 29.6029 33.436 29.4511 33.2842 29.3372C31.6902 28.4263 30.1342 27.5534 28.5402 26.6426C28.1606 26.4149 27.8191 26.1492 27.5154 25.8835C27.3257 25.6938 27.1359 25.4661 27.0221 25.2004C26.7564 24.6691 26.9841 24.2136 27.5534 24.0618C28.0468 23.91 28.5402 23.9859 28.9576 24.2136C29.5649 24.5552 30.248 24.9347 30.9312 25.3522ZM12.0688 25.3522C12.7899 24.9727 13.4351 24.5552 14.1562 24.1757C14.6496 23.91 15.1809 23.8341 15.7123 24.0618C16.1297 24.2516 16.2816 24.5932 16.1297 24.9727C16.0159 25.2763 15.8261 25.5799 15.5984 25.8076C15.2948 26.1112 14.9532 26.3769 14.5737 26.5667C13.3972 27.2878 12.1827 27.9709 11.0062 28.6541C10.5507 28.9197 9.94351 29.0715 9.60194 29.451C9.26037 29.8306 9.14651 30.4378 8.84289 30.9312C8.65313 31.2728 8.72904 31.5005 9.03265 31.7282C12.9797 29.6408 16.9267 27.5534 20.8738 25.4281C20.7979 25.3901 20.7599 25.3522 20.7599 25.3522C19.09 24.4793 17.4201 23.6064 15.7502 22.7714C15.6364 22.7335 15.4466 22.7335 15.3707 22.8094C14.5737 23.2269 13.8146 23.7202 13.0176 24.1377C12.4484 24.3654 12.1447 24.745 12.0688 25.3522ZM21.2154 23.8721C21.2154 23.4166 21.2154 22.9612 21.2154 22.5058C21.2154 22.2401 21.1395 22.0124 20.9497 21.8226C19.1659 19.963 17.0026 18.7485 14.5737 17.9894C12.3345 17.2683 10.1333 16.5093 8.04589 15.4846C7.62842 15.2948 7.59047 15.181 7.85613 14.8014C8.46337 13.7767 9.10856 12.7141 9.7158 11.6894C9.75375 11.6134 9.82965 11.4996 9.90556 11.3857C9.41218 11.3857 8.9188 11.3857 8.46337 11.3857C8.38746 11.3857 8.31156 11.4616 8.23566 11.5375C7.43866 12.752 6.64166 13.9285 5.84466 15.143C5.80671 15.2189 5.76875 15.2948 5.7308 15.3707C5.80671 15.4087 5.88261 15.4466 5.95852 15.4846C7.70432 16.3575 9.41218 17.2683 11.158 18.1413C13.9285 19.5455 16.699 20.9877 19.4695 22.3919C19.8111 22.5817 20.0388 22.7714 20.1906 23.1889C20.3045 23.6064 20.684 23.8721 21.2154 23.8721ZM21.7846 23.8341C22.316 23.8341 22.6955 23.6064 22.8094 23.151C22.9232 22.7335 23.1889 22.5437 23.5304 22.354C28.0088 20.0389 32.4872 17.7617 36.9656 15.4466C37.0794 15.4087 37.1553 15.3328 37.2312 15.2948C37.2312 15.2569 37.2312 15.2569 37.2312 15.2189C36.3963 13.9665 35.5613 12.6761 34.7264 11.4237C34.6884 11.3857 34.6505 11.3098 34.5746 11.3098C34.0812 11.3098 33.6258 11.3098 33.0944 11.3098C33.8155 12.4864 34.4987 13.6249 35.1439 14.7255C35.3716 15.143 35.3716 15.2189 34.9541 15.4087C34.3089 15.7123 33.6637 16.0539 32.9806 16.2816C31.1589 16.9647 29.3372 17.572 27.5154 18.2172C25.3901 18.9762 23.5304 20.1527 21.9744 21.7847C21.8985 21.8985 21.7467 22.0124 21.7467 22.1262C21.7846 22.7335 21.7846 23.3028 21.7846 23.8341ZM11.917 26.0733V26.1871C12.0309 26.1871 12.1447 26.2251 12.2207 26.1871C12.9797 25.7697 13.7387 25.3902 14.4978 24.9727C14.7255 24.8588 14.9532 24.707 15.1809 24.5932C15.1809 24.5552 15.143 24.5172 15.143 24.4793C13.9285 24.745 13.0176 25.5799 11.917 26.0733ZM27.857 24.4793C27.857 24.5172 27.8191 24.5552 27.8191 24.5552C28.8058 25.0865 29.8305 25.6558 30.8173 26.1871C30.8552 26.2251 30.9691 26.1492 31.045 26.1112C30.9691 26.0353 30.9691 26.0353 30.9312 25.9974C30.0962 25.542 29.2992 25.0486 28.4643 24.5932C28.3124 24.5552 28.0847 24.5552 27.857 24.4793Z" fill="#BD995F"/>
</svg>
