<svg width="30" height="24" viewBox="0 0 30 24" fill="none" xmlns="http://www.w3.org/2000/svg">
<g clip-path="url(#clip0_4_2)">
<mask id="mask0_4_2" style="mask-type:luminance" maskUnits="userSpaceOnUse" x="-1" y="14" width="15" height="10">
<path d="M5.03165 18.336C5.41139 16.704 6.4557 15.552 8.16456 15.168C10.2532 14.688 12.3418 16.032 12.9114 18.144C13.481 20.256 12.2468 22.368 10.1582 22.944C9.68354 23.04 9.20886 23.136 8.82911 23.136C7.97468 23.136 7.12025 23.136 6.17089 23.136C5.12658 23.136 3.98734 23.136 2.94304 23.136C1.8038 23.04 0.85443 22.08 0.85443 20.928C0.85443 19.68 1.61392 18.624 2.75316 18.432C3.32278 18.336 3.79747 18.432 4.36709 18.624C4.46203 18.72 4.55696 18.72 4.6519 18.72C4.84177 18.816 4.93671 18.624 5.03165 18.336ZM5.98101 15.36C5.12658 15.936 4.6519 16.8 4.27215 17.856C4.08228 17.856 3.98734 17.76 3.8924 17.76C2.75316 17.472 1.70886 17.76 0.85443 18.624C-9.68575e-08 19.488 -0.28481 20.64 0.0949366 21.792C0.56962 23.136 1.8038 24 3.32278 24C5.12658 24 6.93038 24 8.82911 24C9.11392 24 9.49367 24 9.77848 23.904C12.4367 23.424 14.1456 21.12 13.7658 18.432C13.481 16.608 12.5316 15.264 10.8228 14.592C10.1582 14.304 9.58861 14.208 9.01899 14.208C7.87975 14.304 6.93038 14.592 5.98101 15.36Z" fill="white"/>
</mask>
<g mask="url(#mask0_4_2)">
<path d="M14.1456 14.304H-0.189873V24.096H14.1456V14.304Z" fill="url(#paint0_linear_4_2)"/>
</g>
<mask id="mask1_4_2" style="mask-type:luminance" maskUnits="userSpaceOnUse" x="12" y="5" width="18" height="12">
<path d="M16.2342 8.44805C16.0443 8.64005 15.9494 8.64005 15.7595 8.64005C14.8101 8.54405 13.8608 8.64005 13.0063 9.21605C12.7215 9.40805 12.6266 9.60005 12.7215 9.88805C12.8165 10.176 13.1013 10.176 13.3861 9.98405C14.1456 9.50405 15 9.40805 15.9494 9.60005C16.424 9.69605 16.4241 9.69605 16.6139 9.21605C17.3734 7.58405 18.7025 6.62405 20.5063 6.43205C23.1646 6.14405 25.538 8.25605 25.6329 11.04C25.6329 11.712 25.7278 11.808 26.3924 11.616C27.6266 11.328 28.7658 12.096 29.0506 13.344C29.2405 14.496 28.3861 15.744 27.1519 15.84C26.6772 15.936 26.2025 15.84 25.6329 15.84C25.3481 15.84 25.1582 15.936 25.1582 16.224C25.1582 16.512 25.3481 16.704 25.6329 16.608C26.2025 16.608 26.6772 16.608 27.2468 16.608C28.481 16.512 29.6203 15.552 29.8101 14.208C30.0949 12.864 29.5253 11.52 28.2911 10.944C27.7215 10.656 27.1519 10.56 26.4873 10.656C26.4873 10.464 26.4873 10.368 26.3924 10.272C26.2975 9.31205 25.9177 8.54405 25.3481 7.77605C24.2089 6.24005 22.5 5.47205 20.8861 5.47205C19.1772 5.56805 17.2785 6.52805 16.2342 8.44805Z" fill="white"/>
</mask>
<g mask="url(#mask1_4_2)">
<path d="M30.0949 5.56799H12.6266V16.704H30.0949V5.56799Z" fill="url(#paint1_linear_4_2)"/>
</g>
<mask id="mask2_4_2" style="mask-type:luminance" maskUnits="userSpaceOnUse" x="4" y="0" width="23" height="24">
<path d="M12.2468 0.863944C11.8671 0.959944 11.5823 1.05594 11.2975 1.15194C6.55063 3.07194 3.6076 8.15994 4.36709 13.2479C4.46203 14.0159 4.74684 14.6879 4.93671 15.3599C5.03165 15.7439 5.22152 15.8399 5.50633 15.7439C5.6962 15.8399 5.79114 15.5519 5.6962 15.2639V15.1679C5.12658 13.5359 4.93671 11.9039 5.22152 10.2719C5.88608 6.52794 7.87975 3.74394 11.2975 2.20794C11.3924 2.20794 11.4873 2.11194 11.5823 2.11194C9.77848 6.52794 10.3481 10.4639 13.7658 13.8239C16.9937 16.8959 20.7911 17.3759 24.8734 15.6479C24.7785 15.8399 24.7785 15.9359 24.6835 16.1279C23.4494 18.8159 21.4557 20.6399 18.7025 21.6959C17.4684 22.1759 16.2342 22.2719 14.9051 22.2719H14.6203C14.3354 22.2719 14.1456 22.3679 14.1456 22.6559C14.1456 22.9439 14.3354 23.1359 14.6203 23.1359C15.4747 23.1359 16.4241 23.1359 17.2785 22.9439C21.7405 21.9839 24.6835 19.2959 26.1076 14.8799C26.2025 14.6879 26.1076 14.4959 25.9177 14.4959C25.8228 14.4959 25.6329 14.4959 25.443 14.5919C23.7342 15.3599 21.9304 15.8399 19.9367 15.6479C16.519 15.3599 13.9557 13.6319 12.4367 10.4639C10.9177 7.48794 11.1076 4.51194 12.8165 1.53594C12.9114 1.34394 13.1013 1.05594 12.9114 0.863944C12.8165 0.767944 12.6266 0.767944 12.5316 0.767944C12.3418 0.863944 12.2468 0.863944 12.2468 0.863944Z" fill="white"/>
</mask>
<g mask="url(#mask2_4_2)">
<path d="M26.1076 0.863892H3.51266V22.8479H26.1076V0.863892Z" fill="url(#paint2_linear_4_2)"/>
</g>
</g>
<defs>
<linearGradient id="paint0_linear_4_2" x1="6.94854" y1="0.00124497" x2="6.94854" y2="23.7258" gradientUnits="userSpaceOnUse">
<stop stop-color="#EBC189"/>
<stop offset="0.2018" stop-color="#EBC189"/>
<stop offset="0.3178" stop-color="#CAA46B"/>
<stop offset="0.3823" stop-color="#BD995F"/>
<stop offset="0.5167" stop-color="#A4824B"/>
<stop offset="0.6138" stop-color="#977641"/>
<stop offset="0.6751" stop-color="#8F6B3B"/>
<stop offset="0.7712" stop-color="#855E33"/>
<stop offset="0.9528" stop-color="#755400"/>
<stop offset="1" stop-color="#755400"/>
</linearGradient>
<linearGradient id="paint1_linear_4_2" x1="21.4084" y1="0.00128439" x2="21.4084" y2="23.7259" gradientUnits="userSpaceOnUse">
<stop stop-color="#EBC189"/>
<stop offset="0.2018" stop-color="#EBC189"/>
<stop offset="0.3178" stop-color="#CAA46B"/>
<stop offset="0.3823" stop-color="#BD995F"/>
<stop offset="0.5167" stop-color="#A4824B"/>
<stop offset="0.6138" stop-color="#977641"/>
<stop offset="0.6751" stop-color="#8F6B3B"/>
<stop offset="0.7712" stop-color="#855E33"/>
<stop offset="0.9528" stop-color="#755400"/>
<stop offset="1" stop-color="#755400"/>
</linearGradient>
<linearGradient id="paint2_linear_4_2" x1="14.8511" y1="0.868131" x2="14.8511" y2="24.5927" gradientUnits="userSpaceOnUse">
<stop stop-color="#EBC189"/>
<stop offset="0.2018" stop-color="#EBC189"/>
<stop offset="0.3178" stop-color="#CAA46B"/>
<stop offset="0.3823" stop-color="#BD995F"/>
<stop offset="0.5167" stop-color="#A4824B"/>
<stop offset="0.6138" stop-color="#977641"/>
<stop offset="0.6751" stop-color="#8F6B3B"/>
<stop offset="0.7712" stop-color="#855E33"/>
<stop offset="0.9528" stop-color="#755400"/>
<stop offset="1" stop-color="#755400"/>
</linearGradient>
<clipPath id="clip0_4_2">
<rect width="30" height="24" fill="white"/>
</clipPath>
</defs>
</svg>
