<svg width="24" height="16" viewBox="0 0 24 16" fill="none" xmlns="http://www.w3.org/2000/svg">
<mask id="mask0_4_3" style="mask-type:luminance" maskUnits="userSpaceOnUse" x="2" y="0" width="20" height="10">
<path d="M11.7722 0C11.3924 0.096 11.0127 0.288 10.7278 0.576C10.3481 1.056 10.0633 1.44 9.77848 1.92L9.49367 2.208C9.3038 2.592 9.01899 2.688 8.63924 2.688C8.44937 2.688 8.35443 2.688 8.16456 2.592C7.97468 2.592 7.87975 2.592 7.68987 2.496C7.59494 2.496 7.40506 2.496 7.31013 2.4C7.02532 2.304 6.74051 2.304 6.36076 2.304C5.79114 2.304 5.41139 2.4 5.12658 2.784C4.93671 3.072 4.84177 3.552 4.84177 4.128C4.93671 4.608 4.93671 4.992 5.03165 5.472C5.03165 5.76 5.12658 5.952 5.12658 6.24C5.22152 6.624 5.03164 6.816 4.84177 7.104C4.46202 7.296 4.08228 7.488 3.70253 7.776C3.32278 8.064 2.8481 8.352 2.56329 8.928C2.37342 9.312 2.56329 9.6 2.75316 9.696C2.8481 9.696 2.94304 9.792 3.03797 9.792C3.13291 9.792 3.32278 9.696 3.51266 9.504C3.70253 9.312 3.8924 9.024 4.17721 8.832C4.46202 8.64 4.6519 8.448 4.93671 8.256C5.12658 8.16 5.31646 7.968 5.50633 7.872C6.07595 7.488 6.36076 6.912 6.26582 6.144C6.26582 5.952 6.26582 5.76 6.17089 5.568C6.17089 5.472 6.17089 5.376 6.07595 5.184C6.07595 5.088 6.07595 4.896 5.98101 4.8C5.98101 4.512 5.98101 4.128 5.98101 3.744C5.98101 3.648 5.98101 3.552 6.26582 3.456C6.36076 3.456 6.4557 3.456 6.55063 3.456C7.02532 3.552 7.68987 3.648 8.25949 3.744C9.3038 3.936 10.0633 3.648 10.538 2.784C10.7278 2.496 10.8228 2.304 11.0127 2.112L11.1076 2.016C11.2975 1.728 11.4873 1.44 11.7722 1.248C11.8671 1.152 11.8671 1.152 11.962 1.152C12.057 1.152 12.057 1.152 12.1519 1.248C12.3418 1.44 12.6266 1.728 12.8165 2.016L12.9114 2.208C13.0063 2.304 13.1013 2.496 13.1962 2.688C13.2911 2.88 13.481 3.072 13.576 3.168C13.9557 3.648 14.4304 3.84 14.9051 3.84C15.0949 3.84 15.3797 3.84 15.6646 3.744C15.8544 3.744 16.0443 3.648 16.2342 3.648C16.519 3.552 16.8038 3.552 17.1835 3.552C17.5633 3.552 17.7532 3.552 17.8481 3.648C17.943 3.744 17.943 3.936 17.8481 4.32C17.7532 4.512 17.7532 4.8 17.7532 4.992C17.6582 5.376 17.6582 5.664 17.5633 6.048C17.4684 6.816 17.6582 7.392 18.2278 7.776C18.3228 7.872 18.5127 7.968 18.6076 8.064C18.7975 8.16 18.8924 8.256 18.9873 8.352C19.1772 8.544 19.3671 8.64 19.557 8.832C19.7468 9.024 20.0316 9.216 20.3165 9.408C20.5063 9.504 20.6962 9.6 20.8861 9.504C21.0759 9.408 21.1709 9.312 21.1709 9.12C21.1709 8.928 21.1709 8.832 21.076 8.736C20.8861 8.544 20.6962 8.256 20.5063 8.064C20.1266 7.776 19.6519 7.392 19.2722 7.104L19.0823 7.008C18.7025 6.72 18.6076 6.432 18.7025 6.048C18.7975 5.568 18.8924 5.088 18.8924 4.704L18.9873 4.32C18.9873 3.648 18.8924 3.168 18.6076 2.784C18.3228 2.496 17.943 2.4 17.4684 2.4C17.3734 2.4 17.1835 2.4 17.0886 2.4C16.9937 2.4 16.8987 2.4 16.7089 2.496C16.4241 2.592 16.0443 2.592 15.7595 2.688C15 2.88 14.5253 2.688 14.1456 2.112C13.8608 1.632 13.481 1.152 13.1013 0.768C12.8165 0.384 12.3418 0.192 11.962 0.192C11.8671 2.71797e-07 11.7722 0 11.7722 0Z" fill="white"/>
</mask>
<g mask="url(#mask0_4_3)">
<path d="M21.2658 -0.192017L21.3608 9.69598L2.46835 9.98398L2.37342 -1.68085e-05L21.2658 -0.192017Z" fill="url(#paint0_linear_4_3)"/>
</g>
<mask id="mask1_4_3" style="mask-type:luminance" maskUnits="userSpaceOnUse" x="0" y="11" width="24" height="3">
<path d="M5.88608 12.096C4.93671 12.864 3.60759 12.864 2.75316 12.096C2.18354 11.616 1.51899 11.328 0.759494 11.328C0.189873 11.328 0 11.616 0 11.808C0 12 0.0949369 12.096 0.0949369 12.192C0.189874 12.288 0.379747 12.384 0.56962 12.384C1.0443 12.384 1.61392 12.576 2.08861 12.96C2.75316 13.44 3.51266 13.728 4.27215 13.728C5.03165 13.728 5.79114 13.44 6.4557 12.96C7.5 12.192 8.63924 12.192 9.58861 12.96C10.9177 14.016 12.6266 14.016 13.9557 12.96C14.1456 12.768 14.4304 12.576 14.8101 12.48C15.6646 12.192 16.4241 12.384 17.0886 12.864C17.7532 13.44 18.5127 13.728 19.3671 13.632C20.2215 13.632 20.8861 13.44 21.5506 12.864C22.0253 12.48 22.5 12.288 23.0696 12.288C23.2595 12.288 23.4494 12.192 23.5443 12.096C23.6392 12 23.6392 11.904 23.6392 11.712C23.5443 11.328 23.0696 11.328 22.9747 11.328C22.2152 11.328 21.5506 11.616 20.981 12.096C20.0316 12.864 18.7025 12.864 17.7532 12.096C16.4241 11.04 14.7152 11.04 13.481 12.096C12.5316 12.864 11.2025 12.864 10.2532 12.096C9.58861 11.52 8.82911 11.328 8.06962 11.328C7.31013 11.328 6.55063 11.616 5.88608 12.096Z" fill="white"/>
</mask>
<g mask="url(#mask1_4_3)">
<path d="M23.6392 10.752V14.112L0 14.4V11.04L23.6392 10.752Z" fill="url(#paint1_linear_4_3)"/>
</g>
<mask id="mask2_4_3" style="mask-type:luminance" maskUnits="userSpaceOnUse" x="0" y="9" width="24" height="3">
<path d="M13.3861 10.08C12.5316 10.752 11.2025 10.752 10.3481 10.08C9.01899 9.024 7.40506 9.024 5.88608 10.08C5.60127 10.272 5.22152 10.464 5.03165 10.56C4.17722 10.752 3.51266 10.656 2.8481 10.08C2.18354 9.6 1.42405 9.31199 0.664557 9.31199C0.28481 9.31199 0.0949364 9.50399 0.0949364 9.79199C0.0949364 10.08 0.28481 10.368 0.56962 10.368C0.56962 10.368 0.664557 10.368 0.759493 10.368C1.23418 10.368 1.70886 10.56 2.18354 10.944C3.60759 12 5.22152 12 6.55063 10.944C7.5 10.176 8.73418 10.176 9.68355 10.944C10.3481 11.424 11.1076 11.712 11.8671 11.712C12.6266 11.712 13.3861 11.424 14.0506 10.944C15 10.176 16.3291 10.176 17.2785 10.944C17.943 11.424 18.6076 11.712 19.462 11.712C20.2215 11.712 20.8861 11.52 21.5506 11.04C22.1203 10.56 22.5949 10.368 23.1646 10.368C23.4494 10.368 23.5443 10.272 23.6392 10.176C23.7342 10.08 23.8291 9.984 23.7342 9.696C23.7342 9.408 23.4494 9.216 23.0696 9.216C22.3101 9.216 21.6456 9.504 20.981 9.984C20.1266 10.656 18.7975 10.656 17.943 9.984C17.2785 9.408 16.519 9.12 15.7595 9.12C14.9051 9.216 14.1456 9.504 13.3861 10.08Z" fill="white"/>
</mask>
<g mask="url(#mask2_4_3)">
<path d="M23.7342 8.64001V12L0.0949369 12.288L0 8.92801L23.7342 8.64001Z" fill="url(#paint2_linear_4_3)"/>
</g>
<mask id="mask3_4_3" style="mask-type:luminance" maskUnits="userSpaceOnUse" x="0" y="13" width="24" height="3">
<path d="M13.3861 14.304C12.4367 15.072 11.2975 15.072 10.3481 14.304C9.01899 13.248 7.21519 13.248 5.88608 14.304C4.93671 15.072 3.79747 15.072 2.8481 14.304H2.75316C2.46835 14.112 2.27848 13.92 1.99367 13.824C1.61392 13.728 1.13924 13.632 0.759493 13.536H0.664557C0.474683 13.536 0.379746 13.536 0.28481 13.632C0.189873 13.728 0.0949364 13.824 0.0949364 14.016C0.0949364 14.304 0.28481 14.592 0.56962 14.592C0.56962 14.592 0.56962 14.592 0.664557 14.592H0.759493C1.23418 14.592 1.70886 14.784 2.18354 15.168C3.51266 16.224 5.22152 16.224 6.4557 15.168C7.40506 14.4 8.73418 14.4 9.68355 15.168C10.3481 15.648 11.1076 15.936 11.8671 15.936C12.6266 15.936 13.3861 15.648 14.0506 15.168C15 14.4 16.3291 14.4 17.2785 15.168C17.8481 15.648 18.6076 15.936 19.3671 15.936C20.1266 15.936 20.8861 15.744 21.4557 15.264C22.0253 14.784 22.5 14.592 23.0696 14.592C23.2595 14.592 23.4494 14.496 23.5443 14.4C23.6392 14.304 23.7342 14.208 23.6392 14.016C23.6392 13.536 23.1646 13.536 22.9747 13.536C22.2152 13.536 21.5506 13.824 20.8861 14.304C19.9367 15.072 18.7975 15.072 17.8481 14.304C17.1835 13.728 16.4241 13.536 15.5696 13.536C14.8101 13.44 14.0506 13.728 13.3861 14.304Z" fill="white"/>
</mask>
<g mask="url(#mask3_4_3)">
<path d="M23.6392 12.864V16.224L2.6077e-07 16.512L-0.0949364 13.248L23.6392 12.864Z" fill="url(#paint3_linear_4_3)"/>
</g>
<mask id="mask4_4_3" style="mask-type:luminance" maskUnits="userSpaceOnUse" x="6" y="4" width="12" height="6">
<path d="M11.6772 4.224C11.5823 4.224 11.4873 4.224 11.4873 4.224C11.2975 4.224 10.9177 4.32 10.6329 4.32C8.73418 4.8 7.12025 6.528 6.74051 8.448C6.74051 8.64 6.74051 8.832 6.83544 8.928C6.93038 9.024 7.02532 9.12 7.21519 9.12C7.5 9.12 7.78481 8.928 7.87975 8.64V8.544V8.448C8.06962 7.392 8.73418 6.432 9.68354 5.856C10.6329 5.28 11.6772 5.088 12.7215 5.28C14.4304 5.664 15.4747 6.816 15.9494 8.544C15.9494 8.736 16.1392 8.928 16.3291 9.024C16.424 9.024 16.519 9.12 16.6139 9.12C16.7089 9.12 16.8038 9.12 16.8987 9.024C17.0886 8.832 17.1835 8.64 17.0886 8.256C16.424 5.952 14.3354 4.32 11.6772 4.224Z" fill="white"/>
</mask>
<g mask="url(#mask4_4_3)">
<path d="M17.0886 4.12805V9.31205L6.64557 9.40805L6.55063 4.22405L17.0886 4.12805Z" fill="url(#paint4_linear_4_3)"/>
</g>
<defs>
<linearGradient id="paint0_linear_4_3" x1="11.745" y1="-2.14179" x2="12.001" y2="17.8536" gradientUnits="userSpaceOnUse">
<stop stop-color="#EBC189"/>
<stop offset="0.2018" stop-color="#EBC189"/>
<stop offset="0.3178" stop-color="#CAA46B"/>
<stop offset="0.3823" stop-color="#BD995F"/>
<stop offset="0.5167" stop-color="#A4824B"/>
<stop offset="0.6138" stop-color="#977641"/>
<stop offset="0.6751" stop-color="#8F6B3B"/>
<stop offset="0.7712" stop-color="#855E33"/>
<stop offset="0.9528" stop-color="#755400"/>
<stop offset="1" stop-color="#755400"/>
</linearGradient>
<linearGradient id="paint1_linear_4_3" x1="11.6222" y1="-2.14069" x2="11.8782" y2="17.8547" gradientUnits="userSpaceOnUse">
<stop stop-color="#EBC189"/>
<stop offset="0.2018" stop-color="#EBC189"/>
<stop offset="0.3178" stop-color="#CAA46B"/>
<stop offset="0.3823" stop-color="#BD995F"/>
<stop offset="0.5167" stop-color="#A4824B"/>
<stop offset="0.6138" stop-color="#977641"/>
<stop offset="0.6751" stop-color="#8F6B3B"/>
<stop offset="0.7712" stop-color="#855E33"/>
<stop offset="0.9528" stop-color="#755400"/>
<stop offset="1" stop-color="#755400"/>
</linearGradient>
<linearGradient id="paint2_linear_4_3" x1="11.7066" y1="-2.14148" x2="11.9626" y2="17.8539" gradientUnits="userSpaceOnUse">
<stop stop-color="#EBC189"/>
<stop offset="0.2018" stop-color="#EBC189"/>
<stop offset="0.3178" stop-color="#CAA46B"/>
<stop offset="0.3823" stop-color="#BD995F"/>
<stop offset="0.5167" stop-color="#A4824B"/>
<stop offset="0.6138" stop-color="#977641"/>
<stop offset="0.6751" stop-color="#8F6B3B"/>
<stop offset="0.7712" stop-color="#855E33"/>
<stop offset="0.9528" stop-color="#755400"/>
<stop offset="1" stop-color="#755400"/>
</linearGradient>
<linearGradient id="paint3_linear_4_3" x1="11.5864" y1="-2.13954" x2="11.8424" y2="17.8558" gradientUnits="userSpaceOnUse">
<stop stop-color="#EBC189"/>
<stop offset="0.2018" stop-color="#EBC189"/>
<stop offset="0.3178" stop-color="#CAA46B"/>
<stop offset="0.3823" stop-color="#BD995F"/>
<stop offset="0.5167" stop-color="#A4824B"/>
<stop offset="0.6138" stop-color="#977641"/>
<stop offset="0.6751" stop-color="#8F6B3B"/>
<stop offset="0.7712" stop-color="#855E33"/>
<stop offset="0.9528" stop-color="#755400"/>
<stop offset="1" stop-color="#755400"/>
</linearGradient>
<linearGradient id="paint4_linear_4_3" x1="11.7326" y1="-2.14203" x2="11.9886" y2="17.8534" gradientUnits="userSpaceOnUse">
<stop stop-color="#EBC189"/>
<stop offset="0.2018" stop-color="#EBC189"/>
<stop offset="0.3178" stop-color="#CAA46B"/>
<stop offset="0.3823" stop-color="#BD995F"/>
<stop offset="0.5167" stop-color="#A4824B"/>
<stop offset="0.6138" stop-color="#977641"/>
<stop offset="0.6751" stop-color="#8F6B3B"/>
<stop offset="0.7712" stop-color="#855E33"/>
<stop offset="0.9528" stop-color="#755400"/>
<stop offset="1" stop-color="#755400"/>
</linearGradient>
</defs>
</svg>
