<svg width="30" height="24" viewBox="0 0 30 24" fill="none" xmlns="http://www.w3.org/2000/svg">
<mask id="mask0_4_4" style="mask-type:luminance" maskUnits="userSpaceOnUse" x="4" y="1" width="22" height="22">
<path d="M13.1013 4.70401C13.2911 4.51201 13.481 4.22401 13.5759 4.03201C13.7658 3.74401 13.9557 3.55201 14.1456 3.26401C14.3354 2.97601 14.5253 2.78401 14.7152 2.68801C14.9051 2.49601 15.0949 2.49601 15.2848 2.68801C15.5696 2.97601 15.7595 3.26401 16.0443 3.55201C16.2342 3.84001 16.519 4.22401 16.7089 4.51201C17.2785 5.47201 18.1329 5.76001 19.2722 5.47201C19.7468 5.37601 20.2215 5.28001 20.6962 5.18401L20.981 5.08801C21.0759 5.08801 21.1709 5.08801 21.2658 5.08801C21.6456 5.18401 21.7405 5.18401 21.7405 5.66401C21.7405 5.95201 21.6456 6.33601 21.6456 6.62401V6.81601C21.6456 7.00801 21.5506 7.20001 21.5506 7.39201C21.5506 7.68001 21.4557 7.87201 21.4557 8.16001C21.3608 8.92801 21.5506 9.50401 22.1203 9.98401C22.3101 10.176 22.5949 10.368 22.7848 10.464C22.8797 10.56 22.9747 10.656 23.1646 10.752C23.2595 10.848 23.3544 10.848 23.4494 10.944C23.6392 11.136 23.8291 11.232 24.019 11.424C24.2089 11.616 24.3987 11.808 24.3987 12C24.3987 12.192 24.3038 12.384 24.019 12.576C23.8291 12.768 23.6392 12.864 23.3544 13.056C23.2595 13.152 23.1646 13.152 23.1646 13.248L23.0696 13.344C22.8797 13.536 22.5949 13.632 22.4051 13.824C21.5506 14.4 21.2658 15.264 21.4557 16.32C21.5506 16.8 21.6456 17.376 21.7405 17.952C21.7405 18.144 21.7405 18.336 21.7405 18.528C21.7405 18.816 21.5506 18.912 21.3608 18.912C20.8861 18.912 20.5063 18.816 20.0316 18.72C19.9367 18.72 19.7468 18.72 19.6519 18.624C19.3671 18.624 19.1772 18.528 18.8924 18.528C18.7975 18.528 18.7025 18.528 18.5127 18.432C17.8481 18.432 17.3734 18.624 17.0886 19.008C16.8987 19.296 16.7089 19.584 16.519 19.872C16.424 19.968 16.3291 20.064 16.3291 20.16C16.2342 20.256 16.1392 20.352 16.1392 20.448C15.9494 20.64 15.8544 20.928 15.6646 21.12C15.4747 21.312 15.2848 21.504 15.0949 21.504C14.9051 21.504 14.7152 21.408 14.5253 21.216C14.3354 21.024 14.2405 20.832 14.0506 20.544C13.9557 20.448 13.8608 20.352 13.7658 20.16C13.6709 20.064 13.5759 19.968 13.5759 19.872C13.3861 19.584 13.1962 19.296 12.9114 19.008C12.6266 18.624 12.1519 18.432 11.6772 18.432C11.5823 18.432 11.4873 18.432 11.3924 18.432C11.0127 18.432 10.6329 18.528 10.3481 18.624C10.0633 18.624 9.87342 18.72 9.58861 18.72C9.3038 18.72 9.01899 18.816 8.73418 18.816C8.5443 18.816 8.44937 18.816 8.35443 18.72C8.25949 18.624 8.25949 18.528 8.25949 18.336C8.25949 17.952 8.35443 17.664 8.35443 17.28C8.35443 17.184 8.35443 17.088 8.35443 17.088C8.35443 16.896 8.44937 16.704 8.44937 16.512C8.44937 16.32 8.5443 16.032 8.5443 15.84C8.63924 15.072 8.35443 14.496 7.87975 14.016C7.68987 13.824 7.5 13.728 7.31013 13.536C7.21519 13.44 7.02532 13.344 6.93038 13.248C6.83544 13.152 6.7405 13.152 6.64557 13.056C6.36076 12.864 6.17088 12.672 5.88607 12.48C5.6962 12.288 5.60126 12.096 5.60126 12C5.60126 11.808 5.6962 11.712 5.88607 11.52C6.07595 11.328 6.36076 11.136 6.55063 10.944C6.64557 10.848 6.7405 10.848 6.83544 10.752C7.02531 10.656 7.21519 10.464 7.40506 10.368C7.5 10.272 7.68987 10.176 7.78481 10.08C8.35443 9.60001 8.63924 8.92801 8.5443 8.06401C8.44937 7.58401 8.35443 7.10401 8.35443 6.72001L8.16456 6.04801C8.16456 6.04801 8.16456 6.04801 8.16456 5.95201C8.16456 5.66401 8.16456 5.37601 8.25949 5.28001C8.35443 5.18401 8.63924 5.08801 8.92405 5.18401C9.3038 5.18401 9.68354 5.28001 10.0633 5.37601C10.2532 5.37601 10.538 5.47201 10.7278 5.47201C11.0127 5.47201 11.2975 5.56801 11.4873 5.56801H11.5823C12.1519 5.56801 12.7215 5.28001 13.1013 4.70401ZM15 1.53601C14.5253 1.53601 14.1456 1.72801 13.7658 2.20801C13.5759 2.49601 13.3861 2.68801 13.1962 2.97601C13.1013 3.07201 13.0063 3.26401 12.9114 3.36001C12.8165 3.45601 12.8165 3.55201 12.7215 3.64801C12.5316 3.84001 12.3418 4.03201 12.1519 4.32001C12.057 4.51201 11.8671 4.51201 11.6772 4.51201C11.3924 4.51201 11.1076 4.51201 10.7278 4.41601C10.538 4.41601 10.2532 4.32001 10.0633 4.32001C9.58861 4.22401 9.11392 4.22401 8.73418 4.12801C8.35443 4.12801 7.97468 4.22401 7.68987 4.51201C7.40506 4.80001 7.21519 5.18401 7.21519 5.56801C7.21519 5.95201 7.31013 6.43201 7.31013 6.81601C7.31013 6.91201 7.31013 7.10401 7.40506 7.20001C7.40506 7.39201 7.5 7.58401 7.5 7.77601C7.5 7.96801 7.59494 8.16001 7.59494 8.25601C7.68987 8.73601 7.5 9.12001 7.12025 9.40801C6.83544 9.60001 6.55063 9.79201 6.36076 9.98401C6.26582 10.08 6.17088 10.08 6.07595 10.176C5.79114 10.368 5.50633 10.56 5.31645 10.752C4.84177 11.136 4.6519 11.52 4.6519 12C4.6519 12.48 4.84177 12.864 5.31645 13.248C5.41139 13.44 5.6962 13.632 5.98101 13.824C6.07595 13.92 6.17088 14.016 6.26582 14.016C6.36076 14.112 6.45569 14.208 6.64557 14.304C6.83544 14.496 7.02532 14.592 7.21519 14.784C7.5 14.976 7.59494 15.36 7.59494 15.744C7.59494 15.936 7.5 16.032 7.5 16.224C7.5 16.416 7.40506 16.608 7.40506 16.8C7.40506 16.896 7.40506 16.992 7.40506 17.184C7.31013 17.568 7.31013 18.048 7.31013 18.432C7.31013 19.2 7.87975 19.776 8.63924 19.872C8.92405 19.872 9.20886 19.872 9.58861 19.872C9.96835 19.872 10.2532 19.776 10.6329 19.68C10.9177 19.68 11.2025 19.584 11.3924 19.584C11.7722 19.488 12.1519 19.68 12.3418 19.968C12.4367 20.064 12.5316 20.256 12.6266 20.352C12.7215 20.544 12.8165 20.64 13.0063 20.832C13.1013 20.928 13.1013 21.024 13.1962 21.12C13.3861 21.408 13.5759 21.696 13.8608 21.984C14.2405 22.368 14.6203 22.56 15.0949 22.56C15.5696 22.56 15.9494 22.368 16.3291 21.984C16.6139 21.696 16.8038 21.408 16.9937 21.12C17.0886 21.024 17.0886 20.928 17.1835 20.832C17.3734 20.64 17.4684 20.352 17.6582 20.16L17.7532 20.064C18.038 19.584 18.4177 19.392 18.9873 19.584C19.462 19.68 19.9367 19.776 20.4114 19.872C20.6013 19.872 20.7911 19.968 21.0759 19.968H21.2658V19.872C22.1203 19.872 22.6899 19.488 22.8797 18.72C22.8797 18.432 22.9747 18.24 22.8797 18.048V17.856C22.7848 17.28 22.6899 16.704 22.5949 16.224C22.4051 15.36 22.5949 14.88 23.3544 14.496C23.6392 14.304 24.019 14.112 24.3038 13.824C24.5886 13.632 24.9684 13.344 25.2532 13.056C25.7278 12.48 25.8228 11.712 25.2532 11.136C24.9684 10.848 24.6835 10.56 24.3987 10.368C24.1139 10.176 23.8291 9.98401 23.5443 9.79201C23.4494 9.69601 23.2595 9.60001 23.1646 9.50401C22.6899 9.21601 22.5949 8.73601 22.6899 8.16001C22.7848 7.48801 22.9747 6.72001 23.0696 5.95201C23.1646 5.47201 22.9747 4.99201 22.6899 4.70401C22.4051 4.41601 22.0253 4.22401 21.4557 4.22401C21.1709 4.22401 20.8861 4.22401 20.6013 4.32001C20.3165 4.32001 20.0316 4.41601 19.8418 4.41601C19.462 4.51201 19.0823 4.51201 18.7025 4.60801C18.5127 4.60801 18.3228 4.51201 18.1329 4.32001C17.943 4.12801 17.8481 3.84001 17.6582 3.64801C17.5633 3.55201 17.4684 3.36001 17.3734 3.26401C17.2785 3.16801 17.1835 3.07201 17.1835 2.97601C16.9937 2.68801 16.8038 2.40001 16.6139 2.20801C15.8544 1.72801 15.3797 1.53601 15 1.53601Z" fill="white"/>
</mask>
<g mask="url(#mask0_4_4)">
<path d="M25.538 1.53601H4.55696V22.56H25.538V1.53601Z" fill="url(#paint0_linear_4_4)"/>
</g>
<mask id="mask1_4_4" style="mask-type:luminance" maskUnits="userSpaceOnUse" x="9" y="6" width="12" height="12">
<path d="M11.6772 15.456C10.7278 14.592 10.2532 13.344 10.2532 12.096C10.2532 10.752 10.7278 9.59999 11.6772 8.63999C12.5316 7.77599 13.7658 7.19999 15.0949 7.19999C17.7532 7.19999 19.8418 9.31199 19.8418 12C19.8418 13.248 19.3671 14.496 18.4177 15.36C17.5633 16.224 16.3291 16.8 15 16.8C13.6709 16.8 12.5316 16.32 11.6772 15.456ZM15 6.23999C11.8671 6.23999 9.30379 8.83199 9.30379 12.096C9.30379 15.264 11.8671 17.856 15 17.856C16.519 17.856 17.943 17.28 19.0823 16.128C20.1266 15.072 20.7911 13.536 20.7911 12C20.7911 10.464 20.2215 9.02399 19.0823 7.87199C17.943 6.81599 16.519 6.23999 15 6.23999Z" fill="white"/>
</mask>
<g mask="url(#mask1_4_4)">
<path d="M20.6962 6.23999H9.20886V17.856H20.6962V6.23999Z" fill="url(#paint1_linear_4_4)"/>
</g>
<defs>
<linearGradient id="paint0_linear_4_4" x1="15.0447" y1="0.193728" x2="15.0447" y2="22.2041" gradientUnits="userSpaceOnUse">
<stop stop-color="#EBC189"/>
<stop offset="0.2018" stop-color="#EBC189"/>
<stop offset="0.3178" stop-color="#CAA46B"/>
<stop offset="0.3823" stop-color="#BD995F"/>
<stop offset="0.5167" stop-color="#A4824B"/>
<stop offset="0.6138" stop-color="#977641"/>
<stop offset="0.6751" stop-color="#8F6B3B"/>
<stop offset="0.7712" stop-color="#855E33"/>
<stop offset="0.9528" stop-color="#755400"/>
<stop offset="1" stop-color="#755400"/>
</linearGradient>
<linearGradient id="paint1_linear_4_4" x1="14.9796" y1="0.195907" x2="14.9796" y2="22.2063" gradientUnits="userSpaceOnUse">
<stop stop-color="#EBC189"/>
<stop offset="0.2018" stop-color="#EBC189"/>
<stop offset="0.3178" stop-color="#CAA46B"/>
<stop offset="0.3823" stop-color="#BD995F"/>
<stop offset="0.5167" stop-color="#A4824B"/>
<stop offset="0.6138" stop-color="#977641"/>
<stop offset="0.6751" stop-color="#8F6B3B"/>
<stop offset="0.7712" stop-color="#855E33"/>
<stop offset="0.9528" stop-color="#755400"/>
<stop offset="1" stop-color="#755400"/>
</linearGradient>
</defs>
</svg>
