<svg width="21" height="21" viewBox="0 0 21 21" fill="none" xmlns="http://www.w3.org/2000/svg">
<mask id="mask0_1_262" style="mask-type:luminance" maskUnits="userSpaceOnUse" x="0" y="0" width="21" height="21">
<path d="M4.51037 17.568C2.70658 16.128 1.4724 14.016 1.09265 11.616C0.238222 6.624 3.2762 2.688 6.69392 1.344C5.93442 3.36 5.64961 5.28 6.02936 7.104C6.40911 9.024 7.45341 10.848 9.16227 12.384C10.9661 13.92 12.8648 14.784 15.0483 14.784C16.3775 14.784 17.7066 14.496 19.1306 13.92C18.4661 15.456 17.5167 16.704 16.1876 17.76C14.7635 18.912 13.1496 19.488 11.3458 19.68C11.061 19.68 10.7762 19.68 10.4914 19.68C8.21291 19.584 6.21923 18.912 4.51037 17.568ZM7.35848 0C2.32683 1.536 -0.711145 6.528 0.143285 11.808C0.523032 14.304 1.75721 16.512 3.65594 18.144C5.55468 19.776 7.9281 20.64 10.3965 20.64H10.6813C10.8711 20.64 11.1559 20.64 11.3458 20.64C11.4408 20.64 11.5357 20.64 11.6306 20.64H11.7256C14.8585 20.256 17.3268 18.72 19.1306 16.128C19.7002 15.264 20.1749 14.208 20.4597 13.152C20.4597 12.96 20.4597 12.672 20.2699 12.576C20.1749 12.48 19.9851 12.48 19.8901 12.48H19.7952C19.7002 12.48 19.7002 12.576 19.6053 12.576C16.6623 14.304 13.0547 14.112 10.3965 12.192C7.35848 9.888 6.1243 5.856 7.45341 2.304C7.54835 1.824 7.73822 1.44 7.9281 1.152C8.02303 1.056 8.02303 0.864 8.11797 0.768C8.21291 0.672 8.30784 0.384 8.02303 0.096C7.9281 2.14577e-08 7.73822 0 7.64329 0H7.54835C7.45341 0 7.45341 0 7.35848 0Z" fill="white"/>
</mask>
<g mask="url(#mask0_1_262)">
<path d="M20.5547 0.000105411L20.3648 20.8321L-0.901018 20.6401L-0.711144 -0.191895L20.5547 0.000105411Z" fill="url(#paint0_linear_1_262)"/>
</g>
<defs>
<linearGradient id="paint0_linear_1_262" x1="9.93443" y1="1.90969" x2="9.7096" y2="26.3656" gradientUnits="userSpaceOnUse">
<stop stop-color="#EBC189"/>
<stop offset="0.2018" stop-color="#EBC189"/>
<stop offset="0.3178" stop-color="#CAA46B"/>
<stop offset="0.3823" stop-color="#BD995F"/>
<stop offset="0.5167" stop-color="#A4824B"/>
<stop offset="0.6138" stop-color="#977641"/>
<stop offset="0.6751" stop-color="#8F6B3B"/>
<stop offset="0.7712" stop-color="#855E33"/>
<stop offset="0.9528" stop-color="#755400"/>
<stop offset="1" stop-color="#755400"/>
</linearGradient>
</defs>
</svg>
