<svg width="43" height="43" viewBox="0 0 43 43" fill="none" xmlns="http://www.w3.org/2000/svg">
<path d="M32.4113 33.2841C31.6523 31.6521 31.6143 30.0202 32.3733 28.3882C32.4872 28.0846 32.5631 27.819 32.5252 27.5153C32.4492 25.5418 32.3733 23.5303 32.2974 21.5568C32.1836 18.6724 32.0697 15.7881 31.9559 12.9037C31.88 10.9681 31.8041 9.0705 31.7282 7.13493C31.7282 6.83131 31.6523 6.7554 31.3486 6.7554C29.9064 6.7554 28.5022 6.71745 27.06 6.71745C22.8473 6.6795 18.5966 6.60359 14.3839 6.56564C13.8147 6.56564 13.2074 6.52769 12.6381 6.64155C11.3098 6.90721 10.3989 8.08374 10.3989 9.45002C10.3989 11.4615 10.3989 13.435 10.3989 15.4465C10.3989 20.5321 10.3989 25.6177 10.3989 30.7033C10.3989 32.1455 11.3477 33.3979 12.752 33.7016C13.2833 33.8154 13.8906 33.7775 14.4598 33.8154C14.8394 33.8154 15.2189 33.8154 15.5984 33.8154V34.119C15.5984 34.7642 15.5984 35.4094 15.5984 36.0926C15.5984 36.4341 15.7502 36.51 16.0538 36.3582C16.4713 36.1305 16.8508 35.9408 17.2683 35.6751C17.4201 35.5612 17.5719 35.5992 17.7237 35.6751C18.0653 35.8649 18.4448 36.0546 18.7864 36.2444C19.2798 36.51 19.3936 36.4721 19.3936 35.9028V33.8154H19.7732C23.872 33.8154 27.9709 33.8154 32.0318 33.8154C32.1077 33.8154 32.2215 33.8154 32.2974 33.8154C32.4872 33.7775 32.5252 33.7016 32.4872 33.5118C32.5252 33.3979 32.4493 33.36 32.4113 33.2841ZM31.2727 7.24879C31.5384 14.0802 31.8041 20.8737 32.0697 27.7051H14.8014C14.7255 20.8357 14.6876 13.9663 14.6117 7.05902C20.1906 7.09698 25.7317 7.17288 31.2727 7.24879ZM10.8923 28.8437C10.8923 22.3918 10.8923 15.9399 10.8923 9.48797C10.8923 8.3494 11.6134 7.36264 12.714 7.13493C13.1695 7.02107 13.6628 7.05902 14.1562 7.02107C14.2321 13.9663 14.2701 20.7978 14.346 27.743C12.9797 27.6292 11.7652 27.8949 10.8923 29.1473V28.8437ZM18.9382 35.7889C18.6346 35.5992 18.293 35.4853 18.0274 35.2956C17.6478 35.0299 17.3442 35.0299 16.9647 35.2956C16.699 35.4853 16.3954 35.5992 16.0918 35.7889V31.0069H18.9003V35.7889H18.9382ZM13.6249 30.5136C13.511 30.5136 13.3972 30.5136 13.3213 30.5515C13.2454 30.5895 13.1695 30.7033 13.1695 30.7792C13.1695 30.8551 13.2454 30.931 13.3213 30.969C13.3592 31.007 13.4731 30.969 13.549 30.969C14.2321 30.969 14.9153 30.969 15.5984 30.969V31.9178C15.1809 31.9178 14.7635 31.9178 14.308 31.9178C14.2321 31.9178 14.1562 31.9178 14.0424 31.9178C13.8906 31.9178 13.7767 31.9558 13.7767 32.1455C13.7767 32.3353 13.8906 32.3732 14.0424 32.3732C14.4978 32.3732 14.9532 32.3732 15.4086 32.3732C15.4466 32.3732 15.5225 32.3732 15.5605 32.3732V33.2841L15.5225 33.322C14.6876 33.322 13.8526 33.3979 13.0177 33.2841C11.12 33.0564 10.2092 30.7792 11.3477 29.2611C11.917 28.5021 12.6761 28.1605 13.5869 28.1605C17.3063 28.1605 21.0635 28.1605 24.7829 28.1605H31.6143H31.9179C31.8041 28.5021 31.6902 28.8057 31.5763 29.1093H31.2727C26.1112 29.1093 20.9497 29.1093 15.8261 29.1093C15.6364 29.1093 15.3707 29.0714 15.3707 29.337C15.3707 29.6407 15.6364 29.5648 15.8261 29.5648C20.9497 29.5648 26.0353 29.5648 31.1589 29.5648H31.5004C31.4625 29.9063 31.4245 30.21 31.3866 30.5136H31.045C25.2383 30.5136 19.4316 30.5136 13.6249 30.5136ZM31.5004 31.9178H19.4316V31.0069H31.3866C31.4245 31.3106 31.4625 31.5762 31.5004 31.9178ZM19.4316 33.322V32.4112H31.6143C31.7282 32.7148 31.842 33.0184 31.9559 33.322H19.4316Z" fill="#BD995F"/>
<path d="M17.2304 26.3767C19.2418 26.3767 21.2913 26.3767 23.3027 26.3767C25.3522 26.3767 27.4016 26.3767 29.451 26.3767C29.7546 26.3767 29.8305 26.3007 29.8305 26.073C29.8305 25.276 29.7926 24.517 29.7926 23.72C29.7926 23.4543 29.6787 23.3784 29.4131 23.3784C25.3142 23.3784 21.2533 23.3784 17.1545 23.3784C16.8508 23.3784 16.8129 23.4164 16.8129 23.72C16.8129 24.4411 16.8129 25.2001 16.8129 25.9212C16.8129 26.3387 16.8508 26.3767 17.2304 26.3767Z" fill="#BD995F"/>
<path d="M28.1606 16.0538C27.9709 15.3327 27.5154 14.7255 26.7564 14.1562C26.1112 13.6628 25.4281 13.2453 24.7829 12.8279C24.3274 12.5242 23.9859 12.1827 23.7582 11.7652C23.6823 11.6134 23.6064 11.4995 23.5304 11.3477C23.9859 11.2718 24.3274 11.0441 24.5931 10.6646C24.707 10.5128 24.7449 10.3609 24.8208 10.2091C24.8588 10.1332 24.8208 10.0194 24.7449 9.98143C24.669 9.94347 24.5931 9.94347 24.5552 9.94347H24.5172L24.4793 9.98143C24.1377 10.2091 23.6823 10.1712 23.3407 9.94347C22.9612 9.67781 22.8094 9.18443 22.9991 8.76695C22.9991 8.729 23.0371 8.69105 23.075 8.65309L23.113 8.61514C23.1889 8.46333 23.075 8.34948 23.075 8.34948C23.0371 8.31152 22.9612 8.31152 22.9612 8.31152H22.8473C22.0883 8.53924 21.5949 9.29828 21.7087 10.0953C21.7846 10.4748 21.9744 10.8164 22.2401 11.0441C22.3919 11.1579 22.5437 11.2339 22.6955 11.3098C22.3539 12.0309 21.8985 12.5622 21.2913 12.9417C20.8738 13.1694 20.4943 13.4351 20.1147 13.7008L20.0009 13.7767C19.4316 14.0423 18.9762 14.4218 18.5966 14.8393C17.534 16.0158 17.496 18.0273 18.4828 19.1279C18.7105 19.3936 18.9762 19.6593 19.2418 19.9249L19.3177 20.0008C19.4316 20.1147 19.6214 20.1527 19.7352 20.1527C20.7979 20.1527 21.8985 20.1527 22.9612 20.1527C24.0618 20.1527 25.2004 20.1527 26.301 20.1527C26.4528 20.1527 26.6425 20.0767 26.7184 20.0008L26.8323 19.887C27.06 19.6593 27.2877 19.4316 27.5154 19.2038C28.2745 18.293 28.4643 17.2683 28.1606 16.0538ZM22.4678 8.91876C22.4298 9.07057 22.4298 9.26033 22.4678 9.41214C22.5437 9.71576 22.6955 9.98143 22.9612 10.2091C23.3027 10.5128 23.6823 10.6266 24.0997 10.5507C24.0618 10.5887 23.9859 10.6646 23.9479 10.7025C23.7582 10.8543 23.5684 10.9302 23.3407 10.9302C23.0371 10.9682 22.7334 10.8543 22.5057 10.7025C22.278 10.5128 22.1262 10.2471 22.0883 9.98143C22.0124 9.526 22.1642 9.14648 22.4678 8.91876ZM27.098 18.7864C26.9082 19.0141 26.6805 19.2038 26.4528 19.4316L26.3389 19.5454C24.1377 19.5454 21.9364 19.5454 19.7732 19.5454L19.6973 19.4695C19.4316 19.2418 19.2039 18.9761 18.9762 18.7105C18.1792 17.7996 18.2171 16.1677 19.09 15.2188C19.4316 14.8393 19.8491 14.4978 20.3045 14.1941L20.4184 14.1182C20.7979 13.8526 21.1774 13.6249 21.5569 13.3971C22.2021 13.0176 22.6955 12.4863 23.075 11.8031C23.113 11.879 23.1889 11.9929 23.2268 12.0688C23.5304 12.5622 23.91 12.9797 24.4793 13.3212C25.1244 13.7387 25.8076 14.1562 26.4148 14.6496C27.0221 15.105 27.4395 15.6363 27.5913 16.2056C27.8191 17.2303 27.6673 18.0653 27.098 18.7864Z" fill="#BD995F"/>
<path d="M25.9215 20.4563H20.1527C19.8111 20.4563 19.5075 20.7599 19.5075 21.1015V21.4431C19.5075 21.7846 19.8111 22.0882 20.1527 22.0882H25.9215C26.263 22.0882 26.5666 21.7846 26.5666 21.4431V21.1015C26.5666 20.7599 26.263 20.4563 25.9215 20.4563ZM25.9594 21.4431H20.1147L20.1527 21.0635L25.9215 21.1015V21.4431H25.9594Z" fill="#BD995F"/>
</svg>
