<svg width="331" height="142" viewBox="0 0 331 142" fill="none" xmlns="http://www.w3.org/2000/svg">
<rect width="331" height="142" rx="12" fill="url(#paint0_linear_173_2)"/>
<path d="M23.7422 25.2578H25.8906C25.8333 26.0182 25.6224 26.6927 25.2578 27.2812C24.8932 27.8646 24.3854 28.3229 23.7344 28.6562C23.0833 28.9896 22.2943 29.1562 21.3672 29.1562C20.6536 29.1562 20.0104 29.0312 19.4375 28.7812C18.8698 28.526 18.3828 28.1641 17.9766 27.6953C17.5755 27.2214 17.2682 26.6536 17.0547 25.9922C16.8411 25.3255 16.7344 24.5781 16.7344 23.75V22.8828C16.7344 22.0547 16.8438 21.3073 17.0625 20.6406C17.2812 19.974 17.5938 19.4062 18 18.9375C18.4115 18.4635 18.9036 18.099 19.4766 17.8438C20.0547 17.5885 20.7005 17.4609 21.4141 17.4609C22.3411 17.4609 23.125 17.6328 23.7656 17.9766C24.4062 18.3151 24.9036 18.7812 25.2578 19.375C25.612 19.9688 25.8255 20.651 25.8984 21.4219H23.75C23.7083 20.9427 23.6042 20.5365 23.4375 20.2031C23.276 19.8698 23.0312 19.6172 22.7031 19.4453C22.3802 19.2682 21.9505 19.1797 21.4141 19.1797C20.9974 19.1797 20.6302 19.2578 20.3125 19.4141C20 19.5703 19.7396 19.8047 19.5312 20.1172C19.3229 20.4245 19.1667 20.8099 19.0625 21.2734C18.9583 21.7318 18.9062 22.263 18.9062 22.8672V23.75C18.9062 24.3281 18.9531 24.8464 19.0469 25.3047C19.1406 25.763 19.2865 26.151 19.4844 26.4688C19.6823 26.7865 19.9375 27.0286 20.25 27.1953C20.5625 27.362 20.9349 27.4453 21.3672 27.4453C21.8932 27.4453 22.3203 27.362 22.6484 27.1953C22.9818 27.0286 23.2344 26.7839 23.4062 26.4609C23.5833 26.138 23.6953 25.737 23.7422 25.2578ZM29.4609 22.2734V29H27.3984V20.5469H29.3516L29.4609 22.2734ZM32.0312 20.4922L32 22.4141C31.8854 22.3932 31.7552 22.3776 31.6094 22.3672C31.4688 22.3568 31.3359 22.3516 31.2109 22.3516C30.8932 22.3516 30.6146 22.3958 30.375 22.4844C30.1354 22.5677 29.9349 22.6901 29.7734 22.8516C29.6172 23.013 29.4974 23.2109 29.4141 23.4453C29.3307 23.6745 29.2839 23.9349 29.2734 24.2266L28.8281 24.1719C28.8281 23.6354 28.8828 23.138 28.9922 22.6797C29.1016 22.2214 29.2604 21.8203 29.4688 21.4766C29.6771 21.1328 29.9375 20.8672 30.25 20.6797C30.5677 20.487 30.9323 20.3906 31.3438 20.3906C31.4583 20.3906 31.5807 20.401 31.7109 20.4219C31.8464 20.4375 31.9531 20.4609 32.0312 20.4922ZM36.8047 29.1562C36.1641 29.1562 35.5885 29.0521 35.0781 28.8438C34.5677 28.6354 34.1328 28.3464 33.7734 27.9766C33.4193 27.6016 33.1458 27.1667 32.9531 26.6719C32.7656 26.1719 32.6719 25.6354 32.6719 25.0625V24.75C32.6719 24.099 32.7656 23.5078 32.9531 22.9766C33.1406 22.4401 33.4062 21.9792 33.75 21.5938C34.0938 21.2083 34.5052 20.9115 34.9844 20.7031C35.4635 20.4948 35.9922 20.3906 36.5703 20.3906C37.1693 20.3906 37.6979 20.4922 38.1562 20.6953C38.6146 20.8932 38.9974 21.1745 39.3047 21.5391C39.612 21.9036 39.8438 22.3411 40 22.8516C40.1562 23.3568 40.2344 23.9167 40.2344 24.5312V25.3984H33.6094V23.9766H38.2031V23.8203C38.1927 23.4922 38.1302 23.1927 38.0156 22.9219C37.901 22.6458 37.724 22.4271 37.4844 22.2656C37.2448 22.099 36.9349 22.0156 36.5547 22.0156C36.2474 22.0156 35.9792 22.0833 35.75 22.2188C35.526 22.349 35.3385 22.5365 35.1875 22.7812C35.0417 23.0208 34.9323 23.3073 34.8594 23.6406C34.7865 23.974 34.75 24.3438 34.75 24.75V25.0625C34.75 25.4167 34.7969 25.7448 34.8906 26.0469C34.9896 26.349 35.1328 26.612 35.3203 26.8359C35.513 27.0547 35.7422 27.2266 36.0078 27.3516C36.2786 27.4714 36.5859 27.5312 36.9297 27.5312C37.362 27.5312 37.7526 27.4479 38.1016 27.2812C38.4557 27.1094 38.763 26.8568 39.0234 26.5234L40.0625 27.6016C39.8854 27.862 39.6458 28.112 39.3438 28.3516C39.0469 28.5911 38.6875 28.7865 38.2656 28.9375C37.8438 29.0833 37.3568 29.1562 36.8047 29.1562ZM46.6875 27.2031V17H48.7656V29H46.8906L46.6875 27.2031ZM41.2578 24.875V24.7109C41.2578 24.0651 41.3307 23.4792 41.4766 22.9531C41.6276 22.4219 41.8464 21.9661 42.1328 21.5859C42.4193 21.2057 42.7656 20.9115 43.1719 20.7031C43.5833 20.4948 44.0495 20.3906 44.5703 20.3906C45.0755 20.3906 45.5156 20.4922 45.8906 20.6953C46.2708 20.8984 46.5938 21.1875 46.8594 21.5625C47.1302 21.9375 47.3464 22.3828 47.5078 22.8984C47.6693 23.4089 47.7865 23.9714 47.8594 24.5859V25.0312C47.7865 25.6302 47.6693 26.1797 47.5078 26.6797C47.3464 27.1797 47.1302 27.6172 46.8594 27.9922C46.5938 28.362 46.2708 28.6484 45.8906 28.8516C45.5104 29.0547 45.0651 29.1562 44.5547 29.1562C44.0391 29.1562 43.5755 29.0495 43.1641 28.8359C42.7578 28.6224 42.4115 28.3229 42.125 27.9375C41.8438 27.5521 41.6276 27.099 41.4766 26.5781C41.3307 26.0573 41.2578 25.4896 41.2578 24.875ZM43.3281 24.7109V24.875C43.3281 25.2396 43.3594 25.5807 43.4219 25.8984C43.4844 26.2161 43.5859 26.4974 43.7266 26.7422C43.8672 26.9818 44.0469 27.1693 44.2656 27.3047C44.4896 27.4401 44.7604 27.5078 45.0781 27.5078C45.4844 27.5078 45.8177 27.4193 46.0781 27.2422C46.3438 27.0599 46.5495 26.8125 46.6953 26.5C46.8411 26.1823 46.9349 25.8255 46.9766 25.4297V24.2031C46.9557 23.8906 46.901 23.6016 46.8125 23.3359C46.7292 23.0703 46.6094 22.8411 46.4531 22.6484C46.3021 22.4557 46.1146 22.3047 45.8906 22.1953C45.6667 22.0859 45.401 22.0312 45.0938 22.0312C44.776 22.0312 44.5052 22.1016 44.2812 22.2422C44.0573 22.3776 43.875 22.5677 43.7344 22.8125C43.5938 23.0573 43.4896 23.3411 43.4219 23.6641C43.3594 23.987 43.3281 24.3359 43.3281 24.7109ZM52.8203 20.5469V29H50.75V20.5469H52.8203ZM50.6094 18.3359C50.6094 18.0286 50.7135 17.7734 50.9219 17.5703C51.1354 17.3672 51.4219 17.2656 51.7812 17.2656C52.1406 17.2656 52.4245 17.3672 52.6328 17.5703C52.8464 17.7734 52.9531 18.0286 52.9531 18.3359C52.9531 18.638 52.8464 18.8906 52.6328 19.0938C52.4245 19.2969 52.1406 19.3984 51.7812 19.3984C51.4219 19.3984 51.1354 19.2969 50.9219 19.0938C50.7135 18.8906 50.6094 18.638 50.6094 18.3359ZM58.7891 20.5469V22.0312H53.9453V20.5469H58.7891ZM55.2422 18.4688H57.3125V26.5625C57.3125 26.8125 57.3464 27.0052 57.4141 27.1406C57.4818 27.276 57.5833 27.3672 57.7188 27.4141C57.8542 27.4609 58.0156 27.4844 58.2031 27.4844C58.3385 27.4844 58.4635 27.4766 58.5781 27.4609C58.6927 27.4453 58.7891 27.4297 58.8672 27.4141L58.875 28.9609C58.7031 29.0182 58.5078 29.0651 58.2891 29.1016C58.0755 29.138 57.8333 29.1562 57.5625 29.1562C57.099 29.1562 56.6927 29.0781 56.3438 28.9219C55.9948 28.7604 55.724 28.5026 55.5312 28.1484C55.3385 27.7891 55.2422 27.3151 55.2422 26.7266V18.4688ZM70.9609 25.2578H73.1094C73.0521 26.0182 72.8411 26.6927 72.4766 27.2812C72.112 27.8646 71.6042 28.3229 70.9531 28.6562C70.3021 28.9896 69.513 29.1562 68.5859 29.1562C67.8724 29.1562 67.2292 29.0312 66.6562 28.7812C66.0885 28.526 65.6016 28.1641 65.1953 27.6953C64.7943 27.2214 64.487 26.6536 64.2734 25.9922C64.0599 25.3255 63.9531 24.5781 63.9531 23.75V22.8828C63.9531 22.0547 64.0625 21.3073 64.2812 20.6406C64.5 19.974 64.8125 19.4062 65.2188 18.9375C65.6302 18.4635 66.1224 18.099 66.6953 17.8438C67.2734 17.5885 67.9193 17.4609 68.6328 17.4609C69.5599 17.4609 70.3438 17.6328 70.9844 17.9766C71.625 18.3151 72.1224 18.7812 72.4766 19.375C72.8307 19.9688 73.0443 20.651 73.1172 21.4219H70.9688C70.9271 20.9427 70.8229 20.5365 70.6562 20.2031C70.4948 19.8698 70.25 19.6172 69.9219 19.4453C69.599 19.2682 69.1693 19.1797 68.6328 19.1797C68.2161 19.1797 67.849 19.2578 67.5312 19.4141C67.2188 19.5703 66.9583 19.8047 66.75 20.1172C66.5417 20.4245 66.3854 20.8099 66.2812 21.2734C66.1771 21.7318 66.125 22.263 66.125 22.8672V23.75C66.125 24.3281 66.1719 24.8464 66.2656 25.3047C66.3594 25.763 66.5052 26.151 66.7031 26.4688C66.901 26.7865 67.1562 27.0286 67.4688 27.1953C67.7812 27.362 68.1536 27.4453 68.5859 27.4453C69.112 27.4453 69.5391 27.362 69.8672 27.1953C70.2005 27.0286 70.4531 26.7839 70.625 26.4609C70.8021 26.138 70.9141 25.737 70.9609 25.2578ZM79.2734 27.2031V23.3047C79.2734 23.0182 79.224 22.7708 79.125 22.5625C79.026 22.3542 78.875 22.1927 78.6719 22.0781C78.4688 21.9635 78.2109 21.9062 77.8984 21.9062C77.6224 21.9062 77.3802 21.9531 77.1719 22.0469C76.9688 22.1406 76.8125 22.2734 76.7031 22.4453C76.5938 22.612 76.5391 22.8047 76.5391 23.0234H74.4688C74.4688 22.6745 74.5521 22.3438 74.7188 22.0312C74.8854 21.7135 75.1224 21.4323 75.4297 21.1875C75.7422 20.9375 76.1146 20.7422 76.5469 20.6016C76.9844 20.4609 77.474 20.3906 78.0156 20.3906C78.6562 20.3906 79.2266 20.5 79.7266 20.7188C80.2318 20.9323 80.6276 21.2552 80.9141 21.6875C81.2057 22.1198 81.3516 22.6641 81.3516 23.3203V27.0078C81.3516 27.4297 81.3776 27.7917 81.4297 28.0938C81.487 28.3906 81.5703 28.6484 81.6797 28.8672V29H79.5781C79.4792 28.7865 79.4036 28.5156 79.3516 28.1875C79.2995 27.8542 79.2734 27.526 79.2734 27.2031ZM79.5625 23.8516L79.5781 25.0781H78.2734C77.9505 25.0781 77.6667 25.112 77.4219 25.1797C77.1771 25.2422 76.9766 25.3359 76.8203 25.4609C76.6641 25.5807 76.5469 25.7266 76.4688 25.8984C76.3906 26.0651 76.3516 26.2552 76.3516 26.4688C76.3516 26.6771 76.3984 26.8646 76.4922 27.0312C76.5911 27.1979 76.7318 27.3307 76.9141 27.4297C77.1016 27.5234 77.3203 27.5703 77.5703 27.5703C77.9349 27.5703 78.2526 27.4974 78.5234 27.3516C78.7943 27.2005 79.0052 27.0182 79.1562 26.8047C79.3073 26.5911 79.388 26.388 79.3984 26.1953L79.9922 27.0859C79.9193 27.2995 79.8099 27.526 79.6641 27.7656C79.5182 28.0052 79.3307 28.2292 79.1016 28.4375C78.8724 28.6458 78.5964 28.8177 78.2734 28.9531C77.9505 29.0885 77.5755 29.1562 77.1484 29.1562C76.6016 29.1562 76.112 29.0469 75.6797 28.8281C75.2474 28.6094 74.9062 28.3099 74.6562 27.9297C74.4062 27.5495 74.2812 27.1172 74.2812 26.6328C74.2812 26.1849 74.3646 25.7891 74.5312 25.4453C74.6979 25.1016 74.9453 24.8125 75.2734 24.5781C75.6016 24.3385 76.0078 24.1589 76.4922 24.0391C76.9818 23.9141 77.5417 23.8516 78.1719 23.8516H79.5625ZM85.2734 22.2734V29H83.2109V20.5469H85.1641L85.2734 22.2734ZM87.8438 20.4922L87.8125 22.4141C87.6979 22.3932 87.5677 22.3776 87.4219 22.3672C87.2812 22.3568 87.1484 22.3516 87.0234 22.3516C86.7057 22.3516 86.4271 22.3958 86.1875 22.4844C85.9479 22.5677 85.7474 22.6901 85.5859 22.8516C85.4297 23.013 85.3099 23.2109 85.2266 23.4453C85.1432 23.6745 85.0964 23.9349 85.0859 24.2266L84.6406 24.1719C84.6406 23.6354 84.6953 23.138 84.8047 22.6797C84.9141 22.2214 85.0729 21.8203 85.2812 21.4766C85.4896 21.1328 85.75 20.8672 86.0625 20.6797C86.3802 20.487 86.7448 20.3906 87.1562 20.3906C87.2708 20.3906 87.3932 20.401 87.5234 20.4219C87.6589 20.4375 87.7656 20.4609 87.8438 20.4922ZM93.8906 27.2031V17H95.9688V29H94.0938L93.8906 27.2031ZM88.4609 24.875V24.7109C88.4609 24.0651 88.5339 23.4792 88.6797 22.9531C88.8307 22.4219 89.0495 21.9661 89.3359 21.5859C89.6224 21.2057 89.9688 20.9115 90.375 20.7031C90.7865 20.4948 91.2526 20.3906 91.7734 20.3906C92.2786 20.3906 92.7188 20.4922 93.0938 20.6953C93.474 20.8984 93.7969 21.1875 94.0625 21.5625C94.3333 21.9375 94.5495 22.3828 94.7109 22.8984C94.8724 23.4089 94.9896 23.9714 95.0625 24.5859V25.0312C94.9896 25.6302 94.8724 26.1797 94.7109 26.6797C94.5495 27.1797 94.3333 27.6172 94.0625 27.9922C93.7969 28.362 93.474 28.6484 93.0938 28.8516C92.7135 29.0547 92.2682 29.1562 91.7578 29.1562C91.2422 29.1562 90.7786 29.0495 90.3672 28.8359C89.9609 28.6224 89.6146 28.3229 89.3281 27.9375C89.0469 27.5521 88.8307 27.099 88.6797 26.5781C88.5339 26.0573 88.4609 25.4896 88.4609 24.875ZM90.5312 24.7109V24.875C90.5312 25.2396 90.5625 25.5807 90.625 25.8984C90.6875 26.2161 90.7891 26.4974 90.9297 26.7422C91.0703 26.9818 91.25 27.1693 91.4688 27.3047C91.6927 27.4401 91.9635 27.5078 92.2812 27.5078C92.6875 27.5078 93.0208 27.4193 93.2812 27.2422C93.5469 27.0599 93.7526 26.8125 93.8984 26.5C94.0443 26.1823 94.138 25.8255 94.1797 25.4297V24.2031C94.1589 23.8906 94.1042 23.6016 94.0156 23.3359C93.9323 23.0703 93.8125 22.8411 93.6562 22.6484C93.5052 22.4557 93.3177 22.3047 93.0938 22.1953C92.8698 22.0859 92.6042 22.0312 92.2969 22.0312C91.9792 22.0312 91.7083 22.1016 91.4844 22.2422C91.2604 22.3776 91.0781 22.5677 90.9375 22.8125C90.7969 23.0573 90.6927 23.3411 90.625 23.6641C90.5625 23.987 90.5312 24.3359 90.5312 24.7109Z" fill="white"/>
<rect x="16" y="39" width="30" height="20" rx="4" fill="url(#paint1_linear_173_2)"/>
<path d="M17.0156 77.9922C17.0156 77.6797 17.1224 77.4167 17.3359 77.2031C17.5495 76.9896 17.8385 76.8828 18.2031 76.8828C18.5677 76.8828 18.8568 76.9896 19.0703 77.2031C19.2839 77.4167 19.3906 77.6797 19.3906 77.9922C19.3906 78.2995 19.2839 78.5599 19.0703 78.7734C18.8568 78.9818 18.5677 79.0859 18.2031 79.0859C17.8385 79.0859 17.5495 78.9818 17.3359 78.7734C17.1224 78.5599 17.0156 78.2995 17.0156 77.9922ZM21.5625 77.9922C21.5625 77.6797 21.6693 77.4167 21.8828 77.2031C22.0964 76.9896 22.3854 76.8828 22.75 76.8828C23.1146 76.8828 23.4036 76.9896 23.6172 77.2031C23.8307 77.4167 23.9375 77.6797 23.9375 77.9922C23.9375 78.2995 23.8307 78.5599 23.6172 78.7734C23.4036 78.9818 23.1146 79.0859 22.75 79.0859C22.3854 79.0859 22.0964 78.9818 21.8828 78.7734C21.6693 78.5599 21.5625 78.2995 21.5625 77.9922ZM26.1094 77.9922C26.1094 77.6797 26.2161 77.4167 26.4297 77.2031C26.6432 76.9896 26.9323 76.8828 27.2969 76.8828C27.6615 76.8828 27.9505 76.9896 28.1641 77.2031C28.3776 77.4167 28.4844 77.6797 28.4844 77.9922C28.4844 78.2995 28.3776 78.5599 28.1641 78.7734C27.9505 78.9818 27.6615 79.0859 27.2969 79.0859C26.9323 79.0859 26.6432 78.9818 26.4297 78.7734C26.2161 78.5599 26.1094 78.2995 26.1094 77.9922ZM30.6562 77.9922C30.6562 77.6797 30.763 77.4167 30.9766 77.2031C31.1901 76.9896 31.4792 76.8828 31.8438 76.8828C32.2083 76.8828 32.4974 76.9896 32.7109 77.2031C32.9245 77.4167 33.0312 77.6797 33.0312 77.9922C33.0312 78.2995 32.9245 78.5599 32.7109 78.7734C32.4974 78.9818 32.2083 79.0859 31.8438 79.0859C31.4792 79.0859 31.1901 78.9818 30.9766 78.7734C30.763 78.5599 30.6562 78.2995 30.6562 77.9922ZM47.1562 77.9922C47.1562 77.6797 47.263 77.4167 47.4766 77.2031C47.6901 76.9896 47.9792 76.8828 48.3438 76.8828C48.7083 76.8828 48.9974 76.9896 49.2109 77.2031C49.4245 77.4167 49.5312 77.6797 49.5312 77.9922C49.5312 78.2995 49.4245 78.5599 49.2109 78.7734C48.9974 78.9818 48.7083 79.0859 48.3438 79.0859C47.9792 79.0859 47.6901 78.9818 47.4766 78.7734C47.263 78.5599 47.1562 78.2995 47.1562 77.9922ZM51.7031 77.9922C51.7031 77.6797 51.8099 77.4167 52.0234 77.2031C52.237 76.9896 52.526 76.8828 52.8906 76.8828C53.2552 76.8828 53.5443 76.9896 53.7578 77.2031C53.9714 77.4167 54.0781 77.6797 54.0781 77.9922C54.0781 78.2995 53.9714 78.5599 53.7578 78.7734C53.5443 78.9818 53.2552 79.0859 52.8906 79.0859C52.526 79.0859 52.237 78.9818 52.0234 78.7734C51.8099 78.5599 51.7031 78.2995 51.7031 77.9922ZM56.25 77.9922C56.25 77.6797 56.3568 77.4167 56.5703 77.2031C56.7839 76.9896 57.0729 76.8828 57.4375 76.8828C57.8021 76.8828 58.0911 76.9896 58.3047 77.2031C58.5182 77.4167 58.625 77.6797 58.625 77.9922C58.625 78.2995 58.5182 78.5599 58.3047 78.7734C58.0911 78.9818 57.8021 79.0859 57.4375 79.0859C57.0729 79.0859 56.7839 78.9818 56.5703 78.7734C56.3568 78.5599 56.25 78.2995 56.25 77.9922ZM60.7969 77.9922C60.7969 77.6797 60.9036 77.4167 61.1172 77.2031C61.3307 76.9896 61.6198 76.8828 61.9844 76.8828C62.349 76.8828 62.638 76.9896 62.8516 77.2031C63.0651 77.4167 63.1719 77.6797 63.1719 77.9922C63.1719 78.2995 63.0651 78.5599 62.8516 78.7734C62.638 78.9818 62.349 79.0859 61.9844 79.0859C61.6198 79.0859 61.3307 78.9818 61.1172 78.7734C60.9036 78.5599 60.7969 78.2995 60.7969 77.9922ZM77.2969 77.9922C77.2969 77.6797 77.4036 77.4167 77.6172 77.2031C77.8307 76.9896 78.1198 76.8828 78.4844 76.8828C78.849 76.8828 79.138 76.9896 79.3516 77.2031C79.5651 77.4167 79.6719 77.6797 79.6719 77.9922C79.6719 78.2995 79.5651 78.5599 79.3516 78.7734C79.138 78.9818 78.849 79.0859 78.4844 79.0859C78.1198 79.0859 77.8307 78.9818 77.6172 78.7734C77.4036 78.5599 77.2969 78.2995 77.2969 77.9922ZM81.8438 77.9922C81.8438 77.6797 81.9505 77.4167 82.1641 77.2031C82.3776 76.9896 82.6667 76.8828 83.0312 76.8828C83.3958 76.8828 83.6849 76.9896 83.8984 77.2031C84.112 77.4167 84.2188 77.6797 84.2188 77.9922C84.2188 78.2995 84.112 78.5599 83.8984 78.7734C83.6849 78.9818 83.3958 79.0859 83.0312 79.0859C82.6667 79.0859 82.3776 78.9818 82.1641 78.7734C81.9505 78.5599 81.8438 78.2995 81.8438 77.9922ZM86.3906 77.9922C86.3906 77.6797 86.4974 77.4167 86.7109 77.2031C86.9245 76.9896 87.2135 76.8828 87.5781 76.8828C87.9427 76.8828 88.2318 76.9896 88.4453 77.2031C88.6589 77.4167 88.7656 77.6797 88.7656 77.9922C88.7656 78.2995 88.6589 78.5599 88.4453 78.7734C88.2318 78.9818 87.9427 79.0859 87.5781 79.0859C87.2135 79.0859 86.9245 78.9818 86.7109 78.7734C86.4974 78.5599 86.3906 78.2995 86.3906 77.9922ZM90.9375 77.9922C90.9375 77.6797 91.0443 77.4167 91.2578 77.2031C91.4714 76.9896 91.7604 76.8828 92.125 76.8828C92.4896 76.8828 92.7786 76.9896 92.9922 77.2031C93.2057 77.4167 93.3125 77.6797 93.3125 77.9922C93.3125 78.2995 93.2057 78.5599 92.9922 78.7734C92.7786 78.9818 92.4896 79.0859 92.125 79.0859C91.7604 79.0859 91.4714 78.9818 91.2578 78.7734C91.0443 78.5599 90.9375 78.2995 90.9375 77.9922ZM107.438 77.9922C107.438 77.6797 107.544 77.4167 107.758 77.2031C107.971 76.9896 108.26 76.8828 108.625 76.8828C108.99 76.8828 109.279 76.9896 109.492 77.2031C109.706 77.4167 109.812 77.6797 109.812 77.9922C109.812 78.2995 109.706 78.5599 109.492 78.7734C109.279 78.9818 108.99 79.0859 108.625 79.0859C108.26 79.0859 107.971 78.9818 107.758 78.7734C107.544 78.5599 107.438 78.2995 107.438 77.9922ZM111.984 77.9922C111.984 77.6797 112.091 77.4167 112.305 77.2031C112.518 76.9896 112.807 76.8828 113.172 76.8828C113.536 76.8828 113.826 76.9896 114.039 77.2031C114.253 77.4167 114.359 77.6797 114.359 77.9922C114.359 78.2995 114.253 78.5599 114.039 78.7734C113.826 78.9818 113.536 79.0859 113.172 79.0859C112.807 79.0859 112.518 78.9818 112.305 78.7734C112.091 78.5599 111.984 78.2995 111.984 77.9922ZM116.531 77.9922C116.531 77.6797 116.638 77.4167 116.852 77.2031C117.065 76.9896 117.354 76.8828 117.719 76.8828C118.083 76.8828 118.372 76.9896 118.586 77.2031C118.799 77.4167 118.906 77.6797 118.906 77.9922C118.906 78.2995 118.799 78.5599 118.586 78.7734C118.372 78.9818 118.083 79.0859 117.719 79.0859C117.354 79.0859 117.065 78.9818 116.852 78.7734C116.638 78.5599 116.531 78.2995 116.531 77.9922ZM121.078 77.9922C121.078 77.6797 121.185 77.4167 121.398 77.2031C121.612 76.9896 121.901 76.8828 122.266 76.8828C122.63 76.8828 122.919 76.9896 123.133 77.2031C123.346 77.4167 123.453 77.6797 123.453 77.9922C123.453 78.2995 123.346 78.5599 123.133 78.7734C122.919 78.9818 122.63 79.0859 122.266 79.0859C121.901 79.0859 121.612 78.9818 121.398 78.7734C121.185 78.5599 121.078 78.2995 121.078 77.9922Z" fill="white"/>
<path opacity="0.3" d="M296 21H304H312V22.5V23.3333H296V21ZM296 25H304H312V29V33H304H296V29V25Z" fill="#FFB630"/>
<path d="M311.333 19.6667H296.666C295.649 19.6667 294.842 20.4826 294.842 21.5001L294.833 32.5001C294.833 33.5176 295.649 34.3334 296.666 34.3334H311.333C312.351 34.3334 313.166 33.5176 313.166 32.5001V21.5001C313.166 20.4826 312.351 19.6667 311.333 19.6667ZM312 33.0001H296V25.0001H304H312V28.5001V33.0001ZM312 23.3334H296V21.0001H304H312V23.3334Z" fill="black"/>
<path d="M20.9219 102.686H22.1426C22.1035 103.151 21.9733 103.566 21.752 103.931C21.5306 104.292 21.2197 104.577 20.8193 104.785C20.4189 104.993 19.9323 105.098 19.3594 105.098C18.9199 105.098 18.5244 105.02 18.1729 104.863C17.8213 104.704 17.5202 104.479 17.2695 104.189C17.0189 103.896 16.8268 103.543 16.6934 103.13C16.5632 102.716 16.498 102.254 16.498 101.743V101.152C16.498 100.641 16.5648 100.179 16.6982 99.7656C16.835 99.3522 17.0303 98.999 17.2842 98.7061C17.5381 98.4098 17.8424 98.1836 18.1973 98.0273C18.5553 97.8711 18.9574 97.793 19.4033 97.793C19.9697 97.793 20.4482 97.8971 20.8389 98.1055C21.2295 98.3138 21.5322 98.6019 21.7471 98.9697C21.9652 99.3376 22.0986 99.7591 22.1475 100.234H20.9268C20.8942 99.9284 20.8226 99.6663 20.7119 99.4482C20.6045 99.2301 20.445 99.0641 20.2334 98.9502C20.0218 98.833 19.7451 98.7744 19.4033 98.7744C19.1234 98.7744 18.8792 98.8265 18.6709 98.9307C18.4626 99.0348 18.2884 99.1878 18.1484 99.3896C18.0085 99.5915 17.9027 99.8405 17.8311 100.137C17.7627 100.43 17.7285 100.765 17.7285 101.143V101.743C17.7285 102.101 17.7594 102.427 17.8213 102.72C17.8864 103.009 17.984 103.258 18.1143 103.467C18.2477 103.675 18.417 103.836 18.6221 103.95C18.8271 104.064 19.0729 104.121 19.3594 104.121C19.7077 104.121 19.9893 104.066 20.2041 103.955C20.4222 103.844 20.5866 103.683 20.6973 103.472C20.8112 103.257 20.8861 102.995 20.9219 102.686ZM26.0244 98.8379L23.9004 105H22.6162L25.292 97.8906H26.1123L26.0244 98.8379ZM27.8018 105L25.6729 98.8379L25.5801 97.8906H26.4053L29.0908 105H27.8018ZM27.6992 102.363V103.335H23.832V102.363H27.6992ZM29.8867 97.8906H32.4014C32.9417 97.8906 33.4023 97.972 33.7832 98.1348C34.1641 98.2975 34.4554 98.5384 34.6572 98.8574C34.8623 99.1732 34.9648 99.5638 34.9648 100.029C34.9648 100.384 34.8997 100.697 34.7695 100.967C34.6393 101.237 34.4554 101.465 34.2178 101.65C33.9801 101.833 33.6969 101.974 33.3682 102.075L32.9971 102.256H30.7363L30.7266 101.284H32.4209C32.7139 101.284 32.958 101.232 33.1533 101.128C33.3486 101.024 33.4951 100.882 33.5928 100.703C33.6937 100.521 33.7441 100.316 33.7441 100.088C33.7441 99.8405 33.6953 99.6257 33.5977 99.4434C33.5033 99.2578 33.3568 99.1162 33.1582 99.0186C32.9596 98.9176 32.7074 98.8672 32.4014 98.8672H31.1123V105H29.8867V97.8906ZM33.9443 105L32.2744 101.807L33.5586 101.802L35.2529 104.937V105H33.9443ZM38.251 105H36.7324L36.7422 104.028H38.251C38.6904 104.028 39.0583 103.932 39.3545 103.74C39.654 103.548 39.8786 103.273 40.0283 102.915C40.1813 102.557 40.2578 102.131 40.2578 101.636V101.25C40.2578 100.866 40.2139 100.526 40.126 100.229C40.0413 99.9333 39.9144 99.6842 39.7451 99.4824C39.5791 99.2806 39.374 99.1276 39.1299 99.0234C38.889 98.9193 38.6107 98.8672 38.2949 98.8672H36.7031V97.8906H38.2949C38.7669 97.8906 39.1982 97.9704 39.5889 98.1299C39.9795 98.2861 40.3164 98.5124 40.5996 98.8086C40.8861 99.1048 41.1058 99.4596 41.2588 99.873C41.4118 100.286 41.4883 100.749 41.4883 101.26V101.636C41.4883 102.147 41.4118 102.609 41.2588 103.022C41.1058 103.436 40.8861 103.791 40.5996 104.087C40.3132 104.38 39.9714 104.606 39.5742 104.766C39.1803 104.922 38.7393 105 38.251 105ZM37.4111 97.8906V105H36.1855V97.8906H37.4111ZM49.9062 100.859V101.831H46.1318V100.859H49.9062ZM46.4346 97.8906V105H45.209V97.8906H46.4346ZM50.8486 97.8906V105H49.6279V97.8906H50.8486ZM57.9775 101.25V101.641C57.9775 102.178 57.9076 102.66 57.7676 103.086C57.6276 103.512 57.4274 103.875 57.167 104.175C56.9098 104.474 56.6006 104.704 56.2393 104.863C55.8779 105.02 55.4775 105.098 55.0381 105.098C54.6019 105.098 54.2031 105.02 53.8418 104.863C53.4837 104.704 53.1729 104.474 52.9092 104.175C52.6455 103.875 52.4404 103.512 52.2939 103.086C52.1507 102.66 52.0791 102.178 52.0791 101.641V101.25C52.0791 100.713 52.1507 100.233 52.2939 99.8096C52.4372 99.3831 52.639 99.0202 52.8994 98.7207C53.1631 98.418 53.474 98.1885 53.832 98.0322C54.1934 97.8727 54.5921 97.793 55.0283 97.793C55.4678 97.793 55.8682 97.8727 56.2295 98.0322C56.5908 98.1885 56.9017 98.418 57.1621 98.7207C57.4225 99.0202 57.6227 99.3831 57.7627 99.8096C57.9059 100.233 57.9775 100.713 57.9775 101.25ZM56.752 101.641V101.24C56.752 100.843 56.7129 100.493 56.6348 100.19C56.5599 99.8844 56.4476 99.6289 56.2979 99.4238C56.1514 99.2155 55.9707 99.0592 55.7559 98.9551C55.541 98.8477 55.2985 98.7939 55.0283 98.7939C54.7581 98.7939 54.5173 98.8477 54.3057 98.9551C54.0941 99.0592 53.9134 99.2155 53.7637 99.4238C53.6172 99.6289 53.5049 99.8844 53.4268 100.19C53.3486 100.493 53.3096 100.843 53.3096 101.24V101.641C53.3096 102.038 53.3486 102.389 53.4268 102.695C53.5049 103.001 53.6188 103.26 53.7686 103.472C53.9215 103.68 54.1038 103.838 54.3154 103.945C54.527 104.049 54.7679 104.102 55.0381 104.102C55.3115 104.102 55.554 104.049 55.7656 103.945C55.9772 103.838 56.1562 103.68 56.3027 103.472C56.4492 103.26 56.5599 103.001 56.6348 102.695C56.7129 102.389 56.752 102.038 56.752 101.641ZM63.6562 104.028V105H60.0869V104.028H63.6562ZM60.4287 97.8906V105H59.2031V97.8906H60.4287ZM66.6689 105H65.1504L65.1602 104.028H66.6689C67.1084 104.028 67.4762 103.932 67.7725 103.74C68.0719 103.548 68.2965 103.273 68.4463 102.915C68.5993 102.557 68.6758 102.131 68.6758 101.636V101.25C68.6758 100.866 68.6318 100.526 68.5439 100.229C68.4593 99.9333 68.3324 99.6842 68.1631 99.4824C67.9971 99.2806 67.792 99.1276 67.5479 99.0234C67.307 98.9193 67.0286 98.8672 66.7129 98.8672H65.1211V97.8906H66.7129C67.1849 97.8906 67.6162 97.9704 68.0068 98.1299C68.3975 98.2861 68.7344 98.5124 69.0176 98.8086C69.304 99.1048 69.5238 99.4596 69.6768 99.873C69.8298 100.286 69.9062 100.749 69.9062 101.26V101.636C69.9062 102.147 69.8298 102.609 69.6768 103.022C69.5238 103.436 69.304 103.791 69.0176 104.087C68.7311 104.38 68.3893 104.606 67.9922 104.766C67.5983 104.922 67.1572 105 66.6689 105ZM65.8291 97.8906V105H64.6035V97.8906H65.8291ZM75.79 104.028V105H72.0156V104.028H75.79ZM72.3623 97.8906V105H71.1367V97.8906H72.3623ZM75.2969 100.859V101.816H72.0156V100.859H75.2969ZM75.7656 97.8906V98.8672H72.0156V97.8906H75.7656ZM76.791 97.8906H79.3057C79.846 97.8906 80.3066 97.972 80.6875 98.1348C81.0684 98.2975 81.3597 98.5384 81.5615 98.8574C81.7666 99.1732 81.8691 99.5638 81.8691 100.029C81.8691 100.384 81.804 100.697 81.6738 100.967C81.5436 101.237 81.3597 101.465 81.1221 101.65C80.8844 101.833 80.6012 101.974 80.2725 102.075L79.9014 102.256H77.6406L77.6309 101.284H79.3252C79.6182 101.284 79.8623 101.232 80.0576 101.128C80.2529 101.024 80.3994 100.882 80.4971 100.703C80.598 100.521 80.6484 100.316 80.6484 100.088C80.6484 99.8405 80.5996 99.6257 80.502 99.4434C80.4076 99.2578 80.2611 99.1162 80.0625 99.0186C79.8639 98.9176 79.6117 98.8672 79.3057 98.8672H78.0166V105H76.791V97.8906ZM80.8486 105L79.1787 101.807L80.4629 101.802L82.1572 104.937V105H80.8486Z" fill="white"/>
<path d="M17.9482 113.891V121H16.7227V113.891H17.9482ZM20.8486 117.001V117.973H17.6357V117.001H20.8486ZM21.2539 113.891V114.867H17.6357V113.891H21.2539ZM26.2197 113.891H27.4404V118.642C27.4404 119.182 27.3232 119.634 27.0889 119.999C26.8545 120.364 26.5355 120.639 26.1318 120.824C25.7314 121.007 25.2839 121.098 24.7891 121.098C24.278 121.098 23.8223 121.007 23.4219 120.824C23.0215 120.639 22.7057 120.364 22.4746 119.999C22.2467 119.634 22.1328 119.182 22.1328 118.642V113.891H23.3535V118.642C23.3535 118.983 23.4121 119.265 23.5293 119.486C23.6465 119.704 23.8125 119.866 24.0273 119.97C24.2422 120.074 24.4961 120.126 24.7891 120.126C25.082 120.126 25.3343 120.074 25.5459 119.97C25.7607 119.866 25.9268 119.704 26.0439 119.486C26.1611 119.265 26.2197 118.983 26.2197 118.642V113.891ZM33.2266 120.028V121H29.6572V120.028H33.2266ZM29.999 113.891V121H28.7734V113.891H29.999ZM38.627 120.028V121H35.0576V120.028H38.627ZM35.3994 113.891V121H34.1738V113.891H35.3994ZM47.7041 113.891V121H46.4785L43.29 115.907V121H42.0645V113.891H43.29L46.4883 118.993V113.891H47.7041ZM52.0205 114.838L49.8965 121H48.6123L51.2881 113.891H52.1084L52.0205 114.838ZM53.7979 121L51.6689 114.838L51.5762 113.891H52.4014L55.0869 121H53.7979ZM53.6953 118.363V119.335H49.8281V118.363H53.6953ZM56.3809 113.891H57.4746L59.5303 119.374L61.5811 113.891H62.6748L59.96 121H59.0908L56.3809 113.891ZM55.8828 113.891H56.9229L57.1035 118.637V121H55.8828V113.891ZM62.1328 113.891H63.1777V121H61.9521V118.637L62.1328 113.891ZM69.2861 120.028V121H65.5117V120.028H69.2861ZM65.8584 113.891V121H64.6328V113.891H65.8584ZM68.793 116.859V117.816H65.5117V116.859H68.793ZM69.2617 113.891V114.867H65.5117V113.891H69.2617Z" fill="white"/>
<path d="M281.177 104.028V105H277.402V104.028H281.177ZM277.749 97.8906V105H276.523V97.8906H277.749ZM280.684 100.859V101.816H277.402V100.859H280.684ZM281.152 97.8906V98.8672H277.402V97.8906H281.152ZM283.11 97.8906L284.619 100.483L286.128 97.8906H287.539L285.391 101.411L287.593 105H286.167L284.619 102.358L283.071 105H281.641L283.848 101.411L281.694 97.8906H283.11ZM291.196 102.349H289.346V101.377H291.196C291.519 101.377 291.779 101.325 291.978 101.221C292.176 101.117 292.321 100.973 292.412 100.791C292.507 100.605 292.554 100.394 292.554 100.156C292.554 99.9316 292.507 99.7217 292.412 99.5264C292.321 99.3278 292.176 99.1683 291.978 99.0479C291.779 98.9274 291.519 98.8672 291.196 98.8672H289.722V105H288.496V97.8906H291.196C291.746 97.8906 292.214 97.9883 292.598 98.1836C292.985 98.3757 293.28 98.6426 293.481 98.9844C293.683 99.3229 293.784 99.7103 293.784 100.146C293.784 100.605 293.683 100.999 293.481 101.328C293.28 101.657 292.985 101.909 292.598 102.085C292.214 102.261 291.746 102.349 291.196 102.349ZM296.191 97.8906V105H294.966V97.8906H296.191ZM297.715 97.8906H300.229C300.77 97.8906 301.23 97.972 301.611 98.1348C301.992 98.2975 302.284 98.5384 302.485 98.8574C302.69 99.1732 302.793 99.5638 302.793 100.029C302.793 100.384 302.728 100.697 302.598 100.967C302.467 101.237 302.284 101.465 302.046 101.65C301.808 101.833 301.525 101.974 301.196 102.075L300.825 102.256H298.564L298.555 101.284H300.249C300.542 101.284 300.786 101.232 300.981 101.128C301.177 101.024 301.323 100.882 301.421 100.703C301.522 100.521 301.572 100.316 301.572 100.088C301.572 99.8405 301.523 99.6257 301.426 99.4434C301.331 99.2578 301.185 99.1162 300.986 99.0186C300.788 98.9176 300.535 98.8672 300.229 98.8672H298.94V105H297.715V97.8906ZM301.772 105L300.103 101.807L301.387 101.802L303.081 104.937V105H301.772ZM308.667 104.028V105H304.893V104.028H308.667ZM305.239 97.8906V105H304.014V97.8906H305.239ZM308.174 100.859V101.816H304.893V100.859H308.174ZM308.643 97.8906V98.8672H304.893V97.8906H308.643ZM313.408 103.169C313.408 103.022 313.385 102.892 313.34 102.778C313.298 102.664 313.221 102.56 313.11 102.466C313 102.371 312.843 102.28 312.642 102.192C312.443 102.101 312.189 102.008 311.88 101.914C311.541 101.81 311.229 101.694 310.942 101.567C310.659 101.437 310.412 101.287 310.2 101.118C309.989 100.946 309.824 100.749 309.707 100.527C309.59 100.303 309.531 100.044 309.531 99.751C309.531 99.4613 309.591 99.1976 309.712 98.96C309.836 98.7223 310.01 98.5173 310.234 98.3447C310.462 98.1689 310.731 98.0339 311.04 97.9395C311.349 97.8418 311.691 97.793 312.065 97.793C312.593 97.793 313.047 97.8906 313.428 98.0859C313.812 98.2812 314.106 98.5433 314.312 98.8721C314.52 99.2008 314.624 99.5638 314.624 99.9609H313.408C313.408 99.7266 313.358 99.5199 313.257 99.3408C313.159 99.1585 313.009 99.0153 312.808 98.9111C312.609 98.807 312.357 98.7549 312.051 98.7549C311.761 98.7549 311.52 98.7988 311.328 98.8867C311.136 98.9746 310.993 99.0934 310.898 99.2432C310.804 99.3929 310.757 99.5622 310.757 99.751C310.757 99.8844 310.788 100.007 310.85 100.117C310.911 100.225 311.006 100.326 311.133 100.42C311.26 100.511 311.419 100.597 311.611 100.679C311.803 100.76 312.03 100.838 312.29 100.913C312.684 101.03 313.027 101.16 313.32 101.304C313.613 101.444 313.857 101.603 314.053 101.782C314.248 101.961 314.395 102.165 314.492 102.393C314.59 102.617 314.639 102.873 314.639 103.159C314.639 103.459 314.578 103.729 314.458 103.97C314.338 104.207 314.165 104.411 313.94 104.58C313.719 104.746 313.452 104.875 313.14 104.966C312.83 105.054 312.485 105.098 312.104 105.098C311.763 105.098 311.426 105.052 311.094 104.961C310.765 104.87 310.465 104.731 310.195 104.546C309.925 104.357 309.71 104.123 309.551 103.843C309.391 103.56 309.312 103.229 309.312 102.852H310.537C310.537 103.083 310.576 103.28 310.654 103.442C310.736 103.605 310.848 103.739 310.991 103.843C311.134 103.944 311.3 104.019 311.489 104.067C311.681 104.116 311.886 104.141 312.104 104.141C312.391 104.141 312.63 104.1 312.822 104.019C313.018 103.937 313.164 103.823 313.262 103.677C313.359 103.53 313.408 103.361 313.408 103.169Z" fill="white"/>
<path d="M282.5 113.891H283.594L285.649 119.374L287.7 113.891H288.794L286.079 121H285.21L282.5 113.891ZM282.002 113.891H283.042L283.223 118.637V121H282.002V113.891ZM288.252 113.891H289.297V121H288.071V118.637L288.252 113.891ZM291.25 113.891H292.344L294.399 119.374L296.45 113.891H297.544L294.829 121H293.96L291.25 113.891ZM290.752 113.891H291.792L291.973 118.637V121H290.752V113.891ZM297.002 113.891H298.047V121H296.821V118.637L297.002 113.891ZM302.476 113.891L299.707 121.61H298.784L301.558 113.891H302.476ZM304.087 113.891L305.737 117.284L307.388 113.891H308.745L306.353 118.383V121H305.117V118.383L302.725 113.891H304.087ZM310.288 113.891L311.938 117.284L313.589 113.891H314.946L312.554 118.383V121H311.318V118.383L308.926 113.891H310.288Z" fill="white"/>
<defs>
<linearGradient id="paint0_linear_173_2" x1="0" y1="71" x2="331" y2="71" gradientUnits="userSpaceOnUse">
<stop stop-color="#4776E6"/>
<stop offset="1" stop-color="#8E54E9"/>
</linearGradient>
<linearGradient id="paint1_linear_173_2" x1="16" y1="49" x2="46" y2="49" gradientUnits="userSpaceOnUse">
<stop stop-color="#D0A343"/>
<stop offset="1" stop-color="#FFD700"/>
</linearGradient>
</defs>
</svg>
